<mxfile host="Electron" agent="Mozilla/5.0 (Macintosh; Intel Mac OS X 10_15_7) AppleWebKit/537.36 (KHTML, like Gecko) draw.io/26.2.15 Chrome/134.0.6998.205 Electron/35.2.1 Safari/537.36" version="26.2.15" pages="15">
  <diagram name="Totaal-voorbeeld" id="UQLmpzM3Ek4ZoapNJr0t">
    <mxGraphModel dx="1426" dy="859" grid="1" gridSize="10" guides="1" tooltips="1" connect="1" arrows="1" fold="1" page="1" pageScale="1" pageWidth="1169" pageHeight="827" math="0" shadow="0">
      <root>
        <mxCell id="0" />
        <mxCell id="1" parent="0" />
        <mxCell id="e5RYseUx7hpyyAVNTuOH-1" value="Operation" style="rounded=1;whiteSpace=wrap;html=1;align=left;fontSize=16;spacing=5;absoluteArcSize=1;fillColor=none;" parent="1" vertex="1">
          <mxGeometry x="51" y="120" width="400" height="100" as="geometry" />
        </mxCell>
        <mxCell id="e5RYseUx7hpyyAVNTuOH-3" value="trace_id" style="rounded=1;whiteSpace=wrap;html=1;strokeColor=none;fillColor=#1BB000;points=[[0,0,0,0,0],[0,0.25,0,0,0],[0,0.75,0,0,0],[0,1,0,0,0],[0.05,0.5,0,0,0],[0.25,0,0,0,0],[0.25,1,0,0,0],[0.5,0,0,0,0],[0.5,1,0,0,0],[0.75,0,0,0,0],[0.75,1,0,0,0],[0.95,0.5,0,0,0],[1,0,0,0,0],[1,0.25,0,0,0],[1,0.75,0,0,0],[1,1,0,0,0]];align=left;spacing=5;" parent="1" vertex="1">
          <mxGeometry x="265" y="146" width="180" height="20" as="geometry" />
        </mxCell>
        <mxCell id="e5RYseUx7hpyyAVNTuOH-5" value="&quot;Toon alle vergunningen&quot;" style="text;html=1;align=left;verticalAlign=middle;whiteSpace=wrap;rounded=0;fontStyle=0;fontSize=15;fontColor=#009EFF;" parent="1" vertex="1">
          <mxGeometry x="57" y="172" width="204" height="30" as="geometry" />
        </mxCell>
        <mxCell id="e5RYseUx7hpyyAVNTuOH-7" value="processing_activity_id" style="rounded=1;whiteSpace=wrap;html=1;strokeColor=none;fillColor=#009EFF;points=[[0,0,0,0,0],[0,0.25,0,0,0],[0,0.75,0,0,0],[0,1,0,0,0],[0.05,0.5,0,0,0],[0.25,0,0,0,0],[0.25,1,0,0,0],[0.5,0,0,0,0],[0.5,1,0,0,0],[0.75,0,0,0,0],[0.75,1,0,0,0],[0.95,0.5,0,0,0],[1,0,0,0,0],[1,0.25,0,0,0],[1,0.75,0,0,0],[1,1,0,0,0]];align=left;spacing=5;" parent="1" vertex="1">
          <mxGeometry x="265" y="167" width="180" height="20" as="geometry" />
        </mxCell>
        <mxCell id="e5RYseUx7hpyyAVNTuOH-8" value="Operation" style="rounded=1;whiteSpace=wrap;html=1;align=left;fontSize=16;spacing=5;absoluteArcSize=1;fillColor=none;" parent="1" vertex="1">
          <mxGeometry x="51" y="230" width="400" height="100" as="geometry" />
        </mxCell>
        <mxCell id="e5RYseUx7hpyyAVNTuOH-10" value="trace_id" style="rounded=1;whiteSpace=wrap;html=1;strokeColor=none;fillColor=#1BB000;points=[[0,0,0,0,0],[0,0.25,0,0,0],[0,0.75,0,0,0],[0,1,0,0,0],[0.05,0.5,0,0,0],[0.25,0,0,0,0],[0.25,1,0,0,0],[0.5,0,0,0,0],[0.5,1,0,0,0],[0.75,0,0,0,0],[0.75,1,0,0,0],[0.95,0.5,0,0,0],[1,0,0,0,0],[1,0.25,0,0,0],[1,0.75,0,0,0],[1,1,0,0,0]];align=left;spacing=5;" parent="1" vertex="1">
          <mxGeometry x="265" y="256" width="180" height="20" as="geometry" />
        </mxCell>
        <mxCell id="e5RYseUx7hpyyAVNTuOH-11" value="&quot;Wijzig kenteken&quot;" style="text;html=1;align=left;verticalAlign=middle;whiteSpace=wrap;rounded=0;fontStyle=0;fontSize=15;fontColor=#009EFF;" parent="1" vertex="1">
          <mxGeometry x="57" y="282" width="204" height="30" as="geometry" />
        </mxCell>
        <mxCell id="e5RYseUx7hpyyAVNTuOH-13" value="processing_activity_id" style="rounded=1;whiteSpace=wrap;html=1;strokeColor=none;fillColor=#009EFF;points=[[0,0,0,0,0],[0,0.25,0,0,0],[0,0.75,0,0,0],[0,1,0,0,0],[0.05,0.5,0,0,0],[0.25,0,0,0,0],[0.25,1,0,0,0],[0.5,0,0,0,0],[0.5,1,0,0,0],[0.75,0,0,0,0],[0.75,1,0,0,0],[0.95,0.5,0,0,0],[1,0,0,0,0],[1,0.25,0,0,0],[1,0.75,0,0,0],[1,1,0,0,0]];align=left;spacing=5;" parent="1" vertex="1">
          <mxGeometry x="265" y="277" width="180" height="20" as="geometry" />
        </mxCell>
        <mxCell id="e5RYseUx7hpyyAVNTuOH-20" value="span_id" style="rounded=1;whiteSpace=wrap;html=1;strokeColor=none;fillColor=light-dark(#ff40a0, #22a20b);points=[[0,0,0,0,0],[0,0.25,0,0,0],[0,0.75,0,0,0],[0,1,0,0,0],[0.05,0.5,0,0,0],[0.25,0,0,0,0],[0.25,1,0,0,0],[0.5,0,0,0,0],[0.5,1,0,0,0],[0.75,0,0,0,0],[0.75,1,0,0,0],[0.95,0.5,0,0,0],[1,0,0,0,0],[1,0.25,0,0,0],[1,0.75,0,0,0],[1,1,0,0,0]];align=left;spacing=5;" parent="1" vertex="1">
          <mxGeometry x="265" y="125" width="180" height="20" as="geometry" />
        </mxCell>
        <mxCell id="e5RYseUx7hpyyAVNTuOH-21" value="span_id" style="rounded=1;whiteSpace=wrap;html=1;strokeColor=none;fillColor=light-dark(#ff40a0, #22a20b);points=[[0,0,0,0,0],[0,0.25,0,0,0],[0,0.75,0,0,0],[0,1,0,0,0],[0.05,0.5,0,0,0],[0.25,0,0,0,0],[0.25,1,0,0,0],[0.5,0,0,0,0],[0.5,1,0,0,0],[0.75,0,0,0,0],[0.75,1,0,0,0],[0.95,0.5,0,0,0],[1,0,0,0,0],[1,0.25,0,0,0],[1,0.75,0,0,0],[1,1,0,0,0]];align=left;spacing=5;gradientColor=#FF958C;gradientDirection=east;" parent="1" vertex="1">
          <mxGeometry x="265" y="235" width="180" height="20" as="geometry" />
        </mxCell>
        <mxCell id="e5RYseUx7hpyyAVNTuOH-22" value="Operation" style="rounded=1;whiteSpace=wrap;html=1;align=left;fontSize=16;spacing=5;absoluteArcSize=1;fillColor=none;" parent="1" vertex="1">
          <mxGeometry x="101" y="340" width="400" height="100" as="geometry" />
        </mxCell>
        <mxCell id="e5RYseUx7hpyyAVNTuOH-23" value="trace_id" style="rounded=1;whiteSpace=wrap;html=1;strokeColor=none;fillColor=#1BB000;points=[[0,0,0,0,0],[0,0.25,0,0,0],[0,0.75,0,0,0],[0,1,0,0,0],[0.05,0.5,0,0,0],[0.25,0,0,0,0],[0.25,1,0,0,0],[0.5,0,0,0,0],[0.5,1,0,0,0],[0.75,0,0,0,0],[0.75,1,0,0,0],[0.95,0.5,0,0,0],[1,0,0,0,0],[1,0.25,0,0,0],[1,0.75,0,0,0],[1,1,0,0,0]];align=left;spacing=5;" parent="1" vertex="1">
          <mxGeometry x="315" y="366" width="180" height="20" as="geometry" />
        </mxCell>
        <mxCell id="e5RYseUx7hpyyAVNTuOH-24" value="&quot;Controleer tenaamstelling&quot;" style="text;html=1;align=left;verticalAlign=middle;whiteSpace=wrap;rounded=0;fontStyle=0;fontSize=15;fontColor=#009EFF;" parent="1" vertex="1">
          <mxGeometry x="107" y="392" width="204" height="30" as="geometry" />
        </mxCell>
        <mxCell id="e5RYseUx7hpyyAVNTuOH-25" value="processing_activity_id" style="rounded=1;whiteSpace=wrap;html=1;strokeColor=none;fillColor=#009EFF;points=[[0,0,0,0,0],[0,0.25,0,0,0],[0,0.75,0,0,0],[0,1,0,0,0],[0.05,0.5,0,0,0],[0.25,0,0,0,0],[0.25,1,0,0,0],[0.5,0,0,0,0],[0.5,1,0,0,0],[0.75,0,0,0,0],[0.75,1,0,0,0],[0.95,0.5,0,0,0],[1,0,0,0,0],[1,0.25,0,0,0],[1,0.75,0,0,0],[1,1,0,0,0]];align=left;spacing=5;" parent="1" vertex="1">
          <mxGeometry x="315" y="387" width="180" height="20" as="geometry" />
        </mxCell>
        <mxCell id="e5RYseUx7hpyyAVNTuOH-26" value="span_id" style="rounded=1;whiteSpace=wrap;html=1;strokeColor=none;fillColor=light-dark(#ff40a0, #22a20b);points=[[0,0,0,0,0],[0,0.25,0,0,0],[0,0.75,0,0,0],[0,1,0,0,0],[0.05,0.5,0,0,0],[0.25,0,0,0,0],[0.25,1,0,0,0],[0.5,0,0,0,0],[0.5,1,0,0,0],[0.75,0,0,0,0],[0.75,1,0,0,0],[0.95,0.5,0,0,0],[1,0,0,0,0],[1,0.25,0,0,0],[1,0.75,0,0,0],[1,1,0,0,0]];align=left;spacing=5;" parent="1" vertex="1">
          <mxGeometry x="315" y="345" width="180" height="20" as="geometry" />
        </mxCell>
        <mxCell id="e5RYseUx7hpyyAVNTuOH-28" value="Operation" style="rounded=1;whiteSpace=wrap;html=1;align=left;fontSize=16;spacing=5;absoluteArcSize=1;fillColor=none;" parent="1" vertex="1">
          <mxGeometry x="51" y="491" width="400" height="130" as="geometry" />
        </mxCell>
        <mxCell id="e5RYseUx7hpyyAVNTuOH-29" value="foreign_trace_id" style="rounded=1;whiteSpace=wrap;html=1;strokeColor=none;fillColor=#1BB000;points=[[0,0,0,0,0],[0,0.25,0,0,0],[0,0.75,0,0,0],[0,1,0,0,0],[0.05,0.5,0,0,0],[0.25,0,0,0,0],[0.25,1,0,0,0],[0.5,0,0,0,0],[0.5,1,0,0,0],[0.75,0,0,0,0],[0.75,1,0,0,0],[0.95,0.5,0,0,0],[1,0,0,0,0],[1,0.25,0,0,0],[1,0.75,0,0,0],[1,1,0,0,0]];align=left;spacing=5;gradientColor=#F1E8E2;gradientDirection=west;" parent="1" vertex="1">
          <mxGeometry x="265" y="526" width="180" height="20" as="geometry" />
        </mxCell>
        <mxCell id="e5RYseUx7hpyyAVNTuOH-30" value="&quot;Verstrek houdergegevens&quot;" style="text;html=1;align=left;verticalAlign=middle;whiteSpace=wrap;rounded=0;fontStyle=0;fontSize=15;fontColor=#009EFF;" parent="1" vertex="1">
          <mxGeometry x="57" y="567" width="204" height="30" as="geometry" />
        </mxCell>
        <mxCell id="e5RYseUx7hpyyAVNTuOH-31" value="foreign_span_id" style="rounded=1;whiteSpace=wrap;html=1;strokeColor=none;fillColor=#FF958C;points=[[0,0,0,0,0],[0,0.25,0,0,0],[0,0.75,0,0,0],[0,1,0,0,0],[0.05,0.5,0,0,0],[0.25,0,0,0,0],[0.25,1,0,0,0],[0.5,0,0,0,0],[0.5,1,0,0,0],[0.75,0,0,0,0],[0.75,1,0,0,0],[0.95,0.5,0,0,0],[1,0,0,0,0],[1,0.25,0,0,0],[1,0.75,0,0,0],[1,1,0,0,0]];align=left;spacing=5;gradientColor=#FF40A0;gradientDirection=east;" parent="1" vertex="1">
          <mxGeometry x="265" y="547" width="180" height="20" as="geometry" />
        </mxCell>
        <mxCell id="e5RYseUx7hpyyAVNTuOH-32" value="span_id" style="rounded=1;whiteSpace=wrap;html=1;strokeColor=none;fillColor=light-dark(#ff40a0, #22a20b);points=[[0,0,0,0,0],[0,0.25,0,0,0],[0,0.75,0,0,0],[0,1,0,0,0],[0.05,0.5,0,0,0],[0.25,0,0,0,0],[0.25,1,0,0,0],[0.5,0,0,0,0],[0.5,1,0,0,0],[0.75,0,0,0,0],[0.75,1,0,0,0],[0.95,0.5,0,0,0],[1,0,0,0,0],[1,0.25,0,0,0],[1,0.75,0,0,0],[1,1,0,0,0]];align=left;spacing=5;" parent="1" vertex="1">
          <mxGeometry x="265" y="505" width="180" height="20" as="geometry" />
        </mxCell>
        <mxCell id="e5RYseUx7hpyyAVNTuOH-33" value="parent_span_id" style="rounded=1;whiteSpace=wrap;html=1;strokeColor=none;fillColor=#FF958C;points=[[0,0,0,0,0],[0,0.25,0,0,0],[0,0.75,0,0,0],[0,1,0,0,0],[0.05,0.5,0,0,0],[0.25,0,0,0,0],[0.25,1,0,0,0],[0.5,0,0,0,0],[0.5,1,0,0,0],[0.75,0,0,0,0],[0.75,1,0,0,0],[0.95,0.5,0,0,0],[1,0,0,0,0],[1,0.25,0,0,0],[1,0.75,0,0,0],[1,1,0,0,0]];align=left;spacing=5;gradientColor=none;gradientDirection=east;" parent="1" vertex="1">
          <mxGeometry x="315" y="408" width="180" height="20" as="geometry" />
        </mxCell>
        <mxCell id="e5RYseUx7hpyyAVNTuOH-34" style="edgeStyle=orthogonalEdgeStyle;rounded=1;orthogonalLoop=1;jettySize=auto;html=1;entryX=0.95;entryY=0.5;entryDx=0;entryDy=0;entryPerimeter=0;endArrow=none;startFill=0;strokeWidth=20;exitX=0.95;exitY=0.5;exitDx=0;exitDy=0;exitPerimeter=0;strokeColor=#FF958C;curved=0;arcSize=5;" parent="1" source="e5RYseUx7hpyyAVNTuOH-21" target="e5RYseUx7hpyyAVNTuOH-33" edge="1">
          <mxGeometry relative="1" as="geometry">
            <Array as="points">
              <mxPoint x="551" y="245" />
              <mxPoint x="551" y="418" />
            </Array>
          </mxGeometry>
        </mxCell>
        <mxCell id="e5RYseUx7hpyyAVNTuOH-35" style="edgeStyle=orthogonalEdgeStyle;rounded=1;orthogonalLoop=1;jettySize=auto;html=1;entryX=0.95;entryY=0.5;entryDx=0;entryDy=0;entryPerimeter=0;endArrow=none;startFill=0;strokeWidth=20;exitX=0.95;exitY=0.5;exitDx=0;exitDy=0;exitPerimeter=0;strokeColor=#1BB000;curved=0;arcSize=5;" parent="1" source="e5RYseUx7hpyyAVNTuOH-3" target="e5RYseUx7hpyyAVNTuOH-10" edge="1">
          <mxGeometry relative="1" as="geometry">
            <mxPoint x="531" y="157" as="sourcePoint" />
            <mxPoint x="581" y="330" as="targetPoint" />
            <Array as="points">
              <mxPoint x="581" y="156" />
              <mxPoint x="581" y="266" />
            </Array>
          </mxGeometry>
        </mxCell>
        <mxCell id="e5RYseUx7hpyyAVNTuOH-36" style="edgeStyle=orthogonalEdgeStyle;rounded=1;orthogonalLoop=1;jettySize=auto;html=1;endArrow=none;startFill=0;strokeWidth=20;strokeColor=#1BB000;curved=0;arcSize=5;entryX=0.95;entryY=0.5;entryDx=0;entryDy=0;entryPerimeter=0;exitX=0.95;exitY=0.5;exitDx=0;exitDy=0;exitPerimeter=0;" parent="1" source="e5RYseUx7hpyyAVNTuOH-10" target="e5RYseUx7hpyyAVNTuOH-23" edge="1">
          <mxGeometry relative="1" as="geometry">
            <mxPoint x="441" y="270" as="sourcePoint" />
            <mxPoint x="480" y="376" as="targetPoint" />
            <Array as="points">
              <mxPoint x="581" y="266" />
              <mxPoint x="581" y="376" />
            </Array>
          </mxGeometry>
        </mxCell>
        <mxCell id="e5RYseUx7hpyyAVNTuOH-38" value="ProcessingActivity" style="rounded=1;whiteSpace=wrap;html=1;align=left;fontSize=16;spacing=5;absoluteArcSize=1;verticalAlign=top;fillColor=none;" parent="1" vertex="1">
          <mxGeometry x="731" y="120" width="400" height="100" as="geometry" />
        </mxCell>
        <mxCell id="e5RYseUx7hpyyAVNTuOH-40" value="&quot;Parkeervergunningadministratie voeren&quot;" style="text;html=1;align=left;verticalAlign=middle;whiteSpace=wrap;rounded=0;fontStyle=0;fontSize=15;fontColor=#009EFF;" parent="1" vertex="1">
          <mxGeometry x="738" y="139" width="374" height="30" as="geometry" />
        </mxCell>
        <mxCell id="e5RYseUx7hpyyAVNTuOH-41" value="processing_activity_id" style="rounded=1;whiteSpace=wrap;html=1;strokeColor=none;fillColor=#009EFF;points=[[0,0,0,0,0],[0,0.25,0,0,0],[0,0.75,0,0,0],[0,1,0,0,0],[0.05,0.5,0,0,0],[0.25,0,0,0,0],[0.25,1,0,0,0],[0.5,0,0,0,0],[0.5,1,0,0,0],[0.75,0,0,0,0],[0.75,1,0,0,0],[0.95,0.5,0,0,0],[1,0,0,0,0],[1,0.25,0,0,0],[1,0.75,0,0,0],[1,1,0,0,0]];align=center;spacing=5;" parent="1" vertex="1">
          <mxGeometry x="736" y="167" width="180" height="20" as="geometry" />
        </mxCell>
        <mxCell id="e5RYseUx7hpyyAVNTuOH-43" style="edgeStyle=orthogonalEdgeStyle;rounded=1;orthogonalLoop=1;jettySize=auto;html=1;endArrow=none;startFill=0;strokeWidth=20;exitX=0.95;exitY=0.5;exitDx=0;exitDy=0;exitPerimeter=0;strokeColor=#009EFF;curved=0;arcSize=5;entryX=0.05;entryY=0.5;entryDx=0;entryDy=0;entryPerimeter=0;" parent="1" source="e5RYseUx7hpyyAVNTuOH-7" target="e5RYseUx7hpyyAVNTuOH-41" edge="1">
          <mxGeometry relative="1" as="geometry">
            <mxPoint x="446" y="187" as="sourcePoint" />
            <mxPoint x="446" y="297" as="targetPoint" />
          </mxGeometry>
        </mxCell>
        <mxCell id="e5RYseUx7hpyyAVNTuOH-44" value="ProcessingActivity" style="rounded=1;whiteSpace=wrap;html=1;align=left;fontSize=16;spacing=5;absoluteArcSize=1;verticalAlign=top;fillColor=none;" parent="1" vertex="1">
          <mxGeometry x="730" y="340" width="400" height="100" as="geometry" />
        </mxCell>
        <mxCell id="e5RYseUx7hpyyAVNTuOH-45" value="processing_activity_id" style="rounded=1;whiteSpace=wrap;html=1;strokeColor=none;fillColor=#009EFF;points=[[0,0,0,0,0],[0,0.25,0,0,0],[0,0.75,0,0,0],[0,1,0,0,0],[0.05,0.5,0,0,0],[0.25,0,0,0,0],[0.25,1,0,0,0],[0.5,0,0,0,0],[0.5,1,0,0,0],[0.75,0,0,0,0],[0.75,1,0,0,0],[0.95,0.5,0,0,0],[1,0,0,0,0],[1,0.25,0,0,0],[1,0.75,0,0,0],[1,1,0,0,0]];align=center;spacing=5;" parent="1" vertex="1">
          <mxGeometry x="736" y="387" width="180" height="20" as="geometry" />
        </mxCell>
        <mxCell id="e5RYseUx7hpyyAVNTuOH-46" value="parent_processing_activity_id" style="rounded=1;whiteSpace=wrap;html=1;strokeColor=none;fillColor=#14E6CD;points=[[0,0,0,0,0],[0,0.25,0,0,0],[0,0.75,0,0,0],[0,1,0,0,0],[0.05,0.5,0,0,0],[0.25,0,0,0,0],[0.25,1,0,0,0],[0.5,0,0,0,0],[0.5,1,0,0,0],[0.75,0,0,0,0],[0.75,1,0,0,0],[0.95,0.5,0,0,0],[1,0,0,0,0],[1,0.25,0,0,0],[1,0.75,0,0,0],[1,1,0,0,0]];align=center;spacing=5;gradientColor=none;gradientDirection=east;" parent="1" vertex="1">
          <mxGeometry x="736" y="408" width="180" height="20" as="geometry" />
        </mxCell>
        <mxCell id="e5RYseUx7hpyyAVNTuOH-47" style="edgeStyle=orthogonalEdgeStyle;rounded=1;orthogonalLoop=1;jettySize=auto;html=1;entryX=0.05;entryY=0.5;entryDx=0;entryDy=0;entryPerimeter=0;endArrow=none;startFill=0;strokeWidth=20;exitX=0.95;exitY=0.5;exitDx=0;exitDy=0;exitPerimeter=0;strokeColor=#14E6CD;curved=0;arcSize=5;" parent="1" source="IYQSIJGcByhNWZmGAfaf-2" target="e5RYseUx7hpyyAVNTuOH-46" edge="1">
          <mxGeometry relative="1" as="geometry">
            <mxPoint x="651" y="220" as="sourcePoint" />
            <mxPoint x="651" y="330" as="targetPoint" />
            <Array as="points">
              <mxPoint x="690" y="418" />
            </Array>
          </mxGeometry>
        </mxCell>
        <mxCell id="e5RYseUx7hpyyAVNTuOH-48" value="&quot;Tenaamstelling controleren&quot;" style="text;html=1;align=left;verticalAlign=middle;whiteSpace=wrap;rounded=0;fontStyle=0;fontSize=15;fontColor=#009EFF;" parent="1" vertex="1">
          <mxGeometry x="737" y="359" width="374" height="30" as="geometry" />
        </mxCell>
        <mxCell id="e5RYseUx7hpyyAVNTuOH-49" value="ProcessingActivity" style="rounded=1;whiteSpace=wrap;html=1;align=left;fontSize=16;spacing=5;absoluteArcSize=1;verticalAlign=top;fillColor=none;" parent="1" vertex="1">
          <mxGeometry x="730" y="493.5" width="400" height="125" as="geometry" />
        </mxCell>
        <mxCell id="e5RYseUx7hpyyAVNTuOH-50" value="" style="endArrow=none;dashed=1;html=1;dashPattern=1 3;strokeWidth=2;rounded=0;" parent="1" edge="1">
          <mxGeometry width="50" height="50" relative="1" as="geometry">
            <mxPoint x="21" y="470" as="sourcePoint" />
            <mxPoint x="1171" y="470" as="targetPoint" />
          </mxGeometry>
        </mxCell>
        <mxCell id="e5RYseUx7hpyyAVNTuOH-51" value="Gemeente" style="text;html=1;align=center;verticalAlign=middle;whiteSpace=wrap;rounded=1;rotation=-90;fontSize=18;fillColor=none;strokeColor=default;absoluteArcSize=1;" parent="1" vertex="1">
          <mxGeometry x="-144" y="265" width="317.5" height="30" as="geometry" />
        </mxCell>
        <mxCell id="e5RYseUx7hpyyAVNTuOH-52" value="RDW" style="text;html=1;align=center;verticalAlign=middle;whiteSpace=wrap;rounded=1;rotation=-90;fontSize=18;fillColor=none;strokeColor=default;absoluteArcSize=1;" parent="1" vertex="1">
          <mxGeometry x="-50.25" y="541" width="130" height="30" as="geometry" />
        </mxCell>
        <mxCell id="e5RYseUx7hpyyAVNTuOH-53" value="Logboek" style="text;html=1;align=center;verticalAlign=middle;whiteSpace=wrap;rounded=1;rotation=0;fontSize=18;fillColor=none;strokeColor=default;absoluteArcSize=1;" parent="1" vertex="1">
          <mxGeometry x="51" y="70" width="400" height="30" as="geometry" />
        </mxCell>
        <mxCell id="e5RYseUx7hpyyAVNTuOH-54" value="Register" style="text;html=1;align=center;verticalAlign=middle;whiteSpace=wrap;rounded=1;rotation=0;fontSize=18;fillColor=none;strokeColor=default;absoluteArcSize=1;" parent="1" vertex="1">
          <mxGeometry x="731" y="70" width="400" height="30" as="geometry" />
        </mxCell>
        <mxCell id="e5RYseUx7hpyyAVNTuOH-55" value="trace_id" style="rounded=1;whiteSpace=wrap;html=1;strokeColor=none;fillColor=#1BB000;points=[[0,0,0,0,0],[0,0.25,0,0,0],[0,0.75,0,0,0],[0,1,0,0,0],[0.05,0.5,0,0,0],[0.25,0,0,0,0],[0.25,1,0,0,0],[0.5,0,0,0,0],[0.5,1,0,0,0],[0.75,0,0,0,0],[0.75,1,0,0,0],[0.95,0.5,0,0,0],[1,0,0,0,0],[1,0.25,0,0,0],[1,0.75,0,0,0],[1,1,0,0,0]];align=left;spacing=5;" parent="1" vertex="1">
          <mxGeometry x="265" y="568" width="180" height="20" as="geometry" />
        </mxCell>
        <mxCell id="e5RYseUx7hpyyAVNTuOH-56" value="processing_activity_id" style="rounded=1;whiteSpace=wrap;html=1;strokeColor=none;fillColor=#009EFF;points=[[0,0,0,0,0],[0,0.25,0,0,0],[0,0.75,0,0,0],[0,1,0,0,0],[0.05,0.5,0,0,0],[0.25,0,0,0,0],[0.25,1,0,0,0],[0.5,0,0,0,0],[0.5,1,0,0,0],[0.75,0,0,0,0],[0.75,1,0,0,0],[0.95,0.5,0,0,0],[1,0,0,0,0],[1,0.25,0,0,0],[1,0.75,0,0,0],[1,1,0,0,0]];align=left;spacing=5;" parent="1" vertex="1">
          <mxGeometry x="265" y="589" width="180" height="20" as="geometry" />
        </mxCell>
        <mxCell id="e5RYseUx7hpyyAVNTuOH-57" style="edgeStyle=orthogonalEdgeStyle;rounded=1;orthogonalLoop=1;jettySize=auto;html=1;endArrow=none;startFill=0;strokeWidth=20;strokeColor=#1BB000;curved=0;arcSize=5;entryX=0.95;entryY=0.5;entryDx=0;entryDy=0;entryPerimeter=0;exitX=0.95;exitY=0.5;exitDx=0;exitDy=0;exitPerimeter=0;" parent="1" source="e5RYseUx7hpyyAVNTuOH-23" target="e5RYseUx7hpyyAVNTuOH-29" edge="1">
          <mxGeometry relative="1" as="geometry">
            <mxPoint x="431" y="428" as="sourcePoint" />
            <mxPoint x="481" y="538" as="targetPoint" />
            <Array as="points">
              <mxPoint x="581" y="376" />
              <mxPoint x="581" y="536" />
            </Array>
          </mxGeometry>
        </mxCell>
        <mxCell id="e5RYseUx7hpyyAVNTuOH-58" style="edgeStyle=orthogonalEdgeStyle;rounded=1;orthogonalLoop=1;jettySize=auto;html=1;entryX=0.95;entryY=0.5;entryDx=0;entryDy=0;entryPerimeter=0;endArrow=none;startFill=0;strokeWidth=20;exitX=0.95;exitY=0.5;exitDx=0;exitDy=0;exitPerimeter=0;strokeColor=#009EFF;curved=0;arcSize=5;" parent="1" source="e5RYseUx7hpyyAVNTuOH-7" target="e5RYseUx7hpyyAVNTuOH-13" edge="1">
          <mxGeometry relative="1" as="geometry">
            <mxPoint x="436" y="177" as="sourcePoint" />
            <mxPoint x="436" y="287" as="targetPoint" />
            <Array as="points">
              <mxPoint x="611" y="177" />
              <mxPoint x="611" y="287" />
            </Array>
          </mxGeometry>
        </mxCell>
        <mxCell id="e5RYseUx7hpyyAVNTuOH-59" style="edgeStyle=orthogonalEdgeStyle;rounded=1;orthogonalLoop=1;jettySize=auto;html=1;entryX=0.95;entryY=0.5;entryDx=0;entryDy=0;entryPerimeter=0;endArrow=none;startFill=0;strokeWidth=20;exitX=0.95;exitY=0.5;exitDx=0;exitDy=0;exitPerimeter=0;strokeColor=#FF40A0;curved=0;arcSize=5;" parent="1" source="e5RYseUx7hpyyAVNTuOH-26" target="e5RYseUx7hpyyAVNTuOH-31" edge="1">
          <mxGeometry relative="1" as="geometry">
            <mxPoint x="495" y="340" as="sourcePoint" />
            <mxPoint x="545" y="513" as="targetPoint" />
            <Array as="points">
              <mxPoint x="521" y="355" />
              <mxPoint x="521" y="557" />
            </Array>
          </mxGeometry>
        </mxCell>
        <mxCell id="e5RYseUx7hpyyAVNTuOH-60" value="processing_activity_id" style="rounded=1;whiteSpace=wrap;html=1;strokeColor=none;fillColor=#009EFF;points=[[0,0,0,0,0],[0,0.25,0,0,0],[0,0.75,0,0,0],[0,1,0,0,0],[0.05,0.5,0,0,0],[0.25,0,0,0,0],[0.25,1,0,0,0],[0.5,0,0,0,0],[0.5,1,0,0,0],[0.75,0,0,0,0],[0.75,1,0,0,0],[0.95,0.5,0,0,0],[1,0,0,0,0],[1,0.25,0,0,0],[1,0.75,0,0,0],[1,1,0,0,0]];align=center;spacing=5;" parent="1" vertex="1">
          <mxGeometry x="738" y="589" width="180" height="20" as="geometry" />
        </mxCell>
        <mxCell id="e5RYseUx7hpyyAVNTuOH-61" value="&quot;Kentekenhoudergegevens verstrekken&quot;" style="text;html=1;align=left;verticalAlign=middle;whiteSpace=wrap;rounded=0;fontStyle=0;fontSize=15;fontColor=#009EFF;" parent="1" vertex="1">
          <mxGeometry x="737" y="517" width="374" height="30" as="geometry" />
        </mxCell>
        <mxCell id="e5RYseUx7hpyyAVNTuOH-62" style="edgeStyle=orthogonalEdgeStyle;rounded=1;orthogonalLoop=1;jettySize=auto;html=1;entryX=0.95;entryY=0.5;entryDx=0;entryDy=0;entryPerimeter=0;endArrow=none;startFill=0;strokeWidth=20;exitX=0.05;exitY=0.5;exitDx=0;exitDy=0;exitPerimeter=0;strokeColor=#009EFF;curved=0;arcSize=5;" parent="1" source="e5RYseUx7hpyyAVNTuOH-60" target="e5RYseUx7hpyyAVNTuOH-56" edge="1">
          <mxGeometry relative="1" as="geometry">
            <mxPoint x="694.98" y="510" as="sourcePoint" />
            <mxPoint x="694.98" y="751" as="targetPoint" />
          </mxGeometry>
        </mxCell>
        <mxCell id="IYQSIJGcByhNWZmGAfaf-1" style="edgeStyle=orthogonalEdgeStyle;rounded=1;orthogonalLoop=1;jettySize=auto;html=1;entryX=0.95;entryY=0.5;entryDx=0;entryDy=0;entryPerimeter=0;endArrow=none;startFill=0;strokeWidth=20;exitX=0.05;exitY=0.5;exitDx=0;exitDy=0;exitPerimeter=0;strokeColor=#009EFF;curved=0;arcSize=5;" edge="1" parent="1" source="e5RYseUx7hpyyAVNTuOH-45" target="e5RYseUx7hpyyAVNTuOH-25">
          <mxGeometry relative="1" as="geometry">
            <mxPoint x="757" y="609" as="sourcePoint" />
            <mxPoint x="446" y="609" as="targetPoint" />
          </mxGeometry>
        </mxCell>
        <mxCell id="IYQSIJGcByhNWZmGAfaf-2" value="" style="rounded=1;whiteSpace=wrap;html=1;strokeColor=none;fillColor=#009EFF;points=[[0,0,0,0,0],[0,0.25,0,0,0],[0,0.75,0,0,0],[0,1,0,0,0],[0.05,0.5,0,0,0],[0.25,0,0,0,0],[0.25,1,0,0,0],[0.5,0,0,0,0],[0.5,1,0,0,0],[0.75,0,0,0,0],[0.75,1,0,0,0],[0.95,0.5,0,0,0],[1,0,0,0,0],[1,0.25,0,0,0],[1,0.75,0,0,0],[1,1,0,0,0]];align=center;spacing=5;gradientColor=#14E6CD;gradientDirection=east;rotation=90;" vertex="1" parent="1">
          <mxGeometry x="640" y="217" width="100" height="20" as="geometry" />
        </mxCell>
      </root>
    </mxGraphModel>
  </diagram>
  <diagram name="Totaal-abstract" id="4Jv0izkJOzm4L91DmWeI">
    <mxGraphModel dx="1426" dy="859" grid="1" gridSize="10" guides="1" tooltips="1" connect="1" arrows="1" fold="1" page="1" pageScale="1" pageWidth="1169" pageHeight="827" math="0" shadow="0">
      <root>
        <mxCell id="qPShPRfAbATKHdw5kQ-B-0" />
        <mxCell id="qPShPRfAbATKHdw5kQ-B-1" parent="qPShPRfAbATKHdw5kQ-B-0" />
        <mxCell id="qPShPRfAbATKHdw5kQ-B-6" value="Operation 2" style="rounded=1;whiteSpace=wrap;html=1;align=left;fontSize=16;spacing=5;absoluteArcSize=1;" parent="qPShPRfAbATKHdw5kQ-B-1" vertex="1">
          <mxGeometry x="52" y="230" width="400" height="100" as="geometry" />
        </mxCell>
        <mxCell id="qPShPRfAbATKHdw5kQ-B-26" value="ProcessingActivity" style="rounded=1;whiteSpace=wrap;html=1;align=left;fontSize=16;spacing=5;absoluteArcSize=1;verticalAlign=top;" parent="qPShPRfAbATKHdw5kQ-B-1" vertex="1">
          <mxGeometry x="732" y="120" width="400" height="100" as="geometry" />
        </mxCell>
        <mxCell id="qPShPRfAbATKHdw5kQ-B-2" value="Operation 1" style="rounded=1;whiteSpace=wrap;html=1;align=left;fontSize=16;spacing=5;absoluteArcSize=1;" parent="qPShPRfAbATKHdw5kQ-B-1" vertex="1">
          <mxGeometry x="52" y="120" width="400" height="100" as="geometry" />
        </mxCell>
        <mxCell id="qPShPRfAbATKHdw5kQ-B-12" value="Operation 2a" style="rounded=1;whiteSpace=wrap;html=1;align=left;fontSize=16;spacing=5;absoluteArcSize=1;" parent="qPShPRfAbATKHdw5kQ-B-1" vertex="1">
          <mxGeometry x="102" y="340" width="400" height="100" as="geometry" />
        </mxCell>
        <mxCell id="qPShPRfAbATKHdw5kQ-B-30" value="ProcessingActivity" style="rounded=1;whiteSpace=wrap;html=1;align=left;fontSize=16;spacing=5;absoluteArcSize=1;verticalAlign=top;" parent="qPShPRfAbATKHdw5kQ-B-1" vertex="1">
          <mxGeometry x="731" y="340" width="400" height="100" as="geometry" />
        </mxCell>
        <mxCell id="qPShPRfAbATKHdw5kQ-B-44" style="edgeStyle=orthogonalEdgeStyle;rounded=1;orthogonalLoop=1;jettySize=auto;html=1;entryX=0.95;entryY=0.5;entryDx=0;entryDy=0;entryPerimeter=0;endArrow=none;startFill=0;strokeWidth=20;exitX=0.95;exitY=0.5;exitDx=0;exitDy=0;exitPerimeter=0;strokeColor=#009EFF;curved=0;arcSize=5;" parent="qPShPRfAbATKHdw5kQ-B-1" source="qPShPRfAbATKHdw5kQ-B-5" target="qPShPRfAbATKHdw5kQ-B-9" edge="1">
          <mxGeometry relative="1" as="geometry">
            <mxPoint x="437" y="177" as="sourcePoint" />
            <mxPoint x="437" y="287" as="targetPoint" />
            <Array as="points">
              <mxPoint x="612" y="177" />
              <mxPoint x="612" y="287" />
            </Array>
          </mxGeometry>
        </mxCell>
        <mxCell id="qPShPRfAbATKHdw5kQ-B-29" style="edgeStyle=orthogonalEdgeStyle;rounded=1;orthogonalLoop=1;jettySize=auto;html=1;endArrow=none;startFill=0;strokeWidth=20;exitX=0.95;exitY=0.5;exitDx=0;exitDy=0;exitPerimeter=0;strokeColor=#009EFF;curved=0;arcSize=5;entryX=0.05;entryY=0.5;entryDx=0;entryDy=0;entryPerimeter=0;" parent="qPShPRfAbATKHdw5kQ-B-1" source="qPShPRfAbATKHdw5kQ-B-5" target="qPShPRfAbATKHdw5kQ-B-28" edge="1">
          <mxGeometry relative="1" as="geometry">
            <mxPoint x="447" y="187" as="sourcePoint" />
            <mxPoint x="447" y="297" as="targetPoint" />
          </mxGeometry>
        </mxCell>
        <mxCell id="WRRhyuPTH6Ovi738g1kD-2" style="edgeStyle=orthogonalEdgeStyle;rounded=1;orthogonalLoop=1;jettySize=auto;html=1;endArrow=none;startFill=0;strokeWidth=20;strokeColor=#009EFF;curved=0;arcSize=5;exitX=0.05;exitY=0.5;exitDx=0;exitDy=0;exitPerimeter=0;entryX=0.95;entryY=0.5;entryDx=0;entryDy=0;entryPerimeter=0;" parent="qPShPRfAbATKHdw5kQ-B-1" source="WRRhyuPTH6Ovi738g1kD-1" target="WRRhyuPTH6Ovi738g1kD-0" edge="1">
          <mxGeometry relative="1" as="geometry">
            <mxPoint x="742" y="397" as="sourcePoint" />
            <mxPoint x="512" y="400" as="targetPoint" />
          </mxGeometry>
        </mxCell>
        <mxCell id="qPShPRfAbATKHdw5kQ-B-3" value="trace_id" style="rounded=1;whiteSpace=wrap;html=1;strokeColor=none;fillColor=#1BB000;points=[[0,0,0,0,0],[0,0.25,0,0,0],[0,0.75,0,0,0],[0,1,0,0,0],[0.05,0.5,0,0,0],[0.25,0,0,0,0],[0.25,1,0,0,0],[0.5,0,0,0,0],[0.5,1,0,0,0],[0.75,0,0,0,0],[0.75,1,0,0,0],[0.95,0.5,0,0,0],[1,0,0,0,0],[1,0.25,0,0,0],[1,0.75,0,0,0],[1,1,0,0,0]];align=left;spacing=5;" parent="qPShPRfAbATKHdw5kQ-B-1" vertex="1">
          <mxGeometry x="266" y="146" width="180" height="20" as="geometry" />
        </mxCell>
        <mxCell id="qPShPRfAbATKHdw5kQ-B-5" value="processing_activity_id" style="rounded=1;whiteSpace=wrap;html=1;strokeColor=none;fillColor=#009EFF;points=[[0,0,0,0,0],[0,0.25,0,0,0],[0,0.75,0,0,0],[0,1,0,0,0],[0.05,0.5,0,0,0],[0.25,0,0,0,0],[0.25,1,0,0,0],[0.5,0,0,0,0],[0.5,1,0,0,0],[0.75,0,0,0,0],[0.75,1,0,0,0],[0.95,0.5,0,0,0],[1,0,0,0,0],[1,0.25,0,0,0],[1,0.75,0,0,0],[1,1,0,0,0]];align=left;spacing=5;" parent="qPShPRfAbATKHdw5kQ-B-1" vertex="1">
          <mxGeometry x="266" y="167" width="180" height="20" as="geometry" />
        </mxCell>
        <mxCell id="qPShPRfAbATKHdw5kQ-B-7" value="trace_id" style="rounded=1;whiteSpace=wrap;html=1;strokeColor=none;fillColor=#1BB000;points=[[0,0,0,0,0],[0,0.25,0,0,0],[0,0.75,0,0,0],[0,1,0,0,0],[0.05,0.5,0,0,0],[0.25,0,0,0,0],[0.25,1,0,0,0],[0.5,0,0,0,0],[0.5,1,0,0,0],[0.75,0,0,0,0],[0.75,1,0,0,0],[0.95,0.5,0,0,0],[1,0,0,0,0],[1,0.25,0,0,0],[1,0.75,0,0,0],[1,1,0,0,0]];align=left;spacing=5;" parent="qPShPRfAbATKHdw5kQ-B-1" vertex="1">
          <mxGeometry x="266" y="256" width="180" height="20" as="geometry" />
        </mxCell>
        <mxCell id="qPShPRfAbATKHdw5kQ-B-9" value="processing_activity_id" style="rounded=1;whiteSpace=wrap;html=1;strokeColor=none;fillColor=#009EFF;points=[[0,0,0,0,0],[0,0.25,0,0,0],[0,0.75,0,0,0],[0,1,0,0,0],[0.05,0.5,0,0,0],[0.25,0,0,0,0],[0.25,1,0,0,0],[0.5,0,0,0,0],[0.5,1,0,0,0],[0.75,0,0,0,0],[0.75,1,0,0,0],[0.95,0.5,0,0,0],[1,0,0,0,0],[1,0.25,0,0,0],[1,0.75,0,0,0],[1,1,0,0,0]];align=left;spacing=5;" parent="qPShPRfAbATKHdw5kQ-B-1" vertex="1">
          <mxGeometry x="266" y="277" width="180" height="20" as="geometry" />
        </mxCell>
        <mxCell id="qPShPRfAbATKHdw5kQ-B-10" value="span_id" style="rounded=1;whiteSpace=wrap;html=1;strokeColor=none;fillColor=light-dark(#ff40a0, #22a20b);points=[[0,0,0,0,0],[0,0.25,0,0,0],[0,0.75,0,0,0],[0,1,0,0,0],[0.05,0.5,0,0,0],[0.25,0,0,0,0],[0.25,1,0,0,0],[0.5,0,0,0,0],[0.5,1,0,0,0],[0.75,0,0,0,0],[0.75,1,0,0,0],[0.95,0.5,0,0,0],[1,0,0,0,0],[1,0.25,0,0,0],[1,0.75,0,0,0],[1,1,0,0,0]];align=left;spacing=5;" parent="qPShPRfAbATKHdw5kQ-B-1" vertex="1">
          <mxGeometry x="266" y="125" width="180" height="20" as="geometry" />
        </mxCell>
        <mxCell id="qPShPRfAbATKHdw5kQ-B-11" value="span_id" style="rounded=1;whiteSpace=wrap;html=1;strokeColor=none;fillColor=light-dark(#ff40a0, #22a20b);points=[[0,0,0,0,0],[0,0.25,0,0,0],[0,0.75,0,0,0],[0,1,0,0,0],[0.05,0.5,0,0,0],[0.25,0,0,0,0],[0.25,1,0,0,0],[0.5,0,0,0,0],[0.5,1,0,0,0],[0.75,0,0,0,0],[0.75,1,0,0,0],[0.95,0.5,0,0,0],[1,0,0,0,0],[1,0.25,0,0,0],[1,0.75,0,0,0],[1,1,0,0,0]];align=left;spacing=5;gradientColor=#FF958C;gradientDirection=east;" parent="qPShPRfAbATKHdw5kQ-B-1" vertex="1">
          <mxGeometry x="266" y="235" width="180" height="20" as="geometry" />
        </mxCell>
        <mxCell id="qPShPRfAbATKHdw5kQ-B-13" value="trace_id" style="rounded=1;whiteSpace=wrap;html=1;strokeColor=none;fillColor=#1BB000;points=[[0,0,0,0,0],[0,0.25,0,0,0],[0,0.75,0,0,0],[0,1,0,0,0],[0.05,0.5,0,0,0],[0.25,0,0,0,0],[0.25,1,0,0,0],[0.5,0,0,0,0],[0.5,1,0,0,0],[0.75,0,0,0,0],[0.75,1,0,0,0],[0.95,0.5,0,0,0],[1,0,0,0,0],[1,0.25,0,0,0],[1,0.75,0,0,0],[1,1,0,0,0]];align=left;spacing=5;" parent="qPShPRfAbATKHdw5kQ-B-1" vertex="1">
          <mxGeometry x="316" y="366" width="180" height="20" as="geometry" />
        </mxCell>
        <mxCell id="qPShPRfAbATKHdw5kQ-B-16" value="span_id" style="rounded=1;whiteSpace=wrap;html=1;strokeColor=none;fillColor=light-dark(#ff40a0, #22a20b);points=[[0,0,0,0,0],[0,0.25,0,0,0],[0,0.75,0,0,0],[0,1,0,0,0],[0.05,0.5,0,0,0],[0.25,0,0,0,0],[0.25,1,0,0,0],[0.5,0,0,0,0],[0.5,1,0,0,0],[0.75,0,0,0,0],[0.75,1,0,0,0],[0.95,0.5,0,0,0],[1,0,0,0,0],[1,0.25,0,0,0],[1,0.75,0,0,0],[1,1,0,0,0]];align=left;spacing=5;" parent="qPShPRfAbATKHdw5kQ-B-1" vertex="1">
          <mxGeometry x="316" y="345" width="180" height="20" as="geometry" />
        </mxCell>
        <mxCell id="qPShPRfAbATKHdw5kQ-B-17" value="Operation 3" style="rounded=1;whiteSpace=wrap;html=1;align=left;fontSize=16;spacing=5;absoluteArcSize=1;" parent="qPShPRfAbATKHdw5kQ-B-1" vertex="1">
          <mxGeometry x="52" y="491" width="400" height="130" as="geometry" />
        </mxCell>
        <mxCell id="qPShPRfAbATKHdw5kQ-B-20" value="foreign_span_id" style="rounded=1;whiteSpace=wrap;html=1;strokeColor=none;fillColor=#FF958C;points=[[0,0,0,0,0],[0,0.25,0,0,0],[0,0.75,0,0,0],[0,1,0,0,0],[0.05,0.5,0,0,0],[0.25,0,0,0,0],[0.25,1,0,0,0],[0.5,0,0,0,0],[0.5,1,0,0,0],[0.75,0,0,0,0],[0.75,1,0,0,0],[0.95,0.5,0,0,0],[1,0,0,0,0],[1,0.25,0,0,0],[1,0.75,0,0,0],[1,1,0,0,0]];align=left;spacing=5;gradientColor=#FF40A0;gradientDirection=east;" parent="qPShPRfAbATKHdw5kQ-B-1" vertex="1">
          <mxGeometry x="266" y="547" width="180" height="20" as="geometry" />
        </mxCell>
        <mxCell id="qPShPRfAbATKHdw5kQ-B-21" value="span_id" style="rounded=1;whiteSpace=wrap;html=1;strokeColor=none;fillColor=light-dark(#ff40a0, #22a20b);points=[[0,0,0,0,0],[0,0.25,0,0,0],[0,0.75,0,0,0],[0,1,0,0,0],[0.05,0.5,0,0,0],[0.25,0,0,0,0],[0.25,1,0,0,0],[0.5,0,0,0,0],[0.5,1,0,0,0],[0.75,0,0,0,0],[0.75,1,0,0,0],[0.95,0.5,0,0,0],[1,0,0,0,0],[1,0.25,0,0,0],[1,0.75,0,0,0],[1,1,0,0,0]];align=left;spacing=5;" parent="qPShPRfAbATKHdw5kQ-B-1" vertex="1">
          <mxGeometry x="266" y="505" width="180" height="20" as="geometry" />
        </mxCell>
        <mxCell id="qPShPRfAbATKHdw5kQ-B-22" value="parent_span_id" style="rounded=1;whiteSpace=wrap;html=1;strokeColor=none;fillColor=#FF958C;points=[[0,0,0,0,0],[0,0.25,0,0,0],[0,0.75,0,0,0],[0,1,0,0,0],[0.05,0.5,0,0,0],[0.25,0,0,0,0],[0.25,1,0,0,0],[0.5,0,0,0,0],[0.5,1,0,0,0],[0.75,0,0,0,0],[0.75,1,0,0,0],[0.95,0.5,0,0,0],[1,0,0,0,0],[1,0.25,0,0,0],[1,0.75,0,0,0],[1,1,0,0,0]];align=left;spacing=5;gradientColor=none;gradientDirection=east;" parent="qPShPRfAbATKHdw5kQ-B-1" vertex="1">
          <mxGeometry x="316" y="408" width="180" height="20" as="geometry" />
        </mxCell>
        <mxCell id="qPShPRfAbATKHdw5kQ-B-24" style="edgeStyle=orthogonalEdgeStyle;rounded=1;orthogonalLoop=1;jettySize=auto;html=1;entryX=0.95;entryY=0.5;entryDx=0;entryDy=0;entryPerimeter=0;endArrow=none;startFill=0;strokeWidth=20;exitX=0.95;exitY=0.5;exitDx=0;exitDy=0;exitPerimeter=0;strokeColor=#1BB000;curved=0;arcSize=5;" parent="qPShPRfAbATKHdw5kQ-B-1" source="qPShPRfAbATKHdw5kQ-B-3" target="qPShPRfAbATKHdw5kQ-B-7" edge="1">
          <mxGeometry relative="1" as="geometry">
            <mxPoint x="532" y="157" as="sourcePoint" />
            <mxPoint x="582" y="330" as="targetPoint" />
            <Array as="points">
              <mxPoint x="582" y="156" />
              <mxPoint x="582" y="266" />
            </Array>
          </mxGeometry>
        </mxCell>
        <mxCell id="qPShPRfAbATKHdw5kQ-B-25" style="edgeStyle=orthogonalEdgeStyle;rounded=1;orthogonalLoop=1;jettySize=auto;html=1;endArrow=none;startFill=0;strokeWidth=20;strokeColor=#1BB000;curved=0;arcSize=5;entryX=0.95;entryY=0.5;entryDx=0;entryDy=0;entryPerimeter=0;exitX=0.95;exitY=0.5;exitDx=0;exitDy=0;exitPerimeter=0;" parent="qPShPRfAbATKHdw5kQ-B-1" source="qPShPRfAbATKHdw5kQ-B-7" target="qPShPRfAbATKHdw5kQ-B-13" edge="1">
          <mxGeometry relative="1" as="geometry">
            <mxPoint x="442" y="270" as="sourcePoint" />
            <mxPoint x="481" y="376" as="targetPoint" />
            <Array as="points">
              <mxPoint x="582" y="266" />
              <mxPoint x="582" y="376" />
            </Array>
          </mxGeometry>
        </mxCell>
        <mxCell id="qPShPRfAbATKHdw5kQ-B-28" value="processing_activity_id" style="rounded=1;whiteSpace=wrap;html=1;strokeColor=none;fillColor=#009EFF;points=[[0,0,0,0,0],[0,0.25,0,0,0],[0,0.75,0,0,0],[0,1,0,0,0],[0.05,0.5,0,0,0],[0.25,0,0,0,0],[0.25,1,0,0,0],[0.5,0,0,0,0],[0.5,1,0,0,0],[0.75,0,0,0,0],[0.75,1,0,0,0],[0.95,0.5,0,0,0],[1,0,0,0,0],[1,0.25,0,0,0],[1,0.75,0,0,0],[1,1,0,0,0]];align=center;spacing=5;" parent="qPShPRfAbATKHdw5kQ-B-1" vertex="1">
          <mxGeometry x="737" y="167" width="180" height="20" as="geometry" />
        </mxCell>
        <mxCell id="qPShPRfAbATKHdw5kQ-B-35" value="ProcessingActivity" style="rounded=1;whiteSpace=wrap;html=1;align=left;fontSize=16;spacing=5;absoluteArcSize=1;verticalAlign=top;" parent="qPShPRfAbATKHdw5kQ-B-1" vertex="1">
          <mxGeometry x="731" y="505" width="400" height="125" as="geometry" />
        </mxCell>
        <mxCell id="qPShPRfAbATKHdw5kQ-B-36" value="" style="endArrow=none;dashed=1;html=1;dashPattern=1 3;strokeWidth=2;rounded=0;" parent="qPShPRfAbATKHdw5kQ-B-1" edge="1">
          <mxGeometry width="50" height="50" relative="1" as="geometry">
            <mxPoint x="22" y="470" as="sourcePoint" />
            <mxPoint x="1172" y="470" as="targetPoint" />
          </mxGeometry>
        </mxCell>
        <mxCell id="qPShPRfAbATKHdw5kQ-B-41" value="trace_id" style="rounded=1;whiteSpace=wrap;html=1;strokeColor=none;fillColor=#1BB000;points=[[0,0,0,0,0],[0,0.25,0,0,0],[0,0.75,0,0,0],[0,1,0,0,0],[0.05,0.5,0,0,0],[0.25,0,0,0,0],[0.25,1,0,0,0],[0.5,0,0,0,0],[0.5,1,0,0,0],[0.75,0,0,0,0],[0.75,1,0,0,0],[0.95,0.5,0,0,0],[1,0,0,0,0],[1,0.25,0,0,0],[1,0.75,0,0,0],[1,1,0,0,0]];align=left;spacing=5;" parent="qPShPRfAbATKHdw5kQ-B-1" vertex="1">
          <mxGeometry x="266" y="568" width="180" height="20" as="geometry" />
        </mxCell>
        <mxCell id="qPShPRfAbATKHdw5kQ-B-42" value="processing_activity_id" style="rounded=1;whiteSpace=wrap;html=1;strokeColor=none;fillColor=#009EFF;points=[[0,0,0,0,0],[0,0.25,0,0,0],[0,0.75,0,0,0],[0,1,0,0,0],[0.05,0.5,0,0,0],[0.25,0,0,0,0],[0.25,1,0,0,0],[0.5,0,0,0,0],[0.5,1,0,0,0],[0.75,0,0,0,0],[0.75,1,0,0,0],[0.95,0.5,0,0,0],[1,0,0,0,0],[1,0.25,0,0,0],[1,0.75,0,0,0],[1,1,0,0,0]];align=left;spacing=5;" parent="qPShPRfAbATKHdw5kQ-B-1" vertex="1">
          <mxGeometry x="266" y="589" width="180" height="20" as="geometry" />
        </mxCell>
        <mxCell id="qPShPRfAbATKHdw5kQ-B-43" style="edgeStyle=orthogonalEdgeStyle;rounded=1;orthogonalLoop=1;jettySize=auto;html=1;endArrow=none;startFill=0;strokeWidth=20;strokeColor=#1BB000;curved=0;arcSize=5;entryX=0.95;entryY=0.5;entryDx=0;entryDy=0;entryPerimeter=0;exitX=0.95;exitY=0.5;exitDx=0;exitDy=0;exitPerimeter=0;" parent="qPShPRfAbATKHdw5kQ-B-1" source="qPShPRfAbATKHdw5kQ-B-13" target="qPShPRfAbATKHdw5kQ-B-18" edge="1">
          <mxGeometry relative="1" as="geometry">
            <mxPoint x="432" y="428" as="sourcePoint" />
            <mxPoint x="482" y="538" as="targetPoint" />
            <Array as="points">
              <mxPoint x="582" y="376" />
              <mxPoint x="582" y="536" />
            </Array>
          </mxGeometry>
        </mxCell>
        <mxCell id="qPShPRfAbATKHdw5kQ-B-45" style="edgeStyle=orthogonalEdgeStyle;rounded=1;orthogonalLoop=1;jettySize=auto;html=1;entryX=0.95;entryY=0.5;entryDx=0;entryDy=0;entryPerimeter=0;endArrow=none;startFill=0;strokeWidth=20;exitX=0.95;exitY=0.5;exitDx=0;exitDy=0;exitPerimeter=0;strokeColor=#FF40A0;curved=0;arcSize=5;" parent="qPShPRfAbATKHdw5kQ-B-1" source="qPShPRfAbATKHdw5kQ-B-16" target="qPShPRfAbATKHdw5kQ-B-20" edge="1">
          <mxGeometry relative="1" as="geometry">
            <mxPoint x="496" y="340" as="sourcePoint" />
            <mxPoint x="546" y="513" as="targetPoint" />
            <Array as="points">
              <mxPoint x="522" y="355" />
              <mxPoint x="522" y="557" />
            </Array>
          </mxGeometry>
        </mxCell>
        <mxCell id="qPShPRfAbATKHdw5kQ-B-46" value="processing_activity_id" style="rounded=1;whiteSpace=wrap;html=1;strokeColor=none;fillColor=#009EFF;points=[[0,0,0,0,0],[0,0.25,0,0,0],[0,0.75,0,0,0],[0,1,0,0,0],[0.05,0.5,0,0,0],[0.25,0,0,0,0],[0.25,1,0,0,0],[0.5,0,0,0,0],[0.5,1,0,0,0],[0.75,0,0,0,0],[0.75,1,0,0,0],[0.95,0.5,0,0,0],[1,0,0,0,0],[1,0.25,0,0,0],[1,0.75,0,0,0],[1,1,0,0,0]];align=center;spacing=5;" parent="qPShPRfAbATKHdw5kQ-B-1" vertex="1">
          <mxGeometry x="739" y="589" width="180" height="20" as="geometry" />
        </mxCell>
        <mxCell id="qPShPRfAbATKHdw5kQ-B-48" style="edgeStyle=orthogonalEdgeStyle;rounded=1;orthogonalLoop=1;jettySize=auto;html=1;entryX=0.95;entryY=0.5;entryDx=0;entryDy=0;entryPerimeter=0;endArrow=none;startFill=0;strokeWidth=20;exitX=0.05;exitY=0.5;exitDx=0;exitDy=0;exitPerimeter=0;strokeColor=#009EFF;curved=0;arcSize=5;" parent="qPShPRfAbATKHdw5kQ-B-1" source="qPShPRfAbATKHdw5kQ-B-46" target="qPShPRfAbATKHdw5kQ-B-42" edge="1">
          <mxGeometry relative="1" as="geometry">
            <mxPoint x="695.98" y="510" as="sourcePoint" />
            <mxPoint x="695.98" y="751" as="targetPoint" />
          </mxGeometry>
        </mxCell>
        <mxCell id="qPShPRfAbATKHdw5kQ-B-18" value="foreign_trace_id" style="rounded=1;whiteSpace=wrap;html=1;strokeColor=none;fillColor=#1BB000;points=[[0,0,0,0,0],[0,0.25,0,0,0],[0,0.75,0,0,0],[0,1,0,0,0],[0.05,0.5,0,0,0],[0.25,0,0,0,0],[0.25,1,0,0,0],[0.5,0,0,0,0],[0.5,1,0,0,0],[0.75,0,0,0,0],[0.75,1,0,0,0],[0.95,0.5,0,0,0],[1,0,0,0,0],[1,0.25,0,0,0],[1,0.75,0,0,0],[1,1,0,0,0]];align=left;spacing=5;gradientColor=#F1E8E2;gradientDirection=west;" parent="qPShPRfAbATKHdw5kQ-B-1" vertex="1">
          <mxGeometry x="266" y="526" width="180" height="20" as="geometry" />
        </mxCell>
        <mxCell id="WRRhyuPTH6Ovi738g1kD-0" value="processing_activity_id" style="rounded=1;whiteSpace=wrap;html=1;strokeColor=none;fillColor=#009EFF;points=[[0,0,0,0,0],[0,0.25,0,0,0],[0,0.75,0,0,0],[0,1,0,0,0],[0.05,0.5,0,0,0],[0.25,0,0,0,0],[0.25,1,0,0,0],[0.5,0,0,0,0],[0.5,1,0,0,0],[0.75,0,0,0,0],[0.75,1,0,0,0],[0.95,0.5,0,0,0],[1,0,0,0,0],[1,0.25,0,0,0],[1,0.75,0,0,0],[1,1,0,0,0]];align=left;spacing=5;" parent="qPShPRfAbATKHdw5kQ-B-1" vertex="1">
          <mxGeometry x="316" y="387" width="180" height="20" as="geometry" />
        </mxCell>
        <mxCell id="WRRhyuPTH6Ovi738g1kD-1" value="processing_activity_id" style="rounded=1;whiteSpace=wrap;html=1;strokeColor=none;fillColor=#009EFF;points=[[0,0,0,0,0],[0,0.25,0,0,0],[0,0.75,0,0,0],[0,1,0,0,0],[0.05,0.5,0,0,0],[0.25,0,0,0,0],[0.25,1,0,0,0],[0.5,0,0,0,0],[0.5,1,0,0,0],[0.75,0,0,0,0],[0.75,1,0,0,0],[0.95,0.5,0,0,0],[1,0,0,0,0],[1,0.25,0,0,0],[1,0.75,0,0,0],[1,1,0,0,0]];align=center;spacing=5;" parent="qPShPRfAbATKHdw5kQ-B-1" vertex="1">
          <mxGeometry x="737" y="387" width="180" height="20" as="geometry" />
        </mxCell>
        <mxCell id="qPShPRfAbATKHdw5kQ-B-23" style="edgeStyle=orthogonalEdgeStyle;rounded=1;orthogonalLoop=1;jettySize=auto;html=1;entryX=0.95;entryY=0.5;entryDx=0;entryDy=0;entryPerimeter=0;endArrow=none;startFill=0;strokeWidth=20;exitX=0.95;exitY=0.5;exitDx=0;exitDy=0;exitPerimeter=0;strokeColor=#FF958C;curved=0;arcSize=5;" parent="qPShPRfAbATKHdw5kQ-B-1" source="qPShPRfAbATKHdw5kQ-B-11" target="qPShPRfAbATKHdw5kQ-B-22" edge="1">
          <mxGeometry relative="1" as="geometry">
            <Array as="points">
              <mxPoint x="552" y="245" />
              <mxPoint x="552" y="418" />
            </Array>
          </mxGeometry>
        </mxCell>
        <mxCell id="_LIc8x-VrGd2luE9OeAh-0" value="parent_processing_activity_id" style="rounded=1;whiteSpace=wrap;html=1;strokeColor=none;fillColor=#14E6CD;points=[[0,0,0,0,0],[0,0.25,0,0,0],[0,0.75,0,0,0],[0,1,0,0,0],[0.05,0.5,0,0,0],[0.25,0,0,0,0],[0.25,1,0,0,0],[0.5,0,0,0,0],[0.5,1,0,0,0],[0.75,0,0,0,0],[0.75,1,0,0,0],[0.95,0.5,0,0,0],[1,0,0,0,0],[1,0.25,0,0,0],[1,0.75,0,0,0],[1,1,0,0,0]];align=center;spacing=5;gradientColor=none;gradientDirection=east;" vertex="1" parent="qPShPRfAbATKHdw5kQ-B-1">
          <mxGeometry x="748" y="408" width="180" height="20" as="geometry" />
        </mxCell>
        <mxCell id="_LIc8x-VrGd2luE9OeAh-1" style="edgeStyle=orthogonalEdgeStyle;rounded=1;orthogonalLoop=1;jettySize=auto;html=1;entryX=0.05;entryY=0.5;entryDx=0;entryDy=0;entryPerimeter=0;endArrow=none;startFill=0;strokeWidth=20;exitX=0.95;exitY=0.5;exitDx=0;exitDy=0;exitPerimeter=0;strokeColor=#14E6CD;curved=0;arcSize=5;" edge="1" parent="qPShPRfAbATKHdw5kQ-B-1" source="_LIc8x-VrGd2luE9OeAh-2" target="_LIc8x-VrGd2luE9OeAh-0">
          <mxGeometry relative="1" as="geometry">
            <mxPoint x="663" y="220" as="sourcePoint" />
            <mxPoint x="663" y="330" as="targetPoint" />
            <Array as="points">
              <mxPoint x="702" y="418" />
            </Array>
          </mxGeometry>
        </mxCell>
        <mxCell id="_LIc8x-VrGd2luE9OeAh-2" value="" style="rounded=1;whiteSpace=wrap;html=1;strokeColor=none;fillColor=#009EFF;points=[[0,0,0,0,0],[0,0.25,0,0,0],[0,0.75,0,0,0],[0,1,0,0,0],[0.05,0.5,0,0,0],[0.25,0,0,0,0],[0.25,1,0,0,0],[0.5,0,0,0,0],[0.5,1,0,0,0],[0.75,0,0,0,0],[0.75,1,0,0,0],[0.95,0.5,0,0,0],[1,0,0,0,0],[1,0.25,0,0,0],[1,0.75,0,0,0],[1,1,0,0,0]];align=center;spacing=5;gradientColor=#14E6CD;gradientDirection=east;rotation=90;" vertex="1" parent="qPShPRfAbATKHdw5kQ-B-1">
          <mxGeometry x="652" y="217" width="100" height="20" as="geometry" />
        </mxCell>
        <mxCell id="VFq9SC6s4tm_ShkLNwlQ-0" value="Organisatie A" style="text;html=1;align=center;verticalAlign=middle;whiteSpace=wrap;rounded=1;rotation=-90;fontSize=18;fillColor=none;strokeColor=default;absoluteArcSize=1;" vertex="1" parent="qPShPRfAbATKHdw5kQ-B-1">
          <mxGeometry x="-143" y="266" width="317.5" height="30" as="geometry" />
        </mxCell>
        <mxCell id="VFq9SC6s4tm_ShkLNwlQ-1" value="Organisatie B" style="text;html=1;align=center;verticalAlign=middle;whiteSpace=wrap;rounded=1;rotation=-90;fontSize=18;fillColor=none;strokeColor=default;absoluteArcSize=1;" vertex="1" parent="qPShPRfAbATKHdw5kQ-B-1">
          <mxGeometry x="-49.25" y="542" width="130" height="30" as="geometry" />
        </mxCell>
        <mxCell id="VFq9SC6s4tm_ShkLNwlQ-2" value="Logboek" style="text;html=1;align=center;verticalAlign=middle;whiteSpace=wrap;rounded=1;rotation=0;fontSize=18;fillColor=none;strokeColor=default;absoluteArcSize=1;" vertex="1" parent="qPShPRfAbATKHdw5kQ-B-1">
          <mxGeometry x="52" y="71" width="400" height="30" as="geometry" />
        </mxCell>
        <mxCell id="VFq9SC6s4tm_ShkLNwlQ-3" value="Register" style="text;html=1;align=center;verticalAlign=middle;whiteSpace=wrap;rounded=1;rotation=0;fontSize=18;fillColor=none;strokeColor=default;absoluteArcSize=1;" vertex="1" parent="qPShPRfAbATKHdw5kQ-B-1">
          <mxGeometry x="732" y="71" width="400" height="30" as="geometry" />
        </mxCell>
      </root>
    </mxGraphModel>
  </diagram>
  <diagram name="afbeelding1" id="sAa2JTW2agJZughX7XWb">
    <mxGraphModel dx="1426" dy="859" grid="1" gridSize="10" guides="1" tooltips="1" connect="1" arrows="1" fold="1" page="1" pageScale="1" pageWidth="1169" pageHeight="827" math="0" shadow="0">
      <root>
        <mxCell id="L5IfUaImpfXCSc-oTlvh-0" />
        <mxCell id="L5IfUaImpfXCSc-oTlvh-1" parent="L5IfUaImpfXCSc-oTlvh-0" />
        <mxCell id="kkt4G2tgCNaPqj1oT3sI-0" value="Operation 2" style="rounded=1;whiteSpace=wrap;html=1;align=left;fontSize=16;spacing=5;absoluteArcSize=1;" vertex="1" parent="L5IfUaImpfXCSc-oTlvh-1">
          <mxGeometry x="52" y="230" width="400" height="100" as="geometry" />
        </mxCell>
        <mxCell id="kkt4G2tgCNaPqj1oT3sI-1" value="ProcessingActivity" style="rounded=1;whiteSpace=wrap;html=1;align=left;fontSize=16;spacing=5;absoluteArcSize=1;verticalAlign=top;" vertex="1" parent="L5IfUaImpfXCSc-oTlvh-1">
          <mxGeometry x="732" y="120" width="400" height="100" as="geometry" />
        </mxCell>
        <mxCell id="kkt4G2tgCNaPqj1oT3sI-2" value="Operation 1" style="rounded=1;whiteSpace=wrap;html=1;align=left;fontSize=16;spacing=5;absoluteArcSize=1;" vertex="1" parent="L5IfUaImpfXCSc-oTlvh-1">
          <mxGeometry x="52" y="120" width="400" height="100" as="geometry" />
        </mxCell>
        <mxCell id="kkt4G2tgCNaPqj1oT3sI-3" value="Organisatie A" style="text;html=1;align=center;verticalAlign=middle;whiteSpace=wrap;rounded=1;rotation=-90;fontSize=18;fillColor=none;strokeColor=default;absoluteArcSize=1;" vertex="1" parent="L5IfUaImpfXCSc-oTlvh-1">
          <mxGeometry x="-143" y="266" width="317.5" height="30" as="geometry" />
        </mxCell>
        <mxCell id="kkt4G2tgCNaPqj1oT3sI-4" value="Logboek" style="text;html=1;align=center;verticalAlign=middle;whiteSpace=wrap;rounded=1;rotation=0;fontSize=18;fillColor=none;strokeColor=default;absoluteArcSize=1;" vertex="1" parent="L5IfUaImpfXCSc-oTlvh-1">
          <mxGeometry x="52" y="71" width="400" height="30" as="geometry" />
        </mxCell>
        <mxCell id="kkt4G2tgCNaPqj1oT3sI-5" value="Register" style="text;html=1;align=center;verticalAlign=middle;whiteSpace=wrap;rounded=1;rotation=0;fontSize=18;fillColor=none;strokeColor=default;absoluteArcSize=1;" vertex="1" parent="L5IfUaImpfXCSc-oTlvh-1">
          <mxGeometry x="732" y="71" width="400" height="30" as="geometry" />
        </mxCell>
        <mxCell id="PJM-RMw3B5toE868PT-C-0" style="edgeStyle=orthogonalEdgeStyle;rounded=1;orthogonalLoop=1;jettySize=auto;html=1;entryX=0.95;entryY=0.5;entryDx=0;entryDy=0;entryPerimeter=0;endArrow=none;startFill=0;strokeWidth=20;exitX=0.95;exitY=0.5;exitDx=0;exitDy=0;exitPerimeter=0;strokeColor=#009EFF;curved=0;arcSize=5;" edge="1" parent="L5IfUaImpfXCSc-oTlvh-1" source="PJM-RMw3B5toE868PT-C-2" target="PJM-RMw3B5toE868PT-C-3">
          <mxGeometry relative="1" as="geometry">
            <mxPoint x="437" y="177" as="sourcePoint" />
            <mxPoint x="437" y="287" as="targetPoint" />
            <Array as="points">
              <mxPoint x="612" y="177" />
              <mxPoint x="612" y="287" />
            </Array>
          </mxGeometry>
        </mxCell>
        <mxCell id="PJM-RMw3B5toE868PT-C-1" style="edgeStyle=orthogonalEdgeStyle;rounded=1;orthogonalLoop=1;jettySize=auto;html=1;endArrow=none;startFill=0;strokeWidth=20;exitX=0.95;exitY=0.5;exitDx=0;exitDy=0;exitPerimeter=0;strokeColor=#009EFF;curved=0;arcSize=5;entryX=0.05;entryY=0.5;entryDx=0;entryDy=0;entryPerimeter=0;" edge="1" parent="L5IfUaImpfXCSc-oTlvh-1" source="PJM-RMw3B5toE868PT-C-2" target="PJM-RMw3B5toE868PT-C-4">
          <mxGeometry relative="1" as="geometry">
            <mxPoint x="447" y="187" as="sourcePoint" />
            <mxPoint x="447" y="297" as="targetPoint" />
          </mxGeometry>
        </mxCell>
        <mxCell id="PJM-RMw3B5toE868PT-C-2" value="processing_activity_id" style="rounded=1;whiteSpace=wrap;html=1;strokeColor=none;fillColor=#009EFF;points=[[0,0,0,0,0],[0,0.25,0,0,0],[0,0.75,0,0,0],[0,1,0,0,0],[0.05,0.5,0,0,0],[0.25,0,0,0,0],[0.25,1,0,0,0],[0.5,0,0,0,0],[0.5,1,0,0,0],[0.75,0,0,0,0],[0.75,1,0,0,0],[0.95,0.5,0,0,0],[1,0,0,0,0],[1,0.25,0,0,0],[1,0.75,0,0,0],[1,1,0,0,0]];align=left;spacing=5;" vertex="1" parent="L5IfUaImpfXCSc-oTlvh-1">
          <mxGeometry x="266" y="167" width="180" height="20" as="geometry" />
        </mxCell>
        <mxCell id="PJM-RMw3B5toE868PT-C-3" value="processing_activity_id" style="rounded=1;whiteSpace=wrap;html=1;strokeColor=none;fillColor=#009EFF;points=[[0,0,0,0,0],[0,0.25,0,0,0],[0,0.75,0,0,0],[0,1,0,0,0],[0.05,0.5,0,0,0],[0.25,0,0,0,0],[0.25,1,0,0,0],[0.5,0,0,0,0],[0.5,1,0,0,0],[0.75,0,0,0,0],[0.75,1,0,0,0],[0.95,0.5,0,0,0],[1,0,0,0,0],[1,0.25,0,0,0],[1,0.75,0,0,0],[1,1,0,0,0]];align=left;spacing=5;" vertex="1" parent="L5IfUaImpfXCSc-oTlvh-1">
          <mxGeometry x="266" y="277" width="180" height="20" as="geometry" />
        </mxCell>
        <mxCell id="PJM-RMw3B5toE868PT-C-4" value="processing_activity_id" style="rounded=1;whiteSpace=wrap;html=1;strokeColor=none;fillColor=#009EFF;points=[[0,0,0,0,0],[0,0.25,0,0,0],[0,0.75,0,0,0],[0,1,0,0,0],[0.05,0.5,0,0,0],[0.25,0,0,0,0],[0.25,1,0,0,0],[0.5,0,0,0,0],[0.5,1,0,0,0],[0.75,0,0,0,0],[0.75,1,0,0,0],[0.95,0.5,0,0,0],[1,0,0,0,0],[1,0.25,0,0,0],[1,0.75,0,0,0],[1,1,0,0,0]];align=center;spacing=5;" vertex="1" parent="L5IfUaImpfXCSc-oTlvh-1">
          <mxGeometry x="737" y="167" width="180" height="20" as="geometry" />
        </mxCell>
      </root>
    </mxGraphModel>
  </diagram>
  <diagram name="afbeelding2" id="n2FLvKDhg2RauFfGoVCT">
    <mxGraphModel dx="1426" dy="859" grid="1" gridSize="10" guides="1" tooltips="1" connect="1" arrows="1" fold="1" page="1" pageScale="1" pageWidth="1169" pageHeight="827" math="0" shadow="0">
      <root>
        <mxCell id="-b8Fp3L1Xv87qOhGiXHL-0" />
        <mxCell id="-b8Fp3L1Xv87qOhGiXHL-1" parent="-b8Fp3L1Xv87qOhGiXHL-0" />
        <mxCell id="-b8Fp3L1Xv87qOhGiXHL-2" value="Operation 2" style="rounded=1;whiteSpace=wrap;html=1;align=left;fontSize=16;spacing=5;absoluteArcSize=1;" vertex="1" parent="-b8Fp3L1Xv87qOhGiXHL-1">
          <mxGeometry x="52" y="230" width="400" height="100" as="geometry" />
        </mxCell>
        <mxCell id="-b8Fp3L1Xv87qOhGiXHL-3" value="ProcessingActivity" style="rounded=1;whiteSpace=wrap;html=1;align=left;fontSize=16;spacing=5;absoluteArcSize=1;verticalAlign=top;" vertex="1" parent="-b8Fp3L1Xv87qOhGiXHL-1">
          <mxGeometry x="732" y="120" width="400" height="100" as="geometry" />
        </mxCell>
        <mxCell id="-b8Fp3L1Xv87qOhGiXHL-4" value="Operation 1" style="rounded=1;whiteSpace=wrap;html=1;align=left;fontSize=16;spacing=5;absoluteArcSize=1;" vertex="1" parent="-b8Fp3L1Xv87qOhGiXHL-1">
          <mxGeometry x="52" y="120" width="400" height="100" as="geometry" />
        </mxCell>
        <mxCell id="-b8Fp3L1Xv87qOhGiXHL-5" value="Organisatie A" style="text;html=1;align=center;verticalAlign=middle;whiteSpace=wrap;rounded=1;rotation=-90;fontSize=18;fillColor=none;strokeColor=default;absoluteArcSize=1;" vertex="1" parent="-b8Fp3L1Xv87qOhGiXHL-1">
          <mxGeometry x="-143" y="266" width="317.5" height="30" as="geometry" />
        </mxCell>
        <mxCell id="-b8Fp3L1Xv87qOhGiXHL-6" value="Logboek" style="text;html=1;align=center;verticalAlign=middle;whiteSpace=wrap;rounded=1;rotation=0;fontSize=18;fillColor=none;strokeColor=default;absoluteArcSize=1;" vertex="1" parent="-b8Fp3L1Xv87qOhGiXHL-1">
          <mxGeometry x="52" y="71" width="400" height="30" as="geometry" />
        </mxCell>
        <mxCell id="-b8Fp3L1Xv87qOhGiXHL-7" value="Register" style="text;html=1;align=center;verticalAlign=middle;whiteSpace=wrap;rounded=1;rotation=0;fontSize=18;fillColor=none;strokeColor=default;absoluteArcSize=1;" vertex="1" parent="-b8Fp3L1Xv87qOhGiXHL-1">
          <mxGeometry x="732" y="71" width="400" height="30" as="geometry" />
        </mxCell>
        <mxCell id="-b8Fp3L1Xv87qOhGiXHL-8" style="edgeStyle=orthogonalEdgeStyle;rounded=1;orthogonalLoop=1;jettySize=auto;html=1;entryX=0.95;entryY=0.5;entryDx=0;entryDy=0;entryPerimeter=0;endArrow=none;startFill=0;strokeWidth=20;exitX=0.95;exitY=0.5;exitDx=0;exitDy=0;exitPerimeter=0;strokeColor=#009EFF;curved=0;arcSize=5;" edge="1" parent="-b8Fp3L1Xv87qOhGiXHL-1" source="-b8Fp3L1Xv87qOhGiXHL-10" target="-b8Fp3L1Xv87qOhGiXHL-11">
          <mxGeometry relative="1" as="geometry">
            <mxPoint x="437" y="177" as="sourcePoint" />
            <mxPoint x="437" y="287" as="targetPoint" />
            <Array as="points">
              <mxPoint x="612" y="177" />
              <mxPoint x="612" y="287" />
            </Array>
          </mxGeometry>
        </mxCell>
        <mxCell id="-b8Fp3L1Xv87qOhGiXHL-9" style="edgeStyle=orthogonalEdgeStyle;rounded=1;orthogonalLoop=1;jettySize=auto;html=1;endArrow=none;startFill=0;strokeWidth=20;exitX=0.95;exitY=0.5;exitDx=0;exitDy=0;exitPerimeter=0;strokeColor=#009EFF;curved=0;arcSize=5;entryX=0.05;entryY=0.5;entryDx=0;entryDy=0;entryPerimeter=0;" edge="1" parent="-b8Fp3L1Xv87qOhGiXHL-1" source="-b8Fp3L1Xv87qOhGiXHL-10" target="-b8Fp3L1Xv87qOhGiXHL-12">
          <mxGeometry relative="1" as="geometry">
            <mxPoint x="447" y="187" as="sourcePoint" />
            <mxPoint x="447" y="297" as="targetPoint" />
          </mxGeometry>
        </mxCell>
        <mxCell id="-b8Fp3L1Xv87qOhGiXHL-10" value="processing_activity_id" style="rounded=1;whiteSpace=wrap;html=1;strokeColor=none;fillColor=#009EFF;points=[[0,0,0,0,0],[0,0.25,0,0,0],[0,0.75,0,0,0],[0,1,0,0,0],[0.05,0.5,0,0,0],[0.25,0,0,0,0],[0.25,1,0,0,0],[0.5,0,0,0,0],[0.5,1,0,0,0],[0.75,0,0,0,0],[0.75,1,0,0,0],[0.95,0.5,0,0,0],[1,0,0,0,0],[1,0.25,0,0,0],[1,0.75,0,0,0],[1,1,0,0,0]];align=left;spacing=5;" vertex="1" parent="-b8Fp3L1Xv87qOhGiXHL-1">
          <mxGeometry x="266" y="167" width="180" height="20" as="geometry" />
        </mxCell>
        <mxCell id="-b8Fp3L1Xv87qOhGiXHL-11" value="processing_activity_id" style="rounded=1;whiteSpace=wrap;html=1;strokeColor=none;fillColor=#009EFF;points=[[0,0,0,0,0],[0,0.25,0,0,0],[0,0.75,0,0,0],[0,1,0,0,0],[0.05,0.5,0,0,0],[0.25,0,0,0,0],[0.25,1,0,0,0],[0.5,0,0,0,0],[0.5,1,0,0,0],[0.75,0,0,0,0],[0.75,1,0,0,0],[0.95,0.5,0,0,0],[1,0,0,0,0],[1,0.25,0,0,0],[1,0.75,0,0,0],[1,1,0,0,0]];align=left;spacing=5;" vertex="1" parent="-b8Fp3L1Xv87qOhGiXHL-1">
          <mxGeometry x="266" y="277" width="180" height="20" as="geometry" />
        </mxCell>
        <mxCell id="-b8Fp3L1Xv87qOhGiXHL-12" value="processing_activity_id" style="rounded=1;whiteSpace=wrap;html=1;strokeColor=none;fillColor=#009EFF;points=[[0,0,0,0,0],[0,0.25,0,0,0],[0,0.75,0,0,0],[0,1,0,0,0],[0.05,0.5,0,0,0],[0.25,0,0,0,0],[0.25,1,0,0,0],[0.5,0,0,0,0],[0.5,1,0,0,0],[0.75,0,0,0,0],[0.75,1,0,0,0],[0.95,0.5,0,0,0],[1,0,0,0,0],[1,0.25,0,0,0],[1,0.75,0,0,0],[1,1,0,0,0]];align=center;spacing=5;" vertex="1" parent="-b8Fp3L1Xv87qOhGiXHL-1">
          <mxGeometry x="737" y="167" width="180" height="20" as="geometry" />
        </mxCell>
        <mxCell id="-_0chqVuw1xfL7yUTXFr-0" value="Operation 2a" style="rounded=1;whiteSpace=wrap;html=1;align=left;fontSize=16;spacing=5;absoluteArcSize=1;" vertex="1" parent="-b8Fp3L1Xv87qOhGiXHL-1">
          <mxGeometry x="102" y="340" width="400" height="100" as="geometry" />
        </mxCell>
        <mxCell id="-_0chqVuw1xfL7yUTXFr-1" value="ProcessingActivity" style="rounded=1;whiteSpace=wrap;html=1;align=left;fontSize=16;spacing=5;absoluteArcSize=1;verticalAlign=top;" vertex="1" parent="-b8Fp3L1Xv87qOhGiXHL-1">
          <mxGeometry x="731" y="340" width="400" height="100" as="geometry" />
        </mxCell>
        <mxCell id="-_0chqVuw1xfL7yUTXFr-2" style="edgeStyle=orthogonalEdgeStyle;rounded=1;orthogonalLoop=1;jettySize=auto;html=1;endArrow=none;startFill=0;strokeWidth=20;strokeColor=#009EFF;curved=0;arcSize=5;exitX=0.05;exitY=0.5;exitDx=0;exitDy=0;exitPerimeter=0;entryX=0.95;entryY=0.5;entryDx=0;entryDy=0;entryPerimeter=0;" edge="1" parent="-b8Fp3L1Xv87qOhGiXHL-1" source="-_0chqVuw1xfL7yUTXFr-4" target="-_0chqVuw1xfL7yUTXFr-3">
          <mxGeometry relative="1" as="geometry">
            <mxPoint x="742" y="397" as="sourcePoint" />
            <mxPoint x="512" y="400" as="targetPoint" />
          </mxGeometry>
        </mxCell>
        <mxCell id="-_0chqVuw1xfL7yUTXFr-3" value="processing_activity_id" style="rounded=1;whiteSpace=wrap;html=1;strokeColor=none;fillColor=#009EFF;points=[[0,0,0,0,0],[0,0.25,0,0,0],[0,0.75,0,0,0],[0,1,0,0,0],[0.05,0.5,0,0,0],[0.25,0,0,0,0],[0.25,1,0,0,0],[0.5,0,0,0,0],[0.5,1,0,0,0],[0.75,0,0,0,0],[0.75,1,0,0,0],[0.95,0.5,0,0,0],[1,0,0,0,0],[1,0.25,0,0,0],[1,0.75,0,0,0],[1,1,0,0,0]];align=left;spacing=5;" vertex="1" parent="-b8Fp3L1Xv87qOhGiXHL-1">
          <mxGeometry x="316" y="387" width="180" height="20" as="geometry" />
        </mxCell>
        <mxCell id="-_0chqVuw1xfL7yUTXFr-4" value="processing_activity_id" style="rounded=1;whiteSpace=wrap;html=1;strokeColor=none;fillColor=#009EFF;points=[[0,0,0,0,0],[0,0.25,0,0,0],[0,0.75,0,0,0],[0,1,0,0,0],[0.05,0.5,0,0,0],[0.25,0,0,0,0],[0.25,1,0,0,0],[0.5,0,0,0,0],[0.5,1,0,0,0],[0.75,0,0,0,0],[0.75,1,0,0,0],[0.95,0.5,0,0,0],[1,0,0,0,0],[1,0.25,0,0,0],[1,0.75,0,0,0],[1,1,0,0,0]];align=center;spacing=5;" vertex="1" parent="-b8Fp3L1Xv87qOhGiXHL-1">
          <mxGeometry x="737" y="387" width="180" height="20" as="geometry" />
        </mxCell>
      </root>
    </mxGraphModel>
  </diagram>
  <diagram name="afbeelding3" id="1ZwI80gg7QbE16SYZmOk">
    <mxGraphModel dx="1426" dy="859" grid="1" gridSize="10" guides="1" tooltips="1" connect="1" arrows="1" fold="1" page="1" pageScale="1" pageWidth="1169" pageHeight="827" math="0" shadow="0">
      <root>
        <mxCell id="1EfbHVkqDOlDskmSrLYD-0" />
        <mxCell id="1EfbHVkqDOlDskmSrLYD-1" parent="1EfbHVkqDOlDskmSrLYD-0" />
        <mxCell id="1EfbHVkqDOlDskmSrLYD-2" value="Operation 2" style="rounded=1;whiteSpace=wrap;html=1;align=left;fontSize=16;spacing=5;absoluteArcSize=1;" vertex="1" parent="1EfbHVkqDOlDskmSrLYD-1">
          <mxGeometry x="52" y="230" width="400" height="100" as="geometry" />
        </mxCell>
        <mxCell id="1EfbHVkqDOlDskmSrLYD-3" value="ProcessingActivity" style="rounded=1;whiteSpace=wrap;html=1;align=left;fontSize=16;spacing=5;absoluteArcSize=1;verticalAlign=top;" vertex="1" parent="1EfbHVkqDOlDskmSrLYD-1">
          <mxGeometry x="732" y="120" width="400" height="100" as="geometry" />
        </mxCell>
        <mxCell id="1EfbHVkqDOlDskmSrLYD-4" value="Operation 1" style="rounded=1;whiteSpace=wrap;html=1;align=left;fontSize=16;spacing=5;absoluteArcSize=1;" vertex="1" parent="1EfbHVkqDOlDskmSrLYD-1">
          <mxGeometry x="52" y="120" width="400" height="100" as="geometry" />
        </mxCell>
        <mxCell id="1EfbHVkqDOlDskmSrLYD-5" value="Organisatie A" style="text;html=1;align=center;verticalAlign=middle;whiteSpace=wrap;rounded=1;rotation=-90;fontSize=18;fillColor=none;strokeColor=default;absoluteArcSize=1;" vertex="1" parent="1EfbHVkqDOlDskmSrLYD-1">
          <mxGeometry x="-143" y="266" width="317.5" height="30" as="geometry" />
        </mxCell>
        <mxCell id="1EfbHVkqDOlDskmSrLYD-6" value="Logboek" style="text;html=1;align=center;verticalAlign=middle;whiteSpace=wrap;rounded=1;rotation=0;fontSize=18;fillColor=none;strokeColor=default;absoluteArcSize=1;" vertex="1" parent="1EfbHVkqDOlDskmSrLYD-1">
          <mxGeometry x="52" y="71" width="400" height="30" as="geometry" />
        </mxCell>
        <mxCell id="1EfbHVkqDOlDskmSrLYD-7" value="Register" style="text;html=1;align=center;verticalAlign=middle;whiteSpace=wrap;rounded=1;rotation=0;fontSize=18;fillColor=none;strokeColor=default;absoluteArcSize=1;" vertex="1" parent="1EfbHVkqDOlDskmSrLYD-1">
          <mxGeometry x="732" y="71" width="400" height="30" as="geometry" />
        </mxCell>
        <mxCell id="1EfbHVkqDOlDskmSrLYD-8" style="edgeStyle=orthogonalEdgeStyle;rounded=1;orthogonalLoop=1;jettySize=auto;html=1;entryX=0.95;entryY=0.5;entryDx=0;entryDy=0;entryPerimeter=0;endArrow=none;startFill=0;strokeWidth=20;exitX=0.95;exitY=0.5;exitDx=0;exitDy=0;exitPerimeter=0;strokeColor=#009EFF;curved=0;arcSize=5;" edge="1" parent="1EfbHVkqDOlDskmSrLYD-1" source="1EfbHVkqDOlDskmSrLYD-10" target="1EfbHVkqDOlDskmSrLYD-11">
          <mxGeometry relative="1" as="geometry">
            <mxPoint x="437" y="177" as="sourcePoint" />
            <mxPoint x="437" y="287" as="targetPoint" />
            <Array as="points">
              <mxPoint x="612" y="177" />
              <mxPoint x="612" y="287" />
            </Array>
          </mxGeometry>
        </mxCell>
        <mxCell id="1EfbHVkqDOlDskmSrLYD-9" style="edgeStyle=orthogonalEdgeStyle;rounded=1;orthogonalLoop=1;jettySize=auto;html=1;endArrow=none;startFill=0;strokeWidth=20;exitX=0.95;exitY=0.5;exitDx=0;exitDy=0;exitPerimeter=0;strokeColor=#009EFF;curved=0;arcSize=5;entryX=0.05;entryY=0.5;entryDx=0;entryDy=0;entryPerimeter=0;" edge="1" parent="1EfbHVkqDOlDskmSrLYD-1" source="1EfbHVkqDOlDskmSrLYD-10" target="1EfbHVkqDOlDskmSrLYD-12">
          <mxGeometry relative="1" as="geometry">
            <mxPoint x="447" y="187" as="sourcePoint" />
            <mxPoint x="447" y="297" as="targetPoint" />
          </mxGeometry>
        </mxCell>
        <mxCell id="1EfbHVkqDOlDskmSrLYD-10" value="processing_activity_id" style="rounded=1;whiteSpace=wrap;html=1;strokeColor=none;fillColor=#009EFF;points=[[0,0,0,0,0],[0,0.25,0,0,0],[0,0.75,0,0,0],[0,1,0,0,0],[0.05,0.5,0,0,0],[0.25,0,0,0,0],[0.25,1,0,0,0],[0.5,0,0,0,0],[0.5,1,0,0,0],[0.75,0,0,0,0],[0.75,1,0,0,0],[0.95,0.5,0,0,0],[1,0,0,0,0],[1,0.25,0,0,0],[1,0.75,0,0,0],[1,1,0,0,0]];align=left;spacing=5;" vertex="1" parent="1EfbHVkqDOlDskmSrLYD-1">
          <mxGeometry x="266" y="167" width="180" height="20" as="geometry" />
        </mxCell>
        <mxCell id="1EfbHVkqDOlDskmSrLYD-11" value="processing_activity_id" style="rounded=1;whiteSpace=wrap;html=1;strokeColor=none;fillColor=#009EFF;points=[[0,0,0,0,0],[0,0.25,0,0,0],[0,0.75,0,0,0],[0,1,0,0,0],[0.05,0.5,0,0,0],[0.25,0,0,0,0],[0.25,1,0,0,0],[0.5,0,0,0,0],[0.5,1,0,0,0],[0.75,0,0,0,0],[0.75,1,0,0,0],[0.95,0.5,0,0,0],[1,0,0,0,0],[1,0.25,0,0,0],[1,0.75,0,0,0],[1,1,0,0,0]];align=left;spacing=5;" vertex="1" parent="1EfbHVkqDOlDskmSrLYD-1">
          <mxGeometry x="266" y="277" width="180" height="20" as="geometry" />
        </mxCell>
        <mxCell id="1EfbHVkqDOlDskmSrLYD-12" value="processing_activity_id" style="rounded=1;whiteSpace=wrap;html=1;strokeColor=none;fillColor=#009EFF;points=[[0,0,0,0,0],[0,0.25,0,0,0],[0,0.75,0,0,0],[0,1,0,0,0],[0.05,0.5,0,0,0],[0.25,0,0,0,0],[0.25,1,0,0,0],[0.5,0,0,0,0],[0.5,1,0,0,0],[0.75,0,0,0,0],[0.75,1,0,0,0],[0.95,0.5,0,0,0],[1,0,0,0,0],[1,0.25,0,0,0],[1,0.75,0,0,0],[1,1,0,0,0]];align=center;spacing=5;" vertex="1" parent="1EfbHVkqDOlDskmSrLYD-1">
          <mxGeometry x="737" y="167" width="180" height="20" as="geometry" />
        </mxCell>
        <mxCell id="1EfbHVkqDOlDskmSrLYD-13" value="Operation 2a" style="rounded=1;whiteSpace=wrap;html=1;align=left;fontSize=16;spacing=5;absoluteArcSize=1;" vertex="1" parent="1EfbHVkqDOlDskmSrLYD-1">
          <mxGeometry x="102" y="340" width="400" height="100" as="geometry" />
        </mxCell>
        <mxCell id="1EfbHVkqDOlDskmSrLYD-14" value="ProcessingActivity" style="rounded=1;whiteSpace=wrap;html=1;align=left;fontSize=16;spacing=5;absoluteArcSize=1;verticalAlign=top;" vertex="1" parent="1EfbHVkqDOlDskmSrLYD-1">
          <mxGeometry x="731" y="340" width="400" height="100" as="geometry" />
        </mxCell>
        <mxCell id="1EfbHVkqDOlDskmSrLYD-15" style="edgeStyle=orthogonalEdgeStyle;rounded=1;orthogonalLoop=1;jettySize=auto;html=1;endArrow=none;startFill=0;strokeWidth=20;strokeColor=#009EFF;curved=0;arcSize=5;exitX=0.05;exitY=0.5;exitDx=0;exitDy=0;exitPerimeter=0;entryX=0.95;entryY=0.5;entryDx=0;entryDy=0;entryPerimeter=0;" edge="1" parent="1EfbHVkqDOlDskmSrLYD-1" source="1EfbHVkqDOlDskmSrLYD-17" target="1EfbHVkqDOlDskmSrLYD-16">
          <mxGeometry relative="1" as="geometry">
            <mxPoint x="742" y="397" as="sourcePoint" />
            <mxPoint x="512" y="400" as="targetPoint" />
          </mxGeometry>
        </mxCell>
        <mxCell id="1EfbHVkqDOlDskmSrLYD-16" value="processing_activity_id" style="rounded=1;whiteSpace=wrap;html=1;strokeColor=none;fillColor=#009EFF;points=[[0,0,0,0,0],[0,0.25,0,0,0],[0,0.75,0,0,0],[0,1,0,0,0],[0.05,0.5,0,0,0],[0.25,0,0,0,0],[0.25,1,0,0,0],[0.5,0,0,0,0],[0.5,1,0,0,0],[0.75,0,0,0,0],[0.75,1,0,0,0],[0.95,0.5,0,0,0],[1,0,0,0,0],[1,0.25,0,0,0],[1,0.75,0,0,0],[1,1,0,0,0]];align=left;spacing=5;" vertex="1" parent="1EfbHVkqDOlDskmSrLYD-1">
          <mxGeometry x="316" y="387" width="180" height="20" as="geometry" />
        </mxCell>
        <mxCell id="1EfbHVkqDOlDskmSrLYD-17" value="processing_activity_id" style="rounded=1;whiteSpace=wrap;html=1;strokeColor=none;fillColor=#009EFF;points=[[0,0,0,0,0],[0,0.25,0,0,0],[0,0.75,0,0,0],[0,1,0,0,0],[0.05,0.5,0,0,0],[0.25,0,0,0,0],[0.25,1,0,0,0],[0.5,0,0,0,0],[0.5,1,0,0,0],[0.75,0,0,0,0],[0.75,1,0,0,0],[0.95,0.5,0,0,0],[1,0,0,0,0],[1,0.25,0,0,0],[1,0.75,0,0,0],[1,1,0,0,0]];align=center;spacing=5;" vertex="1" parent="1EfbHVkqDOlDskmSrLYD-1">
          <mxGeometry x="737" y="387" width="180" height="20" as="geometry" />
        </mxCell>
        <mxCell id="0VxDG6cLHeMk3WA3uPWC-0" value="parent_processing_activity_id" style="rounded=1;whiteSpace=wrap;html=1;strokeColor=none;fillColor=#14E6CD;points=[[0,0,0,0,0],[0,0.25,0,0,0],[0,0.75,0,0,0],[0,1,0,0,0],[0.05,0.5,0,0,0],[0.25,0,0,0,0],[0.25,1,0,0,0],[0.5,0,0,0,0],[0.5,1,0,0,0],[0.75,0,0,0,0],[0.75,1,0,0,0],[0.95,0.5,0,0,0],[1,0,0,0,0],[1,0.25,0,0,0],[1,0.75,0,0,0],[1,1,0,0,0]];align=center;spacing=5;gradientColor=none;gradientDirection=east;" vertex="1" parent="1EfbHVkqDOlDskmSrLYD-1">
          <mxGeometry x="748" y="408" width="180" height="20" as="geometry" />
        </mxCell>
        <mxCell id="0VxDG6cLHeMk3WA3uPWC-1" style="edgeStyle=orthogonalEdgeStyle;rounded=1;orthogonalLoop=1;jettySize=auto;html=1;entryX=0.05;entryY=0.5;entryDx=0;entryDy=0;entryPerimeter=0;endArrow=none;startFill=0;strokeWidth=20;exitX=0.95;exitY=0.5;exitDx=0;exitDy=0;exitPerimeter=0;strokeColor=#14E6CD;curved=0;arcSize=5;" edge="1" parent="1EfbHVkqDOlDskmSrLYD-1" source="0VxDG6cLHeMk3WA3uPWC-2" target="0VxDG6cLHeMk3WA3uPWC-0">
          <mxGeometry relative="1" as="geometry">
            <mxPoint x="663" y="220" as="sourcePoint" />
            <mxPoint x="663" y="330" as="targetPoint" />
            <Array as="points">
              <mxPoint x="702" y="418" />
            </Array>
          </mxGeometry>
        </mxCell>
        <mxCell id="0VxDG6cLHeMk3WA3uPWC-2" value="" style="rounded=1;whiteSpace=wrap;html=1;strokeColor=none;fillColor=#009EFF;points=[[0,0,0,0,0],[0,0.25,0,0,0],[0,0.75,0,0,0],[0,1,0,0,0],[0.05,0.5,0,0,0],[0.25,0,0,0,0],[0.25,1,0,0,0],[0.5,0,0,0,0],[0.5,1,0,0,0],[0.75,0,0,0,0],[0.75,1,0,0,0],[0.95,0.5,0,0,0],[1,0,0,0,0],[1,0.25,0,0,0],[1,0.75,0,0,0],[1,1,0,0,0]];align=center;spacing=5;gradientColor=#14E6CD;gradientDirection=east;rotation=90;" vertex="1" parent="1EfbHVkqDOlDskmSrLYD-1">
          <mxGeometry x="652" y="217" width="100" height="20" as="geometry" />
        </mxCell>
      </root>
    </mxGraphModel>
  </diagram>
  <diagram name="afbeelding4" id="T3ErRJL0wleF64MCAbLL">
    <mxGraphModel dx="1426" dy="859" grid="1" gridSize="10" guides="1" tooltips="1" connect="1" arrows="1" fold="1" page="1" pageScale="1" pageWidth="1169" pageHeight="827" math="0" shadow="0">
      <root>
        <mxCell id="yknGUe1ZqPy-GcHqOirP-0" />
        <mxCell id="yknGUe1ZqPy-GcHqOirP-1" parent="yknGUe1ZqPy-GcHqOirP-0" />
        <mxCell id="yknGUe1ZqPy-GcHqOirP-2" value="Operation 2" style="rounded=1;whiteSpace=wrap;html=1;align=left;fontSize=16;spacing=5;absoluteArcSize=1;" vertex="1" parent="yknGUe1ZqPy-GcHqOirP-1">
          <mxGeometry x="52" y="230" width="400" height="100" as="geometry" />
        </mxCell>
        <mxCell id="yknGUe1ZqPy-GcHqOirP-3" value="ProcessingActivity" style="rounded=1;whiteSpace=wrap;html=1;align=left;fontSize=16;spacing=5;absoluteArcSize=1;verticalAlign=top;" vertex="1" parent="yknGUe1ZqPy-GcHqOirP-1">
          <mxGeometry x="732" y="120" width="400" height="100" as="geometry" />
        </mxCell>
        <mxCell id="yknGUe1ZqPy-GcHqOirP-4" value="Operation 1" style="rounded=1;whiteSpace=wrap;html=1;align=left;fontSize=16;spacing=5;absoluteArcSize=1;" vertex="1" parent="yknGUe1ZqPy-GcHqOirP-1">
          <mxGeometry x="52" y="120" width="400" height="100" as="geometry" />
        </mxCell>
        <mxCell id="yknGUe1ZqPy-GcHqOirP-5" value="Organisatie A" style="text;html=1;align=center;verticalAlign=middle;whiteSpace=wrap;rounded=1;rotation=-90;fontSize=18;fillColor=none;strokeColor=default;absoluteArcSize=1;" vertex="1" parent="yknGUe1ZqPy-GcHqOirP-1">
          <mxGeometry x="-143" y="266" width="317.5" height="30" as="geometry" />
        </mxCell>
        <mxCell id="yknGUe1ZqPy-GcHqOirP-6" value="Logboek" style="text;html=1;align=center;verticalAlign=middle;whiteSpace=wrap;rounded=1;rotation=0;fontSize=18;fillColor=none;strokeColor=default;absoluteArcSize=1;" vertex="1" parent="yknGUe1ZqPy-GcHqOirP-1">
          <mxGeometry x="52" y="71" width="400" height="30" as="geometry" />
        </mxCell>
        <mxCell id="yknGUe1ZqPy-GcHqOirP-7" value="Register" style="text;html=1;align=center;verticalAlign=middle;whiteSpace=wrap;rounded=1;rotation=0;fontSize=18;fillColor=none;strokeColor=default;absoluteArcSize=1;" vertex="1" parent="yknGUe1ZqPy-GcHqOirP-1">
          <mxGeometry x="732" y="71" width="400" height="30" as="geometry" />
        </mxCell>
        <mxCell id="yknGUe1ZqPy-GcHqOirP-8" style="edgeStyle=orthogonalEdgeStyle;rounded=1;orthogonalLoop=1;jettySize=auto;html=1;entryX=0.95;entryY=0.5;entryDx=0;entryDy=0;entryPerimeter=0;endArrow=none;startFill=0;strokeWidth=20;exitX=0.95;exitY=0.5;exitDx=0;exitDy=0;exitPerimeter=0;strokeColor=#009EFF;curved=0;arcSize=5;" edge="1" parent="yknGUe1ZqPy-GcHqOirP-1" source="yknGUe1ZqPy-GcHqOirP-10" target="yknGUe1ZqPy-GcHqOirP-11">
          <mxGeometry relative="1" as="geometry">
            <mxPoint x="437" y="177" as="sourcePoint" />
            <mxPoint x="437" y="287" as="targetPoint" />
            <Array as="points">
              <mxPoint x="612" y="177" />
              <mxPoint x="612" y="287" />
            </Array>
          </mxGeometry>
        </mxCell>
        <mxCell id="yknGUe1ZqPy-GcHqOirP-9" style="edgeStyle=orthogonalEdgeStyle;rounded=1;orthogonalLoop=1;jettySize=auto;html=1;endArrow=none;startFill=0;strokeWidth=20;exitX=0.95;exitY=0.5;exitDx=0;exitDy=0;exitPerimeter=0;strokeColor=#009EFF;curved=0;arcSize=5;entryX=0.05;entryY=0.5;entryDx=0;entryDy=0;entryPerimeter=0;" edge="1" parent="yknGUe1ZqPy-GcHqOirP-1" source="yknGUe1ZqPy-GcHqOirP-10" target="yknGUe1ZqPy-GcHqOirP-12">
          <mxGeometry relative="1" as="geometry">
            <mxPoint x="447" y="187" as="sourcePoint" />
            <mxPoint x="447" y="297" as="targetPoint" />
          </mxGeometry>
        </mxCell>
        <mxCell id="yknGUe1ZqPy-GcHqOirP-10" value="processing_activity_id" style="rounded=1;whiteSpace=wrap;html=1;strokeColor=none;fillColor=#009EFF;points=[[0,0,0,0,0],[0,0.25,0,0,0],[0,0.75,0,0,0],[0,1,0,0,0],[0.05,0.5,0,0,0],[0.25,0,0,0,0],[0.25,1,0,0,0],[0.5,0,0,0,0],[0.5,1,0,0,0],[0.75,0,0,0,0],[0.75,1,0,0,0],[0.95,0.5,0,0,0],[1,0,0,0,0],[1,0.25,0,0,0],[1,0.75,0,0,0],[1,1,0,0,0]];align=left;spacing=5;" vertex="1" parent="yknGUe1ZqPy-GcHqOirP-1">
          <mxGeometry x="266" y="167" width="180" height="20" as="geometry" />
        </mxCell>
        <mxCell id="yknGUe1ZqPy-GcHqOirP-11" value="processing_activity_id" style="rounded=1;whiteSpace=wrap;html=1;strokeColor=none;fillColor=#009EFF;points=[[0,0,0,0,0],[0,0.25,0,0,0],[0,0.75,0,0,0],[0,1,0,0,0],[0.05,0.5,0,0,0],[0.25,0,0,0,0],[0.25,1,0,0,0],[0.5,0,0,0,0],[0.5,1,0,0,0],[0.75,0,0,0,0],[0.75,1,0,0,0],[0.95,0.5,0,0,0],[1,0,0,0,0],[1,0.25,0,0,0],[1,0.75,0,0,0],[1,1,0,0,0]];align=left;spacing=5;" vertex="1" parent="yknGUe1ZqPy-GcHqOirP-1">
          <mxGeometry x="266" y="277" width="180" height="20" as="geometry" />
        </mxCell>
        <mxCell id="yknGUe1ZqPy-GcHqOirP-12" value="processing_activity_id" style="rounded=1;whiteSpace=wrap;html=1;strokeColor=none;fillColor=#009EFF;points=[[0,0,0,0,0],[0,0.25,0,0,0],[0,0.75,0,0,0],[0,1,0,0,0],[0.05,0.5,0,0,0],[0.25,0,0,0,0],[0.25,1,0,0,0],[0.5,0,0,0,0],[0.5,1,0,0,0],[0.75,0,0,0,0],[0.75,1,0,0,0],[0.95,0.5,0,0,0],[1,0,0,0,0],[1,0.25,0,0,0],[1,0.75,0,0,0],[1,1,0,0,0]];align=center;spacing=5;" vertex="1" parent="yknGUe1ZqPy-GcHqOirP-1">
          <mxGeometry x="737" y="167" width="180" height="20" as="geometry" />
        </mxCell>
        <mxCell id="yknGUe1ZqPy-GcHqOirP-13" value="Operation 2a" style="rounded=1;whiteSpace=wrap;html=1;align=left;fontSize=16;spacing=5;absoluteArcSize=1;" vertex="1" parent="yknGUe1ZqPy-GcHqOirP-1">
          <mxGeometry x="102" y="340" width="400" height="100" as="geometry" />
        </mxCell>
        <mxCell id="yknGUe1ZqPy-GcHqOirP-14" value="ProcessingActivity" style="rounded=1;whiteSpace=wrap;html=1;align=left;fontSize=16;spacing=5;absoluteArcSize=1;verticalAlign=top;" vertex="1" parent="yknGUe1ZqPy-GcHqOirP-1">
          <mxGeometry x="731" y="340" width="400" height="100" as="geometry" />
        </mxCell>
        <mxCell id="yknGUe1ZqPy-GcHqOirP-15" style="edgeStyle=orthogonalEdgeStyle;rounded=1;orthogonalLoop=1;jettySize=auto;html=1;endArrow=none;startFill=0;strokeWidth=20;strokeColor=#009EFF;curved=0;arcSize=5;exitX=0.05;exitY=0.5;exitDx=0;exitDy=0;exitPerimeter=0;entryX=0.95;entryY=0.5;entryDx=0;entryDy=0;entryPerimeter=0;" edge="1" parent="yknGUe1ZqPy-GcHqOirP-1" source="yknGUe1ZqPy-GcHqOirP-17" target="yknGUe1ZqPy-GcHqOirP-16">
          <mxGeometry relative="1" as="geometry">
            <mxPoint x="742" y="397" as="sourcePoint" />
            <mxPoint x="512" y="400" as="targetPoint" />
          </mxGeometry>
        </mxCell>
        <mxCell id="yknGUe1ZqPy-GcHqOirP-16" value="processing_activity_id" style="rounded=1;whiteSpace=wrap;html=1;strokeColor=none;fillColor=#009EFF;points=[[0,0,0,0,0],[0,0.25,0,0,0],[0,0.75,0,0,0],[0,1,0,0,0],[0.05,0.5,0,0,0],[0.25,0,0,0,0],[0.25,1,0,0,0],[0.5,0,0,0,0],[0.5,1,0,0,0],[0.75,0,0,0,0],[0.75,1,0,0,0],[0.95,0.5,0,0,0],[1,0,0,0,0],[1,0.25,0,0,0],[1,0.75,0,0,0],[1,1,0,0,0]];align=left;spacing=5;" vertex="1" parent="yknGUe1ZqPy-GcHqOirP-1">
          <mxGeometry x="316" y="387" width="180" height="20" as="geometry" />
        </mxCell>
        <mxCell id="yknGUe1ZqPy-GcHqOirP-17" value="processing_activity_id" style="rounded=1;whiteSpace=wrap;html=1;strokeColor=none;fillColor=#009EFF;points=[[0,0,0,0,0],[0,0.25,0,0,0],[0,0.75,0,0,0],[0,1,0,0,0],[0.05,0.5,0,0,0],[0.25,0,0,0,0],[0.25,1,0,0,0],[0.5,0,0,0,0],[0.5,1,0,0,0],[0.75,0,0,0,0],[0.75,1,0,0,0],[0.95,0.5,0,0,0],[1,0,0,0,0],[1,0.25,0,0,0],[1,0.75,0,0,0],[1,1,0,0,0]];align=center;spacing=5;" vertex="1" parent="yknGUe1ZqPy-GcHqOirP-1">
          <mxGeometry x="737" y="387" width="180" height="20" as="geometry" />
        </mxCell>
        <mxCell id="yknGUe1ZqPy-GcHqOirP-18" value="parent_processing_activity_id" style="rounded=1;whiteSpace=wrap;html=1;strokeColor=none;fillColor=#14E6CD;points=[[0,0,0,0,0],[0,0.25,0,0,0],[0,0.75,0,0,0],[0,1,0,0,0],[0.05,0.5,0,0,0],[0.25,0,0,0,0],[0.25,1,0,0,0],[0.5,0,0,0,0],[0.5,1,0,0,0],[0.75,0,0,0,0],[0.75,1,0,0,0],[0.95,0.5,0,0,0],[1,0,0,0,0],[1,0.25,0,0,0],[1,0.75,0,0,0],[1,1,0,0,0]];align=center;spacing=5;gradientColor=none;gradientDirection=east;" vertex="1" parent="yknGUe1ZqPy-GcHqOirP-1">
          <mxGeometry x="748" y="408" width="180" height="20" as="geometry" />
        </mxCell>
        <mxCell id="yknGUe1ZqPy-GcHqOirP-19" style="edgeStyle=orthogonalEdgeStyle;rounded=1;orthogonalLoop=1;jettySize=auto;html=1;entryX=0.05;entryY=0.5;entryDx=0;entryDy=0;entryPerimeter=0;endArrow=none;startFill=0;strokeWidth=20;exitX=0.95;exitY=0.5;exitDx=0;exitDy=0;exitPerimeter=0;strokeColor=#14E6CD;curved=0;arcSize=5;" edge="1" parent="yknGUe1ZqPy-GcHqOirP-1" source="yknGUe1ZqPy-GcHqOirP-20" target="yknGUe1ZqPy-GcHqOirP-18">
          <mxGeometry relative="1" as="geometry">
            <mxPoint x="663" y="220" as="sourcePoint" />
            <mxPoint x="663" y="330" as="targetPoint" />
            <Array as="points">
              <mxPoint x="702" y="418" />
            </Array>
          </mxGeometry>
        </mxCell>
        <mxCell id="yknGUe1ZqPy-GcHqOirP-20" value="" style="rounded=1;whiteSpace=wrap;html=1;strokeColor=none;fillColor=#009EFF;points=[[0,0,0,0,0],[0,0.25,0,0,0],[0,0.75,0,0,0],[0,1,0,0,0],[0.05,0.5,0,0,0],[0.25,0,0,0,0],[0.25,1,0,0,0],[0.5,0,0,0,0],[0.5,1,0,0,0],[0.75,0,0,0,0],[0.75,1,0,0,0],[0.95,0.5,0,0,0],[1,0,0,0,0],[1,0.25,0,0,0],[1,0.75,0,0,0],[1,1,0,0,0]];align=center;spacing=5;gradientColor=#14E6CD;gradientDirection=east;rotation=90;" vertex="1" parent="yknGUe1ZqPy-GcHqOirP-1">
          <mxGeometry x="652" y="217" width="100" height="20" as="geometry" />
        </mxCell>
        <mxCell id="VKyGbLHQ9ODtcjrxPK3x-0" value="Operation 3" style="rounded=1;whiteSpace=wrap;html=1;align=left;fontSize=16;spacing=5;absoluteArcSize=1;" vertex="1" parent="yknGUe1ZqPy-GcHqOirP-1">
          <mxGeometry x="52" y="491" width="400" height="130" as="geometry" />
        </mxCell>
        <mxCell id="VKyGbLHQ9ODtcjrxPK3x-1" value="ProcessingActivity" style="rounded=1;whiteSpace=wrap;html=1;align=left;fontSize=16;spacing=5;absoluteArcSize=1;verticalAlign=top;" vertex="1" parent="yknGUe1ZqPy-GcHqOirP-1">
          <mxGeometry x="731" y="491" width="400" height="125" as="geometry" />
        </mxCell>
        <mxCell id="VKyGbLHQ9ODtcjrxPK3x-2" value="" style="endArrow=none;dashed=1;html=1;dashPattern=1 3;strokeWidth=2;rounded=0;" edge="1" parent="yknGUe1ZqPy-GcHqOirP-1">
          <mxGeometry width="50" height="50" relative="1" as="geometry">
            <mxPoint x="22" y="470" as="sourcePoint" />
            <mxPoint x="1172" y="470" as="targetPoint" />
          </mxGeometry>
        </mxCell>
        <mxCell id="VKyGbLHQ9ODtcjrxPK3x-3" value="processing_activity_id" style="rounded=1;whiteSpace=wrap;html=1;strokeColor=none;fillColor=#009EFF;points=[[0,0,0,0,0],[0,0.25,0,0,0],[0,0.75,0,0,0],[0,1,0,0,0],[0.05,0.5,0,0,0],[0.25,0,0,0,0],[0.25,1,0,0,0],[0.5,0,0,0,0],[0.5,1,0,0,0],[0.75,0,0,0,0],[0.75,1,0,0,0],[0.95,0.5,0,0,0],[1,0,0,0,0],[1,0.25,0,0,0],[1,0.75,0,0,0],[1,1,0,0,0]];align=left;spacing=5;" vertex="1" parent="yknGUe1ZqPy-GcHqOirP-1">
          <mxGeometry x="266" y="589" width="180" height="20" as="geometry" />
        </mxCell>
        <mxCell id="VKyGbLHQ9ODtcjrxPK3x-4" value="processing_activity_id" style="rounded=1;whiteSpace=wrap;html=1;strokeColor=none;fillColor=#009EFF;points=[[0,0,0,0,0],[0,0.25,0,0,0],[0,0.75,0,0,0],[0,1,0,0,0],[0.05,0.5,0,0,0],[0.25,0,0,0,0],[0.25,1,0,0,0],[0.5,0,0,0,0],[0.5,1,0,0,0],[0.75,0,0,0,0],[0.75,1,0,0,0],[0.95,0.5,0,0,0],[1,0,0,0,0],[1,0.25,0,0,0],[1,0.75,0,0,0],[1,1,0,0,0]];align=center;spacing=5;" vertex="1" parent="yknGUe1ZqPy-GcHqOirP-1">
          <mxGeometry x="739" y="589" width="180" height="20" as="geometry" />
        </mxCell>
        <mxCell id="VKyGbLHQ9ODtcjrxPK3x-5" style="edgeStyle=orthogonalEdgeStyle;rounded=1;orthogonalLoop=1;jettySize=auto;html=1;entryX=0.95;entryY=0.5;entryDx=0;entryDy=0;entryPerimeter=0;endArrow=none;startFill=0;strokeWidth=20;exitX=0.05;exitY=0.5;exitDx=0;exitDy=0;exitPerimeter=0;strokeColor=#009EFF;curved=0;arcSize=5;" edge="1" parent="yknGUe1ZqPy-GcHqOirP-1" source="VKyGbLHQ9ODtcjrxPK3x-4" target="VKyGbLHQ9ODtcjrxPK3x-3">
          <mxGeometry relative="1" as="geometry">
            <mxPoint x="695.98" y="510" as="sourcePoint" />
            <mxPoint x="695.98" y="751" as="targetPoint" />
          </mxGeometry>
        </mxCell>
        <mxCell id="VKyGbLHQ9ODtcjrxPK3x-6" value="Organisatie B" style="text;html=1;align=center;verticalAlign=middle;whiteSpace=wrap;rounded=1;rotation=-90;fontSize=18;fillColor=none;strokeColor=default;absoluteArcSize=1;" vertex="1" parent="yknGUe1ZqPy-GcHqOirP-1">
          <mxGeometry x="-49.25" y="542" width="130" height="30" as="geometry" />
        </mxCell>
      </root>
    </mxGraphModel>
  </diagram>
  <diagram name="afbeelding5" id="r2c7OHCBBO9R_EN-jfte">
    <mxGraphModel dx="1426" dy="859" grid="1" gridSize="10" guides="1" tooltips="1" connect="1" arrows="1" fold="1" page="1" pageScale="1" pageWidth="1169" pageHeight="827" math="0" shadow="0">
      <root>
        <mxCell id="8pkv0tiOtiZGBer2DiA4-0" />
        <mxCell id="8pkv0tiOtiZGBer2DiA4-1" parent="8pkv0tiOtiZGBer2DiA4-0" />
        <mxCell id="8pkv0tiOtiZGBer2DiA4-3" value="Operation 1" style="rounded=1;whiteSpace=wrap;html=1;align=left;fontSize=16;spacing=5;absoluteArcSize=1;" vertex="1" parent="8pkv0tiOtiZGBer2DiA4-1">
          <mxGeometry x="52" y="120" width="400" height="100" as="geometry" />
        </mxCell>
        <mxCell id="8pkv0tiOtiZGBer2DiA4-5" value="trace_id" style="rounded=1;whiteSpace=wrap;html=1;strokeColor=none;fillColor=#1BB000;points=[[0,0,0,0,0],[0,0.25,0,0,0],[0,0.75,0,0,0],[0,1,0,0,0],[0.05,0.5,0,0,0],[0.25,0,0,0,0],[0.25,1,0,0,0],[0.5,0,0,0,0],[0.5,1,0,0,0],[0.75,0,0,0,0],[0.75,1,0,0,0],[0.95,0.5,0,0,0],[1,0,0,0,0],[1,0.25,0,0,0],[1,0.75,0,0,0],[1,1,0,0,0]];align=left;spacing=5;" vertex="1" parent="8pkv0tiOtiZGBer2DiA4-1">
          <mxGeometry x="266" y="146" width="180" height="20" as="geometry" />
        </mxCell>
        <mxCell id="8pkv0tiOtiZGBer2DiA4-10" value="Organisatie A" style="text;html=1;align=center;verticalAlign=middle;whiteSpace=wrap;rounded=1;rotation=-90;fontSize=18;fillColor=none;strokeColor=default;absoluteArcSize=1;" vertex="1" parent="8pkv0tiOtiZGBer2DiA4-1">
          <mxGeometry x="-143" y="266" width="317.5" height="30" as="geometry" />
        </mxCell>
        <mxCell id="8pkv0tiOtiZGBer2DiA4-11" value="Logboek" style="text;html=1;align=center;verticalAlign=middle;whiteSpace=wrap;rounded=1;rotation=0;fontSize=18;fillColor=none;strokeColor=default;absoluteArcSize=1;" vertex="1" parent="8pkv0tiOtiZGBer2DiA4-1">
          <mxGeometry x="52" y="71" width="400" height="30" as="geometry" />
        </mxCell>
        <mxCell id="nadGCndMmSD-59dYZjKG-0" value="" style="endArrow=none;dashed=1;html=1;dashPattern=1 3;strokeWidth=2;rounded=0;strokeColor=#FFFFFF;" edge="1" parent="8pkv0tiOtiZGBer2DiA4-1">
          <mxGeometry width="50" height="50" relative="1" as="geometry">
            <mxPoint x="22" y="470" as="sourcePoint" />
            <mxPoint x="600" y="470" as="targetPoint" />
          </mxGeometry>
        </mxCell>
      </root>
    </mxGraphModel>
  </diagram>
  <diagram name="afbeelding6" id="YAO3nfabnl-wW71dE3iV">
    <mxGraphModel dx="1426" dy="859" grid="1" gridSize="10" guides="1" tooltips="1" connect="1" arrows="1" fold="1" page="1" pageScale="1" pageWidth="1169" pageHeight="827" math="0" shadow="0">
      <root>
        <mxCell id="fzuYG9nrzu_tqJcZMGgh-0" />
        <mxCell id="fzuYG9nrzu_tqJcZMGgh-1" parent="fzuYG9nrzu_tqJcZMGgh-0" />
        <mxCell id="fzuYG9nrzu_tqJcZMGgh-2" value="Operation 2" style="rounded=1;whiteSpace=wrap;html=1;align=left;fontSize=16;spacing=5;absoluteArcSize=1;" vertex="1" parent="fzuYG9nrzu_tqJcZMGgh-1">
          <mxGeometry x="52" y="230" width="400" height="100" as="geometry" />
        </mxCell>
        <mxCell id="fzuYG9nrzu_tqJcZMGgh-3" value="Operation 1" style="rounded=1;whiteSpace=wrap;html=1;align=left;fontSize=16;spacing=5;absoluteArcSize=1;" vertex="1" parent="fzuYG9nrzu_tqJcZMGgh-1">
          <mxGeometry x="52" y="120" width="400" height="100" as="geometry" />
        </mxCell>
        <mxCell id="fzuYG9nrzu_tqJcZMGgh-4" value="Operation 2a" style="rounded=1;whiteSpace=wrap;html=1;align=left;fontSize=16;spacing=5;absoluteArcSize=1;" vertex="1" parent="fzuYG9nrzu_tqJcZMGgh-1">
          <mxGeometry x="102" y="340" width="400" height="100" as="geometry" />
        </mxCell>
        <mxCell id="fzuYG9nrzu_tqJcZMGgh-5" value="trace_id" style="rounded=1;whiteSpace=wrap;html=1;strokeColor=none;fillColor=#1BB000;points=[[0,0,0,0,0],[0,0.25,0,0,0],[0,0.75,0,0,0],[0,1,0,0,0],[0.05,0.5,0,0,0],[0.25,0,0,0,0],[0.25,1,0,0,0],[0.5,0,0,0,0],[0.5,1,0,0,0],[0.75,0,0,0,0],[0.75,1,0,0,0],[0.95,0.5,0,0,0],[1,0,0,0,0],[1,0.25,0,0,0],[1,0.75,0,0,0],[1,1,0,0,0]];align=left;spacing=5;" vertex="1" parent="fzuYG9nrzu_tqJcZMGgh-1">
          <mxGeometry x="266" y="146" width="180" height="20" as="geometry" />
        </mxCell>
        <mxCell id="fzuYG9nrzu_tqJcZMGgh-6" value="trace_id" style="rounded=1;whiteSpace=wrap;html=1;strokeColor=none;fillColor=#1BB000;points=[[0,0,0,0,0],[0,0.25,0,0,0],[0,0.75,0,0,0],[0,1,0,0,0],[0.05,0.5,0,0,0],[0.25,0,0,0,0],[0.25,1,0,0,0],[0.5,0,0,0,0],[0.5,1,0,0,0],[0.75,0,0,0,0],[0.75,1,0,0,0],[0.95,0.5,0,0,0],[1,0,0,0,0],[1,0.25,0,0,0],[1,0.75,0,0,0],[1,1,0,0,0]];align=left;spacing=5;" vertex="1" parent="fzuYG9nrzu_tqJcZMGgh-1">
          <mxGeometry x="266" y="256" width="180" height="20" as="geometry" />
        </mxCell>
        <mxCell id="fzuYG9nrzu_tqJcZMGgh-7" value="trace_id" style="rounded=1;whiteSpace=wrap;html=1;strokeColor=none;fillColor=#1BB000;points=[[0,0,0,0,0],[0,0.25,0,0,0],[0,0.75,0,0,0],[0,1,0,0,0],[0.05,0.5,0,0,0],[0.25,0,0,0,0],[0.25,1,0,0,0],[0.5,0,0,0,0],[0.5,1,0,0,0],[0.75,0,0,0,0],[0.75,1,0,0,0],[0.95,0.5,0,0,0],[1,0,0,0,0],[1,0.25,0,0,0],[1,0.75,0,0,0],[1,1,0,0,0]];align=left;spacing=5;" vertex="1" parent="fzuYG9nrzu_tqJcZMGgh-1">
          <mxGeometry x="316" y="366" width="180" height="20" as="geometry" />
        </mxCell>
        <mxCell id="fzuYG9nrzu_tqJcZMGgh-9" style="edgeStyle=orthogonalEdgeStyle;rounded=1;orthogonalLoop=1;jettySize=auto;html=1;entryX=0.95;entryY=0.5;entryDx=0;entryDy=0;entryPerimeter=0;endArrow=none;startFill=0;strokeWidth=20;exitX=0.95;exitY=0.5;exitDx=0;exitDy=0;exitPerimeter=0;strokeColor=#1BB000;curved=0;arcSize=5;" edge="1" parent="fzuYG9nrzu_tqJcZMGgh-1" source="fzuYG9nrzu_tqJcZMGgh-5" target="fzuYG9nrzu_tqJcZMGgh-6">
          <mxGeometry relative="1" as="geometry">
            <mxPoint x="532" y="157" as="sourcePoint" />
            <mxPoint x="582" y="330" as="targetPoint" />
            <Array as="points">
              <mxPoint x="582" y="156" />
              <mxPoint x="582" y="266" />
            </Array>
          </mxGeometry>
        </mxCell>
        <mxCell id="fzuYG9nrzu_tqJcZMGgh-10" style="edgeStyle=orthogonalEdgeStyle;rounded=1;orthogonalLoop=1;jettySize=auto;html=1;endArrow=none;startFill=0;strokeWidth=20;strokeColor=#1BB000;curved=0;arcSize=5;entryX=0.95;entryY=0.5;entryDx=0;entryDy=0;entryPerimeter=0;exitX=0.95;exitY=0.5;exitDx=0;exitDy=0;exitPerimeter=0;" edge="1" parent="fzuYG9nrzu_tqJcZMGgh-1" source="fzuYG9nrzu_tqJcZMGgh-6" target="fzuYG9nrzu_tqJcZMGgh-7">
          <mxGeometry relative="1" as="geometry">
            <mxPoint x="442" y="270" as="sourcePoint" />
            <mxPoint x="481" y="376" as="targetPoint" />
            <Array as="points">
              <mxPoint x="582" y="266" />
              <mxPoint x="582" y="376" />
            </Array>
          </mxGeometry>
        </mxCell>
        <mxCell id="fzuYG9nrzu_tqJcZMGgh-15" value="Organisatie A" style="text;html=1;align=center;verticalAlign=middle;whiteSpace=wrap;rounded=1;rotation=-90;fontSize=18;fillColor=none;strokeColor=default;absoluteArcSize=1;" vertex="1" parent="fzuYG9nrzu_tqJcZMGgh-1">
          <mxGeometry x="-143" y="266" width="317.5" height="30" as="geometry" />
        </mxCell>
        <mxCell id="fzuYG9nrzu_tqJcZMGgh-17" value="Logboek" style="text;html=1;align=center;verticalAlign=middle;whiteSpace=wrap;rounded=1;rotation=0;fontSize=18;fillColor=none;strokeColor=default;absoluteArcSize=1;" vertex="1" parent="fzuYG9nrzu_tqJcZMGgh-1">
          <mxGeometry x="52" y="71" width="400" height="30" as="geometry" />
        </mxCell>
      </root>
    </mxGraphModel>
  </diagram>
  <diagram name="afbeelding7" id="HsJT4Fr_ccG0WiHk3ZrV">
    <mxGraphModel dx="1426" dy="859" grid="1" gridSize="10" guides="1" tooltips="1" connect="1" arrows="1" fold="1" page="1" pageScale="1" pageWidth="1169" pageHeight="827" math="0" shadow="0">
      <root>
        <mxCell id="L5YKzZsQdNt7DZLY964r-0" />
        <mxCell id="L5YKzZsQdNt7DZLY964r-1" parent="L5YKzZsQdNt7DZLY964r-0" />
        <mxCell id="L5YKzZsQdNt7DZLY964r-2" value="Operation 2" style="rounded=1;whiteSpace=wrap;html=1;align=left;fontSize=16;spacing=5;absoluteArcSize=1;" vertex="1" parent="L5YKzZsQdNt7DZLY964r-1">
          <mxGeometry x="52" y="230" width="400" height="100" as="geometry" />
        </mxCell>
        <mxCell id="L5YKzZsQdNt7DZLY964r-4" value="Operation 1" style="rounded=1;whiteSpace=wrap;html=1;align=left;fontSize=16;spacing=5;absoluteArcSize=1;" vertex="1" parent="L5YKzZsQdNt7DZLY964r-1">
          <mxGeometry x="52" y="120" width="400" height="100" as="geometry" />
        </mxCell>
        <mxCell id="L5YKzZsQdNt7DZLY964r-5" value="Operation 2a" style="rounded=1;whiteSpace=wrap;html=1;align=left;fontSize=16;spacing=5;absoluteArcSize=1;" vertex="1" parent="L5YKzZsQdNt7DZLY964r-1">
          <mxGeometry x="102" y="340" width="400" height="100" as="geometry" />
        </mxCell>
        <mxCell id="L5YKzZsQdNt7DZLY964r-10" value="trace_id" style="rounded=1;whiteSpace=wrap;html=1;strokeColor=none;fillColor=#1BB000;points=[[0,0,0,0,0],[0,0.25,0,0,0],[0,0.75,0,0,0],[0,1,0,0,0],[0.05,0.5,0,0,0],[0.25,0,0,0,0],[0.25,1,0,0,0],[0.5,0,0,0,0],[0.5,1,0,0,0],[0.75,0,0,0,0],[0.75,1,0,0,0],[0.95,0.5,0,0,0],[1,0,0,0,0],[1,0.25,0,0,0],[1,0.75,0,0,0],[1,1,0,0,0]];align=left;spacing=5;" vertex="1" parent="L5YKzZsQdNt7DZLY964r-1">
          <mxGeometry x="266" y="146" width="180" height="20" as="geometry" />
        </mxCell>
        <mxCell id="L5YKzZsQdNt7DZLY964r-12" value="trace_id" style="rounded=1;whiteSpace=wrap;html=1;strokeColor=none;fillColor=#1BB000;points=[[0,0,0,0,0],[0,0.25,0,0,0],[0,0.75,0,0,0],[0,1,0,0,0],[0.05,0.5,0,0,0],[0.25,0,0,0,0],[0.25,1,0,0,0],[0.5,0,0,0,0],[0.5,1,0,0,0],[0.75,0,0,0,0],[0.75,1,0,0,0],[0.95,0.5,0,0,0],[1,0,0,0,0],[1,0.25,0,0,0],[1,0.75,0,0,0],[1,1,0,0,0]];align=left;spacing=5;" vertex="1" parent="L5YKzZsQdNt7DZLY964r-1">
          <mxGeometry x="266" y="256" width="180" height="20" as="geometry" />
        </mxCell>
        <mxCell id="L5YKzZsQdNt7DZLY964r-16" value="trace_id" style="rounded=1;whiteSpace=wrap;html=1;strokeColor=none;fillColor=#1BB000;points=[[0,0,0,0,0],[0,0.25,0,0,0],[0,0.75,0,0,0],[0,1,0,0,0],[0.05,0.5,0,0,0],[0.25,0,0,0,0],[0.25,1,0,0,0],[0.5,0,0,0,0],[0.5,1,0,0,0],[0.75,0,0,0,0],[0.75,1,0,0,0],[0.95,0.5,0,0,0],[1,0,0,0,0],[1,0.25,0,0,0],[1,0.75,0,0,0],[1,1,0,0,0]];align=left;spacing=5;" vertex="1" parent="L5YKzZsQdNt7DZLY964r-1">
          <mxGeometry x="316" y="366" width="180" height="20" as="geometry" />
        </mxCell>
        <mxCell id="L5YKzZsQdNt7DZLY964r-18" value="Operation 3" style="rounded=1;whiteSpace=wrap;html=1;align=left;fontSize=16;spacing=5;absoluteArcSize=1;" vertex="1" parent="L5YKzZsQdNt7DZLY964r-1">
          <mxGeometry x="52" y="491" width="400" height="130" as="geometry" />
        </mxCell>
        <mxCell id="L5YKzZsQdNt7DZLY964r-22" style="edgeStyle=orthogonalEdgeStyle;rounded=1;orthogonalLoop=1;jettySize=auto;html=1;entryX=0.95;entryY=0.5;entryDx=0;entryDy=0;entryPerimeter=0;endArrow=none;startFill=0;strokeWidth=20;exitX=0.95;exitY=0.5;exitDx=0;exitDy=0;exitPerimeter=0;strokeColor=#1BB000;curved=0;arcSize=5;" edge="1" parent="L5YKzZsQdNt7DZLY964r-1" source="L5YKzZsQdNt7DZLY964r-10" target="L5YKzZsQdNt7DZLY964r-12">
          <mxGeometry relative="1" as="geometry">
            <mxPoint x="532" y="157" as="sourcePoint" />
            <mxPoint x="582" y="330" as="targetPoint" />
            <Array as="points">
              <mxPoint x="582" y="156" />
              <mxPoint x="582" y="266" />
            </Array>
          </mxGeometry>
        </mxCell>
        <mxCell id="L5YKzZsQdNt7DZLY964r-23" style="edgeStyle=orthogonalEdgeStyle;rounded=1;orthogonalLoop=1;jettySize=auto;html=1;endArrow=none;startFill=0;strokeWidth=20;strokeColor=#1BB000;curved=0;arcSize=5;entryX=0.95;entryY=0.5;entryDx=0;entryDy=0;entryPerimeter=0;exitX=0.95;exitY=0.5;exitDx=0;exitDy=0;exitPerimeter=0;" edge="1" parent="L5YKzZsQdNt7DZLY964r-1" source="L5YKzZsQdNt7DZLY964r-12" target="L5YKzZsQdNt7DZLY964r-16">
          <mxGeometry relative="1" as="geometry">
            <mxPoint x="442" y="270" as="sourcePoint" />
            <mxPoint x="481" y="376" as="targetPoint" />
            <Array as="points">
              <mxPoint x="582" y="266" />
              <mxPoint x="582" y="376" />
            </Array>
          </mxGeometry>
        </mxCell>
        <mxCell id="L5YKzZsQdNt7DZLY964r-26" value="" style="endArrow=none;dashed=1;html=1;dashPattern=1 3;strokeWidth=2;rounded=0;" edge="1" parent="L5YKzZsQdNt7DZLY964r-1">
          <mxGeometry width="50" height="50" relative="1" as="geometry">
            <mxPoint x="22" y="470" as="sourcePoint" />
            <mxPoint x="600" y="470" as="targetPoint" />
          </mxGeometry>
        </mxCell>
        <mxCell id="L5YKzZsQdNt7DZLY964r-27" value="trace_id" style="rounded=1;whiteSpace=wrap;html=1;strokeColor=none;fillColor=#1BB000;points=[[0,0,0,0,0],[0,0.25,0,0,0],[0,0.75,0,0,0],[0,1,0,0,0],[0.05,0.5,0,0,0],[0.25,0,0,0,0],[0.25,1,0,0,0],[0.5,0,0,0,0],[0.5,1,0,0,0],[0.75,0,0,0,0],[0.75,1,0,0,0],[0.95,0.5,0,0,0],[1,0,0,0,0],[1,0.25,0,0,0],[1,0.75,0,0,0],[1,1,0,0,0]];align=left;spacing=5;" vertex="1" parent="L5YKzZsQdNt7DZLY964r-1">
          <mxGeometry x="266" y="568" width="180" height="20" as="geometry" />
        </mxCell>
        <mxCell id="L5YKzZsQdNt7DZLY964r-29" style="edgeStyle=orthogonalEdgeStyle;rounded=1;orthogonalLoop=1;jettySize=auto;html=1;endArrow=none;startFill=0;strokeWidth=20;strokeColor=#1BB000;curved=0;arcSize=5;entryX=0.95;entryY=0.5;entryDx=0;entryDy=0;entryPerimeter=0;exitX=0.95;exitY=0.5;exitDx=0;exitDy=0;exitPerimeter=0;" edge="1" parent="L5YKzZsQdNt7DZLY964r-1" source="L5YKzZsQdNt7DZLY964r-16" target="L5YKzZsQdNt7DZLY964r-33">
          <mxGeometry relative="1" as="geometry">
            <mxPoint x="432" y="428" as="sourcePoint" />
            <mxPoint x="482" y="538" as="targetPoint" />
            <Array as="points">
              <mxPoint x="582" y="376" />
              <mxPoint x="582" y="536" />
            </Array>
          </mxGeometry>
        </mxCell>
        <mxCell id="L5YKzZsQdNt7DZLY964r-33" value="foreign_trace_id" style="rounded=1;whiteSpace=wrap;html=1;strokeColor=none;fillColor=#1BB000;points=[[0,0,0,0,0],[0,0.25,0,0,0],[0,0.75,0,0,0],[0,1,0,0,0],[0.05,0.5,0,0,0],[0.25,0,0,0,0],[0.25,1,0,0,0],[0.5,0,0,0,0],[0.5,1,0,0,0],[0.75,0,0,0,0],[0.75,1,0,0,0],[0.95,0.5,0,0,0],[1,0,0,0,0],[1,0.25,0,0,0],[1,0.75,0,0,0],[1,1,0,0,0]];align=left;spacing=5;gradientColor=#F1E8E2;gradientDirection=west;" vertex="1" parent="L5YKzZsQdNt7DZLY964r-1">
          <mxGeometry x="266" y="526" width="180" height="20" as="geometry" />
        </mxCell>
        <mxCell id="L5YKzZsQdNt7DZLY964r-40" value="Organisatie A" style="text;html=1;align=center;verticalAlign=middle;whiteSpace=wrap;rounded=1;rotation=-90;fontSize=18;fillColor=none;strokeColor=default;absoluteArcSize=1;" vertex="1" parent="L5YKzZsQdNt7DZLY964r-1">
          <mxGeometry x="-143" y="266" width="317.5" height="30" as="geometry" />
        </mxCell>
        <mxCell id="L5YKzZsQdNt7DZLY964r-41" value="Organisatie B" style="text;html=1;align=center;verticalAlign=middle;whiteSpace=wrap;rounded=1;rotation=-90;fontSize=18;fillColor=none;strokeColor=default;absoluteArcSize=1;" vertex="1" parent="L5YKzZsQdNt7DZLY964r-1">
          <mxGeometry x="-49.25" y="542" width="130" height="30" as="geometry" />
        </mxCell>
        <mxCell id="L5YKzZsQdNt7DZLY964r-42" value="Logboek" style="text;html=1;align=center;verticalAlign=middle;whiteSpace=wrap;rounded=1;rotation=0;fontSize=18;fillColor=none;strokeColor=default;absoluteArcSize=1;" vertex="1" parent="L5YKzZsQdNt7DZLY964r-1">
          <mxGeometry x="52" y="71" width="400" height="30" as="geometry" />
        </mxCell>
      </root>
    </mxGraphModel>
  </diagram>
  <diagram name="afbeelding8" id="VEvf0kFiKA_O3RdraB1V">
    <mxGraphModel dx="1426" dy="859" grid="1" gridSize="10" guides="1" tooltips="1" connect="1" arrows="1" fold="1" page="1" pageScale="1" pageWidth="1169" pageHeight="827" math="0" shadow="0">
      <root>
        <mxCell id="sQpAlSrfy2OF5HFHo5VR-0" />
        <mxCell id="sQpAlSrfy2OF5HFHo5VR-1" parent="sQpAlSrfy2OF5HFHo5VR-0" />
        <mxCell id="sQpAlSrfy2OF5HFHo5VR-2" value="Operation 2" style="rounded=1;whiteSpace=wrap;html=1;align=left;fontSize=16;spacing=5;absoluteArcSize=1;" vertex="1" parent="sQpAlSrfy2OF5HFHo5VR-1">
          <mxGeometry x="52" y="230" width="400" height="100" as="geometry" />
        </mxCell>
        <mxCell id="sQpAlSrfy2OF5HFHo5VR-3" value="Operation 1" style="rounded=1;whiteSpace=wrap;html=1;align=left;fontSize=16;spacing=5;absoluteArcSize=1;" vertex="1" parent="sQpAlSrfy2OF5HFHo5VR-1">
          <mxGeometry x="52" y="120" width="400" height="100" as="geometry" />
        </mxCell>
        <mxCell id="sQpAlSrfy2OF5HFHo5VR-5" value="span_id" style="rounded=1;whiteSpace=wrap;html=1;strokeColor=none;fillColor=light-dark(#ff40a0, #22a20b);points=[[0,0,0,0,0],[0,0.25,0,0,0],[0,0.75,0,0,0],[0,1,0,0,0],[0.05,0.5,0,0,0],[0.25,0,0,0,0],[0.25,1,0,0,0],[0.5,0,0,0,0],[0.5,1,0,0,0],[0.75,0,0,0,0],[0.75,1,0,0,0],[0.95,0.5,0,0,0],[1,0,0,0,0],[1,0.25,0,0,0],[1,0.75,0,0,0],[1,1,0,0,0]];align=left;spacing=5;" vertex="1" parent="sQpAlSrfy2OF5HFHo5VR-1">
          <mxGeometry x="266" y="125" width="180" height="20" as="geometry" />
        </mxCell>
        <mxCell id="sQpAlSrfy2OF5HFHo5VR-6" value="span_id" style="rounded=1;whiteSpace=wrap;html=1;strokeColor=none;fillColor=light-dark(#ff40a0, #22a20b);points=[[0,0,0,0,0],[0,0.25,0,0,0],[0,0.75,0,0,0],[0,1,0,0,0],[0.05,0.5,0,0,0],[0.25,0,0,0,0],[0.25,1,0,0,0],[0.5,0,0,0,0],[0.5,1,0,0,0],[0.75,0,0,0,0],[0.75,1,0,0,0],[0.95,0.5,0,0,0],[1,0,0,0,0],[1,0.25,0,0,0],[1,0.75,0,0,0],[1,1,0,0,0]];align=left;spacing=5;gradientColor=none;gradientDirection=east;" vertex="1" parent="sQpAlSrfy2OF5HFHo5VR-1">
          <mxGeometry x="266" y="235" width="180" height="20" as="geometry" />
        </mxCell>
        <mxCell id="sQpAlSrfy2OF5HFHo5VR-10" value="Organisatie A" style="text;html=1;align=center;verticalAlign=middle;whiteSpace=wrap;rounded=1;rotation=-90;fontSize=18;fillColor=none;strokeColor=default;absoluteArcSize=1;" vertex="1" parent="sQpAlSrfy2OF5HFHo5VR-1">
          <mxGeometry x="-143" y="266" width="317.5" height="30" as="geometry" />
        </mxCell>
        <mxCell id="sQpAlSrfy2OF5HFHo5VR-11" value="Logboek" style="text;html=1;align=center;verticalAlign=middle;whiteSpace=wrap;rounded=1;rotation=0;fontSize=18;fillColor=none;strokeColor=default;absoluteArcSize=1;" vertex="1" parent="sQpAlSrfy2OF5HFHo5VR-1">
          <mxGeometry x="52" y="71" width="400" height="30" as="geometry" />
        </mxCell>
      </root>
    </mxGraphModel>
  </diagram>
  <diagram name="afbeelding9" id="RyNsBRIiR7KhT1diHlg-">
    <mxGraphModel dx="1426" dy="859" grid="1" gridSize="10" guides="1" tooltips="1" connect="1" arrows="1" fold="1" page="1" pageScale="1" pageWidth="1169" pageHeight="827" math="0" shadow="0">
      <root>
        <mxCell id="aHiIaTG3_Rp_pIA5k-BD-0" />
        <mxCell id="aHiIaTG3_Rp_pIA5k-BD-1" parent="aHiIaTG3_Rp_pIA5k-BD-0" />
        <mxCell id="aHiIaTG3_Rp_pIA5k-BD-2" value="Operation 2" style="rounded=1;whiteSpace=wrap;html=1;align=left;fontSize=16;spacing=5;absoluteArcSize=1;" vertex="1" parent="aHiIaTG3_Rp_pIA5k-BD-1">
          <mxGeometry x="52" y="230" width="400" height="100" as="geometry" />
        </mxCell>
        <mxCell id="aHiIaTG3_Rp_pIA5k-BD-3" value="Operation 1" style="rounded=1;whiteSpace=wrap;html=1;align=left;fontSize=16;spacing=5;absoluteArcSize=1;" vertex="1" parent="aHiIaTG3_Rp_pIA5k-BD-1">
          <mxGeometry x="52" y="120" width="400" height="100" as="geometry" />
        </mxCell>
        <mxCell id="aHiIaTG3_Rp_pIA5k-BD-4" value="Operation 2a" style="rounded=1;whiteSpace=wrap;html=1;align=left;fontSize=16;spacing=5;absoluteArcSize=1;" vertex="1" parent="aHiIaTG3_Rp_pIA5k-BD-1">
          <mxGeometry x="102" y="340" width="400" height="100" as="geometry" />
        </mxCell>
        <mxCell id="aHiIaTG3_Rp_pIA5k-BD-5" value="span_id" style="rounded=1;whiteSpace=wrap;html=1;strokeColor=none;fillColor=light-dark(#ff40a0, #22a20b);points=[[0,0,0,0,0],[0,0.25,0,0,0],[0,0.75,0,0,0],[0,1,0,0,0],[0.05,0.5,0,0,0],[0.25,0,0,0,0],[0.25,1,0,0,0],[0.5,0,0,0,0],[0.5,1,0,0,0],[0.75,0,0,0,0],[0.75,1,0,0,0],[0.95,0.5,0,0,0],[1,0,0,0,0],[1,0.25,0,0,0],[1,0.75,0,0,0],[1,1,0,0,0]];align=left;spacing=5;" vertex="1" parent="aHiIaTG3_Rp_pIA5k-BD-1">
          <mxGeometry x="266" y="125" width="180" height="20" as="geometry" />
        </mxCell>
        <mxCell id="aHiIaTG3_Rp_pIA5k-BD-6" value="span_id" style="rounded=1;whiteSpace=wrap;html=1;strokeColor=none;fillColor=light-dark(#ff40a0, #22a20b);points=[[0,0,0,0,0],[0,0.25,0,0,0],[0,0.75,0,0,0],[0,1,0,0,0],[0.05,0.5,0,0,0],[0.25,0,0,0,0],[0.25,1,0,0,0],[0.5,0,0,0,0],[0.5,1,0,0,0],[0.75,0,0,0,0],[0.75,1,0,0,0],[0.95,0.5,0,0,0],[1,0,0,0,0],[1,0.25,0,0,0],[1,0.75,0,0,0],[1,1,0,0,0]];align=left;spacing=5;gradientColor=#FF958C;gradientDirection=east;" vertex="1" parent="aHiIaTG3_Rp_pIA5k-BD-1">
          <mxGeometry x="266" y="235" width="180" height="20" as="geometry" />
        </mxCell>
        <mxCell id="aHiIaTG3_Rp_pIA5k-BD-7" value="span_id" style="rounded=1;whiteSpace=wrap;html=1;strokeColor=none;fillColor=light-dark(#ff40a0, #22a20b);points=[[0,0,0,0,0],[0,0.25,0,0,0],[0,0.75,0,0,0],[0,1,0,0,0],[0.05,0.5,0,0,0],[0.25,0,0,0,0],[0.25,1,0,0,0],[0.5,0,0,0,0],[0.5,1,0,0,0],[0.75,0,0,0,0],[0.75,1,0,0,0],[0.95,0.5,0,0,0],[1,0,0,0,0],[1,0.25,0,0,0],[1,0.75,0,0,0],[1,1,0,0,0]];align=left;spacing=5;" vertex="1" parent="aHiIaTG3_Rp_pIA5k-BD-1">
          <mxGeometry x="316" y="345" width="180" height="20" as="geometry" />
        </mxCell>
        <mxCell id="aHiIaTG3_Rp_pIA5k-BD-11" value="parent_span_id" style="rounded=1;whiteSpace=wrap;html=1;strokeColor=none;fillColor=#FF958C;points=[[0,0,0,0,0],[0,0.25,0,0,0],[0,0.75,0,0,0],[0,1,0,0,0],[0.05,0.5,0,0,0],[0.25,0,0,0,0],[0.25,1,0,0,0],[0.5,0,0,0,0],[0.5,1,0,0,0],[0.75,0,0,0,0],[0.75,1,0,0,0],[0.95,0.5,0,0,0],[1,0,0,0,0],[1,0.25,0,0,0],[1,0.75,0,0,0],[1,1,0,0,0]];align=left;spacing=5;gradientColor=none;gradientDirection=east;" vertex="1" parent="aHiIaTG3_Rp_pIA5k-BD-1">
          <mxGeometry x="316" y="408" width="180" height="20" as="geometry" />
        </mxCell>
        <mxCell id="aHiIaTG3_Rp_pIA5k-BD-14" style="edgeStyle=orthogonalEdgeStyle;rounded=1;orthogonalLoop=1;jettySize=auto;html=1;entryX=0.95;entryY=0.5;entryDx=0;entryDy=0;entryPerimeter=0;endArrow=none;startFill=0;strokeWidth=20;exitX=0.95;exitY=0.5;exitDx=0;exitDy=0;exitPerimeter=0;strokeColor=#FF958C;curved=0;arcSize=5;" edge="1" parent="aHiIaTG3_Rp_pIA5k-BD-1" source="aHiIaTG3_Rp_pIA5k-BD-6" target="aHiIaTG3_Rp_pIA5k-BD-11">
          <mxGeometry relative="1" as="geometry">
            <Array as="points">
              <mxPoint x="552" y="245" />
              <mxPoint x="552" y="418" />
            </Array>
          </mxGeometry>
        </mxCell>
        <mxCell id="aHiIaTG3_Rp_pIA5k-BD-15" value="Organisatie A" style="text;html=1;align=center;verticalAlign=middle;whiteSpace=wrap;rounded=1;rotation=-90;fontSize=18;fillColor=none;strokeColor=default;absoluteArcSize=1;" vertex="1" parent="aHiIaTG3_Rp_pIA5k-BD-1">
          <mxGeometry x="-143" y="266" width="317.5" height="30" as="geometry" />
        </mxCell>
        <mxCell id="aHiIaTG3_Rp_pIA5k-BD-17" value="Logboek" style="text;html=1;align=center;verticalAlign=middle;whiteSpace=wrap;rounded=1;rotation=0;fontSize=18;fillColor=none;strokeColor=default;absoluteArcSize=1;" vertex="1" parent="aHiIaTG3_Rp_pIA5k-BD-1">
          <mxGeometry x="52" y="71" width="400" height="30" as="geometry" />
        </mxCell>
      </root>
    </mxGraphModel>
  </diagram>
  <diagram name="afbeelding10" id="0Jy5Ph4xWVbZ2LPUCWgS">
    <mxGraphModel dx="1426" dy="859" grid="1" gridSize="10" guides="1" tooltips="1" connect="1" arrows="1" fold="1" page="1" pageScale="1" pageWidth="1169" pageHeight="827" math="0" shadow="0">
      <root>
        <mxCell id="XwWSURXzNFsvU97AR7fT-0" />
        <mxCell id="XwWSURXzNFsvU97AR7fT-1" parent="XwWSURXzNFsvU97AR7fT-0" />
        <mxCell id="XwWSURXzNFsvU97AR7fT-2" value="Operation 2" style="rounded=1;whiteSpace=wrap;html=1;align=left;fontSize=16;spacing=5;absoluteArcSize=1;" vertex="1" parent="XwWSURXzNFsvU97AR7fT-1">
          <mxGeometry x="52" y="230" width="400" height="100" as="geometry" />
        </mxCell>
        <mxCell id="XwWSURXzNFsvU97AR7fT-4" value="Operation 1" style="rounded=1;whiteSpace=wrap;html=1;align=left;fontSize=16;spacing=5;absoluteArcSize=1;" vertex="1" parent="XwWSURXzNFsvU97AR7fT-1">
          <mxGeometry x="52" y="120" width="400" height="100" as="geometry" />
        </mxCell>
        <mxCell id="XwWSURXzNFsvU97AR7fT-5" value="Operation 2a" style="rounded=1;whiteSpace=wrap;html=1;align=left;fontSize=16;spacing=5;absoluteArcSize=1;" vertex="1" parent="XwWSURXzNFsvU97AR7fT-1">
          <mxGeometry x="102" y="340" width="400" height="100" as="geometry" />
        </mxCell>
        <mxCell id="XwWSURXzNFsvU97AR7fT-14" value="span_id" style="rounded=1;whiteSpace=wrap;html=1;strokeColor=none;fillColor=light-dark(#ff40a0, #22a20b);points=[[0,0,0,0,0],[0,0.25,0,0,0],[0,0.75,0,0,0],[0,1,0,0,0],[0.05,0.5,0,0,0],[0.25,0,0,0,0],[0.25,1,0,0,0],[0.5,0,0,0,0],[0.5,1,0,0,0],[0.75,0,0,0,0],[0.75,1,0,0,0],[0.95,0.5,0,0,0],[1,0,0,0,0],[1,0.25,0,0,0],[1,0.75,0,0,0],[1,1,0,0,0]];align=left;spacing=5;" vertex="1" parent="XwWSURXzNFsvU97AR7fT-1">
          <mxGeometry x="266" y="125" width="180" height="20" as="geometry" />
        </mxCell>
        <mxCell id="XwWSURXzNFsvU97AR7fT-15" value="span_id" style="rounded=1;whiteSpace=wrap;html=1;strokeColor=none;fillColor=light-dark(#ff40a0, #22a20b);points=[[0,0,0,0,0],[0,0.25,0,0,0],[0,0.75,0,0,0],[0,1,0,0,0],[0.05,0.5,0,0,0],[0.25,0,0,0,0],[0.25,1,0,0,0],[0.5,0,0,0,0],[0.5,1,0,0,0],[0.75,0,0,0,0],[0.75,1,0,0,0],[0.95,0.5,0,0,0],[1,0,0,0,0],[1,0.25,0,0,0],[1,0.75,0,0,0],[1,1,0,0,0]];align=left;spacing=5;gradientColor=#FF958C;gradientDirection=east;" vertex="1" parent="XwWSURXzNFsvU97AR7fT-1">
          <mxGeometry x="266" y="235" width="180" height="20" as="geometry" />
        </mxCell>
        <mxCell id="XwWSURXzNFsvU97AR7fT-17" value="span_id" style="rounded=1;whiteSpace=wrap;html=1;strokeColor=none;fillColor=light-dark(#ff40a0, #22a20b);points=[[0,0,0,0,0],[0,0.25,0,0,0],[0,0.75,0,0,0],[0,1,0,0,0],[0.05,0.5,0,0,0],[0.25,0,0,0,0],[0.25,1,0,0,0],[0.5,0,0,0,0],[0.5,1,0,0,0],[0.75,0,0,0,0],[0.75,1,0,0,0],[0.95,0.5,0,0,0],[1,0,0,0,0],[1,0.25,0,0,0],[1,0.75,0,0,0],[1,1,0,0,0]];align=left;spacing=5;" vertex="1" parent="XwWSURXzNFsvU97AR7fT-1">
          <mxGeometry x="316" y="345" width="180" height="20" as="geometry" />
        </mxCell>
        <mxCell id="XwWSURXzNFsvU97AR7fT-18" value="Operation 3" style="rounded=1;whiteSpace=wrap;html=1;align=left;fontSize=16;spacing=5;absoluteArcSize=1;" vertex="1" parent="XwWSURXzNFsvU97AR7fT-1">
          <mxGeometry x="52" y="491" width="400" height="130" as="geometry" />
        </mxCell>
        <mxCell id="XwWSURXzNFsvU97AR7fT-19" value="foreign_span_id" style="rounded=1;whiteSpace=wrap;html=1;strokeColor=none;fillColor=#FF958C;points=[[0,0,0,0,0],[0,0.25,0,0,0],[0,0.75,0,0,0],[0,1,0,0,0],[0.05,0.5,0,0,0],[0.25,0,0,0,0],[0.25,1,0,0,0],[0.5,0,0,0,0],[0.5,1,0,0,0],[0.75,0,0,0,0],[0.75,1,0,0,0],[0.95,0.5,0,0,0],[1,0,0,0,0],[1,0.25,0,0,0],[1,0.75,0,0,0],[1,1,0,0,0]];align=left;spacing=5;gradientColor=#FF40A0;gradientDirection=east;" vertex="1" parent="XwWSURXzNFsvU97AR7fT-1">
          <mxGeometry x="266" y="547" width="180" height="20" as="geometry" />
        </mxCell>
        <mxCell id="XwWSURXzNFsvU97AR7fT-20" value="span_id" style="rounded=1;whiteSpace=wrap;html=1;strokeColor=none;fillColor=light-dark(#ff40a0, #22a20b);points=[[0,0,0,0,0],[0,0.25,0,0,0],[0,0.75,0,0,0],[0,1,0,0,0],[0.05,0.5,0,0,0],[0.25,0,0,0,0],[0.25,1,0,0,0],[0.5,0,0,0,0],[0.5,1,0,0,0],[0.75,0,0,0,0],[0.75,1,0,0,0],[0.95,0.5,0,0,0],[1,0,0,0,0],[1,0.25,0,0,0],[1,0.75,0,0,0],[1,1,0,0,0]];align=left;spacing=5;" vertex="1" parent="XwWSURXzNFsvU97AR7fT-1">
          <mxGeometry x="266" y="505" width="180" height="20" as="geometry" />
        </mxCell>
        <mxCell id="XwWSURXzNFsvU97AR7fT-21" value="parent_span_id" style="rounded=1;whiteSpace=wrap;html=1;strokeColor=none;fillColor=#FF958C;points=[[0,0,0,0,0],[0,0.25,0,0,0],[0,0.75,0,0,0],[0,1,0,0,0],[0.05,0.5,0,0,0],[0.25,0,0,0,0],[0.25,1,0,0,0],[0.5,0,0,0,0],[0.5,1,0,0,0],[0.75,0,0,0,0],[0.75,1,0,0,0],[0.95,0.5,0,0,0],[1,0,0,0,0],[1,0.25,0,0,0],[1,0.75,0,0,0],[1,1,0,0,0]];align=left;spacing=5;gradientColor=none;gradientDirection=east;" vertex="1" parent="XwWSURXzNFsvU97AR7fT-1">
          <mxGeometry x="316" y="408" width="180" height="20" as="geometry" />
        </mxCell>
        <mxCell id="XwWSURXzNFsvU97AR7fT-26" value="" style="endArrow=none;dashed=1;html=1;dashPattern=1 3;strokeWidth=2;rounded=0;" edge="1" parent="XwWSURXzNFsvU97AR7fT-1">
          <mxGeometry width="50" height="50" relative="1" as="geometry">
            <mxPoint x="22" y="470" as="sourcePoint" />
            <mxPoint x="600" y="470" as="targetPoint" />
          </mxGeometry>
        </mxCell>
        <mxCell id="XwWSURXzNFsvU97AR7fT-30" style="edgeStyle=orthogonalEdgeStyle;rounded=1;orthogonalLoop=1;jettySize=auto;html=1;entryX=0.95;entryY=0.5;entryDx=0;entryDy=0;entryPerimeter=0;endArrow=none;startFill=0;strokeWidth=20;exitX=0.95;exitY=0.5;exitDx=0;exitDy=0;exitPerimeter=0;strokeColor=#FF40A0;curved=0;arcSize=5;" edge="1" parent="XwWSURXzNFsvU97AR7fT-1" source="XwWSURXzNFsvU97AR7fT-17" target="XwWSURXzNFsvU97AR7fT-19">
          <mxGeometry relative="1" as="geometry">
            <mxPoint x="496" y="340" as="sourcePoint" />
            <mxPoint x="546" y="513" as="targetPoint" />
            <Array as="points">
              <mxPoint x="522" y="355" />
              <mxPoint x="522" y="557" />
            </Array>
          </mxGeometry>
        </mxCell>
        <mxCell id="XwWSURXzNFsvU97AR7fT-36" style="edgeStyle=orthogonalEdgeStyle;rounded=1;orthogonalLoop=1;jettySize=auto;html=1;entryX=0.95;entryY=0.5;entryDx=0;entryDy=0;entryPerimeter=0;endArrow=none;startFill=0;strokeWidth=20;exitX=0.95;exitY=0.5;exitDx=0;exitDy=0;exitPerimeter=0;strokeColor=#FF958C;curved=0;arcSize=5;" edge="1" parent="XwWSURXzNFsvU97AR7fT-1" source="XwWSURXzNFsvU97AR7fT-15" target="XwWSURXzNFsvU97AR7fT-21">
          <mxGeometry relative="1" as="geometry">
            <Array as="points">
              <mxPoint x="552" y="245" />
              <mxPoint x="552" y="418" />
            </Array>
          </mxGeometry>
        </mxCell>
        <mxCell id="XwWSURXzNFsvU97AR7fT-40" value="Organisatie A" style="text;html=1;align=center;verticalAlign=middle;whiteSpace=wrap;rounded=1;rotation=-90;fontSize=18;fillColor=none;strokeColor=default;absoluteArcSize=1;" vertex="1" parent="XwWSURXzNFsvU97AR7fT-1">
          <mxGeometry x="-143" y="266" width="317.5" height="30" as="geometry" />
        </mxCell>
        <mxCell id="XwWSURXzNFsvU97AR7fT-41" value="Organisatie B" style="text;html=1;align=center;verticalAlign=middle;whiteSpace=wrap;rounded=1;rotation=-90;fontSize=18;fillColor=none;strokeColor=default;absoluteArcSize=1;" vertex="1" parent="XwWSURXzNFsvU97AR7fT-1">
          <mxGeometry x="-49.25" y="542" width="130" height="30" as="geometry" />
        </mxCell>
        <mxCell id="XwWSURXzNFsvU97AR7fT-42" value="Logboek" style="text;html=1;align=center;verticalAlign=middle;whiteSpace=wrap;rounded=1;rotation=0;fontSize=18;fillColor=none;strokeColor=default;absoluteArcSize=1;" vertex="1" parent="XwWSURXzNFsvU97AR7fT-1">
          <mxGeometry x="52" y="71" width="400" height="30" as="geometry" />
        </mxCell>
      </root>
    </mxGraphModel>
  </diagram>
  <diagram name="afbeelding11" id="GsR4_7AYd5bzuMdYFCYA">
    <mxGraphModel dx="1426" dy="859" grid="1" gridSize="10" guides="1" tooltips="1" connect="1" arrows="1" fold="1" page="1" pageScale="1" pageWidth="1169" pageHeight="827" math="0" shadow="0">
      <root>
        <mxCell id="EkXDIwoB_u_x9bHJqCqe-0" />
        <mxCell id="EkXDIwoB_u_x9bHJqCqe-1" parent="EkXDIwoB_u_x9bHJqCqe-0" />
        <mxCell id="EkXDIwoB_u_x9bHJqCqe-2" value="Operation" style="rounded=1;whiteSpace=wrap;html=1;align=left;fontSize=16;spacing=5;absoluteArcSize=1;fillColor=none;" vertex="1" parent="EkXDIwoB_u_x9bHJqCqe-1">
          <mxGeometry x="51" y="120" width="400" height="100" as="geometry" />
        </mxCell>
        <mxCell id="EkXDIwoB_u_x9bHJqCqe-4" value="&quot;Toon alle vergunningen&quot;" style="text;html=1;align=left;verticalAlign=middle;whiteSpace=wrap;rounded=0;fontStyle=0;fontSize=15;fontColor=#009EFF;" vertex="1" parent="EkXDIwoB_u_x9bHJqCqe-1">
          <mxGeometry x="57" y="172" width="204" height="30" as="geometry" />
        </mxCell>
        <mxCell id="EkXDIwoB_u_x9bHJqCqe-5" value="processing_activity_id" style="rounded=1;whiteSpace=wrap;html=1;strokeColor=none;fillColor=#009EFF;points=[[0,0,0,0,0],[0,0.25,0,0,0],[0,0.75,0,0,0],[0,1,0,0,0],[0.05,0.5,0,0,0],[0.25,0,0,0,0],[0.25,1,0,0,0],[0.5,0,0,0,0],[0.5,1,0,0,0],[0.75,0,0,0,0],[0.75,1,0,0,0],[0.95,0.5,0,0,0],[1,0,0,0,0],[1,0.25,0,0,0],[1,0.75,0,0,0],[1,1,0,0,0]];align=left;spacing=5;" vertex="1" parent="EkXDIwoB_u_x9bHJqCqe-1">
          <mxGeometry x="265" y="167" width="180" height="20" as="geometry" />
        </mxCell>
        <mxCell id="EkXDIwoB_u_x9bHJqCqe-6" value="Operation" style="rounded=1;whiteSpace=wrap;html=1;align=left;fontSize=16;spacing=5;absoluteArcSize=1;fillColor=none;" vertex="1" parent="EkXDIwoB_u_x9bHJqCqe-1">
          <mxGeometry x="51" y="230" width="400" height="100" as="geometry" />
        </mxCell>
        <mxCell id="EkXDIwoB_u_x9bHJqCqe-8" value="&quot;Wijzig kenteken&quot;" style="text;html=1;align=left;verticalAlign=middle;whiteSpace=wrap;rounded=0;fontStyle=0;fontSize=15;fontColor=#009EFF;" vertex="1" parent="EkXDIwoB_u_x9bHJqCqe-1">
          <mxGeometry x="57" y="282" width="204" height="30" as="geometry" />
        </mxCell>
        <mxCell id="EkXDIwoB_u_x9bHJqCqe-9" value="processing_activity_id" style="rounded=1;whiteSpace=wrap;html=1;strokeColor=none;fillColor=#009EFF;points=[[0,0,0,0,0],[0,0.25,0,0,0],[0,0.75,0,0,0],[0,1,0,0,0],[0.05,0.5,0,0,0],[0.25,0,0,0,0],[0.25,1,0,0,0],[0.5,0,0,0,0],[0.5,1,0,0,0],[0.75,0,0,0,0],[0.75,1,0,0,0],[0.95,0.5,0,0,0],[1,0,0,0,0],[1,0.25,0,0,0],[1,0.75,0,0,0],[1,1,0,0,0]];align=left;spacing=5;" vertex="1" parent="EkXDIwoB_u_x9bHJqCqe-1">
          <mxGeometry x="265" y="277" width="180" height="20" as="geometry" />
        </mxCell>
        <mxCell id="EkXDIwoB_u_x9bHJqCqe-12" value="Operation" style="rounded=1;whiteSpace=wrap;html=1;align=left;fontSize=16;spacing=5;absoluteArcSize=1;fillColor=none;" vertex="1" parent="EkXDIwoB_u_x9bHJqCqe-1">
          <mxGeometry x="101" y="340" width="400" height="100" as="geometry" />
        </mxCell>
        <mxCell id="EkXDIwoB_u_x9bHJqCqe-14" value="&quot;Controleer tenaamstelling&quot;" style="text;html=1;align=left;verticalAlign=middle;whiteSpace=wrap;rounded=0;fontStyle=0;fontSize=15;fontColor=#009EFF;" vertex="1" parent="EkXDIwoB_u_x9bHJqCqe-1">
          <mxGeometry x="107" y="392" width="204" height="30" as="geometry" />
        </mxCell>
        <mxCell id="EkXDIwoB_u_x9bHJqCqe-15" value="processing_activity_id" style="rounded=1;whiteSpace=wrap;html=1;strokeColor=none;fillColor=#009EFF;points=[[0,0,0,0,0],[0,0.25,0,0,0],[0,0.75,0,0,0],[0,1,0,0,0],[0.05,0.5,0,0,0],[0.25,0,0,0,0],[0.25,1,0,0,0],[0.5,0,0,0,0],[0.5,1,0,0,0],[0.75,0,0,0,0],[0.75,1,0,0,0],[0.95,0.5,0,0,0],[1,0,0,0,0],[1,0.25,0,0,0],[1,0.75,0,0,0],[1,1,0,0,0]];align=left;spacing=5;" vertex="1" parent="EkXDIwoB_u_x9bHJqCqe-1">
          <mxGeometry x="315" y="387" width="180" height="20" as="geometry" />
        </mxCell>
        <mxCell id="EkXDIwoB_u_x9bHJqCqe-17" value="Operation" style="rounded=1;whiteSpace=wrap;html=1;align=left;fontSize=16;spacing=5;absoluteArcSize=1;fillColor=none;" vertex="1" parent="EkXDIwoB_u_x9bHJqCqe-1">
          <mxGeometry x="51" y="491" width="400" height="130" as="geometry" />
        </mxCell>
        <mxCell id="EkXDIwoB_u_x9bHJqCqe-19" value="&quot;Verstrek houdergegevens&quot;" style="text;html=1;align=left;verticalAlign=middle;whiteSpace=wrap;rounded=0;fontStyle=0;fontSize=15;fontColor=#009EFF;" vertex="1" parent="EkXDIwoB_u_x9bHJqCqe-1">
          <mxGeometry x="57" y="567" width="204" height="30" as="geometry" />
        </mxCell>
        <mxCell id="EkXDIwoB_u_x9bHJqCqe-26" value="ProcessingActivity" style="rounded=1;whiteSpace=wrap;html=1;align=left;fontSize=16;spacing=5;absoluteArcSize=1;verticalAlign=top;fillColor=none;" vertex="1" parent="EkXDIwoB_u_x9bHJqCqe-1">
          <mxGeometry x="731" y="120" width="400" height="100" as="geometry" />
        </mxCell>
        <mxCell id="EkXDIwoB_u_x9bHJqCqe-27" value="&quot;Parkeervergunningadministratie voeren&quot;" style="text;html=1;align=left;verticalAlign=middle;whiteSpace=wrap;rounded=0;fontStyle=0;fontSize=15;fontColor=#009EFF;" vertex="1" parent="EkXDIwoB_u_x9bHJqCqe-1">
          <mxGeometry x="738" y="139" width="374" height="30" as="geometry" />
        </mxCell>
        <mxCell id="EkXDIwoB_u_x9bHJqCqe-28" value="processing_activity_id" style="rounded=1;whiteSpace=wrap;html=1;strokeColor=none;fillColor=#009EFF;points=[[0,0,0,0,0],[0,0.25,0,0,0],[0,0.75,0,0,0],[0,1,0,0,0],[0.05,0.5,0,0,0],[0.25,0,0,0,0],[0.25,1,0,0,0],[0.5,0,0,0,0],[0.5,1,0,0,0],[0.75,0,0,0,0],[0.75,1,0,0,0],[0.95,0.5,0,0,0],[1,0,0,0,0],[1,0.25,0,0,0],[1,0.75,0,0,0],[1,1,0,0,0]];align=center;spacing=5;" vertex="1" parent="EkXDIwoB_u_x9bHJqCqe-1">
          <mxGeometry x="736" y="167" width="180" height="20" as="geometry" />
        </mxCell>
        <mxCell id="EkXDIwoB_u_x9bHJqCqe-29" style="edgeStyle=orthogonalEdgeStyle;rounded=1;orthogonalLoop=1;jettySize=auto;html=1;endArrow=none;startFill=0;strokeWidth=20;exitX=0.95;exitY=0.5;exitDx=0;exitDy=0;exitPerimeter=0;strokeColor=#009EFF;curved=0;arcSize=5;entryX=0.05;entryY=0.5;entryDx=0;entryDy=0;entryPerimeter=0;" edge="1" parent="EkXDIwoB_u_x9bHJqCqe-1" source="EkXDIwoB_u_x9bHJqCqe-5" target="EkXDIwoB_u_x9bHJqCqe-28">
          <mxGeometry relative="1" as="geometry">
            <mxPoint x="446" y="187" as="sourcePoint" />
            <mxPoint x="446" y="297" as="targetPoint" />
          </mxGeometry>
        </mxCell>
        <mxCell id="EkXDIwoB_u_x9bHJqCqe-30" value="ProcessingActivity" style="rounded=1;whiteSpace=wrap;html=1;align=left;fontSize=16;spacing=5;absoluteArcSize=1;verticalAlign=top;fillColor=none;" vertex="1" parent="EkXDIwoB_u_x9bHJqCqe-1">
          <mxGeometry x="730" y="340" width="400" height="100" as="geometry" />
        </mxCell>
        <mxCell id="EkXDIwoB_u_x9bHJqCqe-31" value="processing_activity_id" style="rounded=1;whiteSpace=wrap;html=1;strokeColor=none;fillColor=#009EFF;points=[[0,0,0,0,0],[0,0.25,0,0,0],[0,0.75,0,0,0],[0,1,0,0,0],[0.05,0.5,0,0,0],[0.25,0,0,0,0],[0.25,1,0,0,0],[0.5,0,0,0,0],[0.5,1,0,0,0],[0.75,0,0,0,0],[0.75,1,0,0,0],[0.95,0.5,0,0,0],[1,0,0,0,0],[1,0.25,0,0,0],[1,0.75,0,0,0],[1,1,0,0,0]];align=center;spacing=5;" vertex="1" parent="EkXDIwoB_u_x9bHJqCqe-1">
          <mxGeometry x="736" y="387" width="180" height="20" as="geometry" />
        </mxCell>
        <mxCell id="EkXDIwoB_u_x9bHJqCqe-32" value="parent_processing_activity_id" style="rounded=1;whiteSpace=wrap;html=1;strokeColor=none;fillColor=#14E6CD;points=[[0,0,0,0,0],[0,0.25,0,0,0],[0,0.75,0,0,0],[0,1,0,0,0],[0.05,0.5,0,0,0],[0.25,0,0,0,0],[0.25,1,0,0,0],[0.5,0,0,0,0],[0.5,1,0,0,0],[0.75,0,0,0,0],[0.75,1,0,0,0],[0.95,0.5,0,0,0],[1,0,0,0,0],[1,0.25,0,0,0],[1,0.75,0,0,0],[1,1,0,0,0]];align=center;spacing=5;gradientColor=none;gradientDirection=east;" vertex="1" parent="EkXDIwoB_u_x9bHJqCqe-1">
          <mxGeometry x="736" y="408" width="180" height="20" as="geometry" />
        </mxCell>
        <mxCell id="EkXDIwoB_u_x9bHJqCqe-33" style="edgeStyle=orthogonalEdgeStyle;rounded=1;orthogonalLoop=1;jettySize=auto;html=1;entryX=0.05;entryY=0.5;entryDx=0;entryDy=0;entryPerimeter=0;endArrow=none;startFill=0;strokeWidth=20;exitX=0.95;exitY=0.5;exitDx=0;exitDy=0;exitPerimeter=0;strokeColor=#14E6CD;curved=0;arcSize=5;" edge="1" parent="EkXDIwoB_u_x9bHJqCqe-1" source="EkXDIwoB_u_x9bHJqCqe-50" target="EkXDIwoB_u_x9bHJqCqe-32">
          <mxGeometry relative="1" as="geometry">
            <mxPoint x="651" y="220" as="sourcePoint" />
            <mxPoint x="651" y="330" as="targetPoint" />
            <Array as="points">
              <mxPoint x="690" y="418" />
            </Array>
          </mxGeometry>
        </mxCell>
        <mxCell id="EkXDIwoB_u_x9bHJqCqe-34" value="&quot;Tenaamstelling controleren&quot;" style="text;html=1;align=left;verticalAlign=middle;whiteSpace=wrap;rounded=0;fontStyle=0;fontSize=15;fontColor=#009EFF;" vertex="1" parent="EkXDIwoB_u_x9bHJqCqe-1">
          <mxGeometry x="737" y="359" width="374" height="30" as="geometry" />
        </mxCell>
        <mxCell id="EkXDIwoB_u_x9bHJqCqe-35" value="ProcessingActivity" style="rounded=1;whiteSpace=wrap;html=1;align=left;fontSize=16;spacing=5;absoluteArcSize=1;verticalAlign=top;fillColor=none;" vertex="1" parent="EkXDIwoB_u_x9bHJqCqe-1">
          <mxGeometry x="730" y="496" width="400" height="125" as="geometry" />
        </mxCell>
        <mxCell id="EkXDIwoB_u_x9bHJqCqe-36" value="" style="endArrow=none;dashed=1;html=1;dashPattern=1 3;strokeWidth=2;rounded=0;" edge="1" parent="EkXDIwoB_u_x9bHJqCqe-1">
          <mxGeometry width="50" height="50" relative="1" as="geometry">
            <mxPoint x="21" y="470" as="sourcePoint" />
            <mxPoint x="1171" y="470" as="targetPoint" />
          </mxGeometry>
        </mxCell>
        <mxCell id="EkXDIwoB_u_x9bHJqCqe-37" value="Gemeente" style="text;html=1;align=center;verticalAlign=middle;whiteSpace=wrap;rounded=1;rotation=-90;fontSize=18;fillColor=none;strokeColor=default;absoluteArcSize=1;" vertex="1" parent="EkXDIwoB_u_x9bHJqCqe-1">
          <mxGeometry x="-144" y="265" width="317.5" height="30" as="geometry" />
        </mxCell>
        <mxCell id="EkXDIwoB_u_x9bHJqCqe-38" value="RDW" style="text;html=1;align=center;verticalAlign=middle;whiteSpace=wrap;rounded=1;rotation=-90;fontSize=18;fillColor=none;strokeColor=default;absoluteArcSize=1;" vertex="1" parent="EkXDIwoB_u_x9bHJqCqe-1">
          <mxGeometry x="-50.25" y="541" width="130" height="30" as="geometry" />
        </mxCell>
        <mxCell id="EkXDIwoB_u_x9bHJqCqe-39" value="Logboek" style="text;html=1;align=center;verticalAlign=middle;whiteSpace=wrap;rounded=1;rotation=0;fontSize=18;fillColor=none;strokeColor=default;absoluteArcSize=1;" vertex="1" parent="EkXDIwoB_u_x9bHJqCqe-1">
          <mxGeometry x="51" y="70" width="400" height="30" as="geometry" />
        </mxCell>
        <mxCell id="EkXDIwoB_u_x9bHJqCqe-40" value="Register" style="text;html=1;align=center;verticalAlign=middle;whiteSpace=wrap;rounded=1;rotation=0;fontSize=18;fillColor=none;strokeColor=default;absoluteArcSize=1;" vertex="1" parent="EkXDIwoB_u_x9bHJqCqe-1">
          <mxGeometry x="731" y="70" width="400" height="30" as="geometry" />
        </mxCell>
        <mxCell id="EkXDIwoB_u_x9bHJqCqe-42" value="processing_activity_id" style="rounded=1;whiteSpace=wrap;html=1;strokeColor=none;fillColor=#009EFF;points=[[0,0,0,0,0],[0,0.25,0,0,0],[0,0.75,0,0,0],[0,1,0,0,0],[0.05,0.5,0,0,0],[0.25,0,0,0,0],[0.25,1,0,0,0],[0.5,0,0,0,0],[0.5,1,0,0,0],[0.75,0,0,0,0],[0.75,1,0,0,0],[0.95,0.5,0,0,0],[1,0,0,0,0],[1,0.25,0,0,0],[1,0.75,0,0,0],[1,1,0,0,0]];align=left;spacing=5;" vertex="1" parent="EkXDIwoB_u_x9bHJqCqe-1">
          <mxGeometry x="265" y="589" width="180" height="20" as="geometry" />
        </mxCell>
        <mxCell id="EkXDIwoB_u_x9bHJqCqe-44" style="edgeStyle=orthogonalEdgeStyle;rounded=1;orthogonalLoop=1;jettySize=auto;html=1;entryX=0.95;entryY=0.5;entryDx=0;entryDy=0;entryPerimeter=0;endArrow=none;startFill=0;strokeWidth=20;exitX=0.95;exitY=0.5;exitDx=0;exitDy=0;exitPerimeter=0;strokeColor=#009EFF;curved=0;arcSize=5;" edge="1" parent="EkXDIwoB_u_x9bHJqCqe-1" source="EkXDIwoB_u_x9bHJqCqe-5" target="EkXDIwoB_u_x9bHJqCqe-9">
          <mxGeometry relative="1" as="geometry">
            <mxPoint x="436" y="177" as="sourcePoint" />
            <mxPoint x="436" y="287" as="targetPoint" />
            <Array as="points">
              <mxPoint x="611" y="177" />
              <mxPoint x="611" y="287" />
            </Array>
          </mxGeometry>
        </mxCell>
        <mxCell id="EkXDIwoB_u_x9bHJqCqe-46" value="processing_activity_id" style="rounded=1;whiteSpace=wrap;html=1;strokeColor=none;fillColor=#009EFF;points=[[0,0,0,0,0],[0,0.25,0,0,0],[0,0.75,0,0,0],[0,1,0,0,0],[0.05,0.5,0,0,0],[0.25,0,0,0,0],[0.25,1,0,0,0],[0.5,0,0,0,0],[0.5,1,0,0,0],[0.75,0,0,0,0],[0.75,1,0,0,0],[0.95,0.5,0,0,0],[1,0,0,0,0],[1,0.25,0,0,0],[1,0.75,0,0,0],[1,1,0,0,0]];align=center;spacing=5;" vertex="1" parent="EkXDIwoB_u_x9bHJqCqe-1">
          <mxGeometry x="738" y="589" width="180" height="20" as="geometry" />
        </mxCell>
        <mxCell id="EkXDIwoB_u_x9bHJqCqe-47" value="&quot;Kentekenhoudergegevens verstrekken&quot;" style="text;html=1;align=left;verticalAlign=middle;whiteSpace=wrap;rounded=0;fontStyle=0;fontSize=15;fontColor=#009EFF;" vertex="1" parent="EkXDIwoB_u_x9bHJqCqe-1">
          <mxGeometry x="737" y="515" width="374" height="30" as="geometry" />
        </mxCell>
        <mxCell id="EkXDIwoB_u_x9bHJqCqe-48" style="edgeStyle=orthogonalEdgeStyle;rounded=1;orthogonalLoop=1;jettySize=auto;html=1;entryX=0.95;entryY=0.5;entryDx=0;entryDy=0;entryPerimeter=0;endArrow=none;startFill=0;strokeWidth=20;exitX=0.05;exitY=0.5;exitDx=0;exitDy=0;exitPerimeter=0;strokeColor=#009EFF;curved=0;arcSize=5;" edge="1" parent="EkXDIwoB_u_x9bHJqCqe-1" source="EkXDIwoB_u_x9bHJqCqe-46" target="EkXDIwoB_u_x9bHJqCqe-42">
          <mxGeometry relative="1" as="geometry">
            <mxPoint x="694.98" y="510" as="sourcePoint" />
            <mxPoint x="694.98" y="751" as="targetPoint" />
          </mxGeometry>
        </mxCell>
        <mxCell id="EkXDIwoB_u_x9bHJqCqe-49" style="edgeStyle=orthogonalEdgeStyle;rounded=1;orthogonalLoop=1;jettySize=auto;html=1;entryX=0.95;entryY=0.5;entryDx=0;entryDy=0;entryPerimeter=0;endArrow=none;startFill=0;strokeWidth=20;exitX=0.05;exitY=0.5;exitDx=0;exitDy=0;exitPerimeter=0;strokeColor=#009EFF;curved=0;arcSize=5;" edge="1" parent="EkXDIwoB_u_x9bHJqCqe-1" source="EkXDIwoB_u_x9bHJqCqe-31" target="EkXDIwoB_u_x9bHJqCqe-15">
          <mxGeometry relative="1" as="geometry">
            <mxPoint x="757" y="609" as="sourcePoint" />
            <mxPoint x="446" y="609" as="targetPoint" />
          </mxGeometry>
        </mxCell>
        <mxCell id="EkXDIwoB_u_x9bHJqCqe-50" value="" style="rounded=1;whiteSpace=wrap;html=1;strokeColor=none;fillColor=#009EFF;points=[[0,0,0,0,0],[0,0.25,0,0,0],[0,0.75,0,0,0],[0,1,0,0,0],[0.05,0.5,0,0,0],[0.25,0,0,0,0],[0.25,1,0,0,0],[0.5,0,0,0,0],[0.5,1,0,0,0],[0.75,0,0,0,0],[0.75,1,0,0,0],[0.95,0.5,0,0,0],[1,0,0,0,0],[1,0.25,0,0,0],[1,0.75,0,0,0],[1,1,0,0,0]];align=center;spacing=5;gradientColor=#14E6CD;gradientDirection=east;rotation=90;" vertex="1" parent="EkXDIwoB_u_x9bHJqCqe-1">
          <mxGeometry x="640" y="217" width="100" height="20" as="geometry" />
        </mxCell>
      </root>
    </mxGraphModel>
  </diagram>
  <diagram name="afbeelding12" id="osN65dY2DAETbBFKTFG7">
    <mxGraphModel dx="1426" dy="859" grid="1" gridSize="10" guides="1" tooltips="1" connect="1" arrows="1" fold="1" page="1" pageScale="1" pageWidth="1169" pageHeight="827" math="0" shadow="0">
      <root>
        <mxCell id="w6FjHONj03NSvrHB2J50-0" />
        <mxCell id="w6FjHONj03NSvrHB2J50-1" parent="w6FjHONj03NSvrHB2J50-0" />
        <mxCell id="w6FjHONj03NSvrHB2J50-2" value="Operation" style="rounded=1;whiteSpace=wrap;html=1;align=left;fontSize=16;spacing=5;absoluteArcSize=1;fillColor=none;" vertex="1" parent="w6FjHONj03NSvrHB2J50-1">
          <mxGeometry x="51" y="120" width="400" height="100" as="geometry" />
        </mxCell>
        <mxCell id="w6FjHONj03NSvrHB2J50-3" value="trace_id" style="rounded=1;whiteSpace=wrap;html=1;strokeColor=none;fillColor=#1BB000;points=[[0,0,0,0,0],[0,0.25,0,0,0],[0,0.75,0,0,0],[0,1,0,0,0],[0.05,0.5,0,0,0],[0.25,0,0,0,0],[0.25,1,0,0,0],[0.5,0,0,0,0],[0.5,1,0,0,0],[0.75,0,0,0,0],[0.75,1,0,0,0],[0.95,0.5,0,0,0],[1,0,0,0,0],[1,0.25,0,0,0],[1,0.75,0,0,0],[1,1,0,0,0]];align=left;spacing=5;" vertex="1" parent="w6FjHONj03NSvrHB2J50-1">
          <mxGeometry x="265" y="146" width="180" height="20" as="geometry" />
        </mxCell>
        <mxCell id="w6FjHONj03NSvrHB2J50-4" value="&quot;Toon alle vergunningen&quot;" style="text;html=1;align=left;verticalAlign=middle;whiteSpace=wrap;rounded=0;fontStyle=0;fontSize=15;fontColor=#009EFF;" vertex="1" parent="w6FjHONj03NSvrHB2J50-1">
          <mxGeometry x="57" y="172" width="204" height="30" as="geometry" />
        </mxCell>
        <mxCell id="w6FjHONj03NSvrHB2J50-6" value="Operation" style="rounded=1;whiteSpace=wrap;html=1;align=left;fontSize=16;spacing=5;absoluteArcSize=1;fillColor=none;" vertex="1" parent="w6FjHONj03NSvrHB2J50-1">
          <mxGeometry x="51" y="230" width="400" height="100" as="geometry" />
        </mxCell>
        <mxCell id="w6FjHONj03NSvrHB2J50-7" value="trace_id" style="rounded=1;whiteSpace=wrap;html=1;strokeColor=none;fillColor=#1BB000;points=[[0,0,0,0,0],[0,0.25,0,0,0],[0,0.75,0,0,0],[0,1,0,0,0],[0.05,0.5,0,0,0],[0.25,0,0,0,0],[0.25,1,0,0,0],[0.5,0,0,0,0],[0.5,1,0,0,0],[0.75,0,0,0,0],[0.75,1,0,0,0],[0.95,0.5,0,0,0],[1,0,0,0,0],[1,0.25,0,0,0],[1,0.75,0,0,0],[1,1,0,0,0]];align=left;spacing=5;" vertex="1" parent="w6FjHONj03NSvrHB2J50-1">
          <mxGeometry x="265" y="256" width="180" height="20" as="geometry" />
        </mxCell>
        <mxCell id="w6FjHONj03NSvrHB2J50-8" value="&quot;Wijzig kenteken&quot;" style="text;html=1;align=left;verticalAlign=middle;whiteSpace=wrap;rounded=0;fontStyle=0;fontSize=15;fontColor=#009EFF;" vertex="1" parent="w6FjHONj03NSvrHB2J50-1">
          <mxGeometry x="57" y="282" width="204" height="30" as="geometry" />
        </mxCell>
        <mxCell id="w6FjHONj03NSvrHB2J50-12" value="Operation" style="rounded=1;whiteSpace=wrap;html=1;align=left;fontSize=16;spacing=5;absoluteArcSize=1;fillColor=none;" vertex="1" parent="w6FjHONj03NSvrHB2J50-1">
          <mxGeometry x="101" y="340" width="400" height="100" as="geometry" />
        </mxCell>
        <mxCell id="w6FjHONj03NSvrHB2J50-13" value="trace_id" style="rounded=1;whiteSpace=wrap;html=1;strokeColor=none;fillColor=#1BB000;points=[[0,0,0,0,0],[0,0.25,0,0,0],[0,0.75,0,0,0],[0,1,0,0,0],[0.05,0.5,0,0,0],[0.25,0,0,0,0],[0.25,1,0,0,0],[0.5,0,0,0,0],[0.5,1,0,0,0],[0.75,0,0,0,0],[0.75,1,0,0,0],[0.95,0.5,0,0,0],[1,0,0,0,0],[1,0.25,0,0,0],[1,0.75,0,0,0],[1,1,0,0,0]];align=left;spacing=5;" vertex="1" parent="w6FjHONj03NSvrHB2J50-1">
          <mxGeometry x="315" y="366" width="180" height="20" as="geometry" />
        </mxCell>
        <mxCell id="w6FjHONj03NSvrHB2J50-14" value="&quot;Controleer tenaamstelling&quot;" style="text;html=1;align=left;verticalAlign=middle;whiteSpace=wrap;rounded=0;fontStyle=0;fontSize=15;fontColor=#009EFF;" vertex="1" parent="w6FjHONj03NSvrHB2J50-1">
          <mxGeometry x="107" y="392" width="204" height="30" as="geometry" />
        </mxCell>
        <mxCell id="w6FjHONj03NSvrHB2J50-17" value="Operation" style="rounded=1;whiteSpace=wrap;html=1;align=left;fontSize=16;spacing=5;absoluteArcSize=1;fillColor=none;" vertex="1" parent="w6FjHONj03NSvrHB2J50-1">
          <mxGeometry x="51" y="491" width="400" height="130" as="geometry" />
        </mxCell>
        <mxCell id="w6FjHONj03NSvrHB2J50-18" value="foreign_trace_id" style="rounded=1;whiteSpace=wrap;html=1;strokeColor=none;fillColor=#1BB000;points=[[0,0,0,0,0],[0,0.25,0,0,0],[0,0.75,0,0,0],[0,1,0,0,0],[0.05,0.5,0,0,0],[0.25,0,0,0,0],[0.25,1,0,0,0],[0.5,0,0,0,0],[0.5,1,0,0,0],[0.75,0,0,0,0],[0.75,1,0,0,0],[0.95,0.5,0,0,0],[1,0,0,0,0],[1,0.25,0,0,0],[1,0.75,0,0,0],[1,1,0,0,0]];align=left;spacing=5;gradientColor=#F1E8E2;gradientDirection=west;" vertex="1" parent="w6FjHONj03NSvrHB2J50-1">
          <mxGeometry x="265" y="526" width="180" height="20" as="geometry" />
        </mxCell>
        <mxCell id="w6FjHONj03NSvrHB2J50-19" value="&quot;Verstrek houdergegevens&quot;" style="text;html=1;align=left;verticalAlign=middle;whiteSpace=wrap;rounded=0;fontStyle=0;fontSize=15;fontColor=#009EFF;" vertex="1" parent="w6FjHONj03NSvrHB2J50-1">
          <mxGeometry x="57" y="567" width="204" height="30" as="geometry" />
        </mxCell>
        <mxCell id="w6FjHONj03NSvrHB2J50-24" style="edgeStyle=orthogonalEdgeStyle;rounded=1;orthogonalLoop=1;jettySize=auto;html=1;entryX=0.95;entryY=0.5;entryDx=0;entryDy=0;entryPerimeter=0;endArrow=none;startFill=0;strokeWidth=20;exitX=0.95;exitY=0.5;exitDx=0;exitDy=0;exitPerimeter=0;strokeColor=#1BB000;curved=0;arcSize=5;" edge="1" parent="w6FjHONj03NSvrHB2J50-1" source="w6FjHONj03NSvrHB2J50-3" target="w6FjHONj03NSvrHB2J50-7">
          <mxGeometry relative="1" as="geometry">
            <mxPoint x="531" y="157" as="sourcePoint" />
            <mxPoint x="581" y="330" as="targetPoint" />
            <Array as="points">
              <mxPoint x="581" y="156" />
              <mxPoint x="581" y="266" />
            </Array>
          </mxGeometry>
        </mxCell>
        <mxCell id="w6FjHONj03NSvrHB2J50-25" style="edgeStyle=orthogonalEdgeStyle;rounded=1;orthogonalLoop=1;jettySize=auto;html=1;endArrow=none;startFill=0;strokeWidth=20;strokeColor=#1BB000;curved=0;arcSize=5;entryX=0.95;entryY=0.5;entryDx=0;entryDy=0;entryPerimeter=0;exitX=0.95;exitY=0.5;exitDx=0;exitDy=0;exitPerimeter=0;" edge="1" parent="w6FjHONj03NSvrHB2J50-1" source="w6FjHONj03NSvrHB2J50-7" target="w6FjHONj03NSvrHB2J50-13">
          <mxGeometry relative="1" as="geometry">
            <mxPoint x="441" y="270" as="sourcePoint" />
            <mxPoint x="480" y="376" as="targetPoint" />
            <Array as="points">
              <mxPoint x="581" y="266" />
              <mxPoint x="581" y="376" />
            </Array>
          </mxGeometry>
        </mxCell>
        <mxCell id="w6FjHONj03NSvrHB2J50-26" value="ProcessingActivity" style="rounded=1;whiteSpace=wrap;html=1;align=left;fontSize=16;spacing=5;absoluteArcSize=1;verticalAlign=top;fillColor=none;" vertex="1" parent="w6FjHONj03NSvrHB2J50-1">
          <mxGeometry x="731" y="120" width="400" height="100" as="geometry" />
        </mxCell>
        <mxCell id="w6FjHONj03NSvrHB2J50-27" value="&quot;Parkeervergunningadministratie voeren&quot;" style="text;html=1;align=left;verticalAlign=middle;whiteSpace=wrap;rounded=0;fontStyle=0;fontSize=15;fontColor=#009EFF;" vertex="1" parent="w6FjHONj03NSvrHB2J50-1">
          <mxGeometry x="738" y="139" width="374" height="30" as="geometry" />
        </mxCell>
        <mxCell id="w6FjHONj03NSvrHB2J50-30" value="ProcessingActivity" style="rounded=1;whiteSpace=wrap;html=1;align=left;fontSize=16;spacing=5;absoluteArcSize=1;verticalAlign=top;fillColor=none;" vertex="1" parent="w6FjHONj03NSvrHB2J50-1">
          <mxGeometry x="730" y="340" width="400" height="100" as="geometry" />
        </mxCell>
        <mxCell id="w6FjHONj03NSvrHB2J50-34" value="&quot;Tenaamstelling controleren&quot;" style="text;html=1;align=left;verticalAlign=middle;whiteSpace=wrap;rounded=0;fontStyle=0;fontSize=15;fontColor=#009EFF;" vertex="1" parent="w6FjHONj03NSvrHB2J50-1">
          <mxGeometry x="737" y="359" width="374" height="30" as="geometry" />
        </mxCell>
        <mxCell id="w6FjHONj03NSvrHB2J50-35" value="ProcessingActivity" style="rounded=1;whiteSpace=wrap;html=1;align=left;fontSize=16;spacing=5;absoluteArcSize=1;verticalAlign=top;fillColor=none;" vertex="1" parent="w6FjHONj03NSvrHB2J50-1">
          <mxGeometry x="730" y="493.5" width="400" height="125" as="geometry" />
        </mxCell>
        <mxCell id="w6FjHONj03NSvrHB2J50-36" value="" style="endArrow=none;dashed=1;html=1;dashPattern=1 3;strokeWidth=2;rounded=0;" edge="1" parent="w6FjHONj03NSvrHB2J50-1">
          <mxGeometry width="50" height="50" relative="1" as="geometry">
            <mxPoint x="21" y="470" as="sourcePoint" />
            <mxPoint x="1171" y="470" as="targetPoint" />
          </mxGeometry>
        </mxCell>
        <mxCell id="w6FjHONj03NSvrHB2J50-37" value="Gemeente" style="text;html=1;align=center;verticalAlign=middle;whiteSpace=wrap;rounded=1;rotation=-90;fontSize=18;fillColor=none;strokeColor=default;absoluteArcSize=1;" vertex="1" parent="w6FjHONj03NSvrHB2J50-1">
          <mxGeometry x="-144" y="265" width="317.5" height="30" as="geometry" />
        </mxCell>
        <mxCell id="w6FjHONj03NSvrHB2J50-38" value="RDW" style="text;html=1;align=center;verticalAlign=middle;whiteSpace=wrap;rounded=1;rotation=-90;fontSize=18;fillColor=none;strokeColor=default;absoluteArcSize=1;" vertex="1" parent="w6FjHONj03NSvrHB2J50-1">
          <mxGeometry x="-50.25" y="541" width="130" height="30" as="geometry" />
        </mxCell>
        <mxCell id="w6FjHONj03NSvrHB2J50-39" value="Logboek" style="text;html=1;align=center;verticalAlign=middle;whiteSpace=wrap;rounded=1;rotation=0;fontSize=18;fillColor=none;strokeColor=default;absoluteArcSize=1;" vertex="1" parent="w6FjHONj03NSvrHB2J50-1">
          <mxGeometry x="51" y="70" width="400" height="30" as="geometry" />
        </mxCell>
        <mxCell id="w6FjHONj03NSvrHB2J50-40" value="Register" style="text;html=1;align=center;verticalAlign=middle;whiteSpace=wrap;rounded=1;rotation=0;fontSize=18;fillColor=none;strokeColor=default;absoluteArcSize=1;" vertex="1" parent="w6FjHONj03NSvrHB2J50-1">
          <mxGeometry x="731" y="70" width="400" height="30" as="geometry" />
        </mxCell>
        <mxCell id="w6FjHONj03NSvrHB2J50-41" value="trace_id" style="rounded=1;whiteSpace=wrap;html=1;strokeColor=none;fillColor=#1BB000;points=[[0,0,0,0,0],[0,0.25,0,0,0],[0,0.75,0,0,0],[0,1,0,0,0],[0.05,0.5,0,0,0],[0.25,0,0,0,0],[0.25,1,0,0,0],[0.5,0,0,0,0],[0.5,1,0,0,0],[0.75,0,0,0,0],[0.75,1,0,0,0],[0.95,0.5,0,0,0],[1,0,0,0,0],[1,0.25,0,0,0],[1,0.75,0,0,0],[1,1,0,0,0]];align=left;spacing=5;" vertex="1" parent="w6FjHONj03NSvrHB2J50-1">
          <mxGeometry x="265" y="568" width="180" height="20" as="geometry" />
        </mxCell>
        <mxCell id="w6FjHONj03NSvrHB2J50-43" style="edgeStyle=orthogonalEdgeStyle;rounded=1;orthogonalLoop=1;jettySize=auto;html=1;endArrow=none;startFill=0;strokeWidth=20;strokeColor=#1BB000;curved=0;arcSize=5;entryX=0.95;entryY=0.5;entryDx=0;entryDy=0;entryPerimeter=0;exitX=0.95;exitY=0.5;exitDx=0;exitDy=0;exitPerimeter=0;" edge="1" parent="w6FjHONj03NSvrHB2J50-1" source="w6FjHONj03NSvrHB2J50-13" target="w6FjHONj03NSvrHB2J50-18">
          <mxGeometry relative="1" as="geometry">
            <mxPoint x="431" y="428" as="sourcePoint" />
            <mxPoint x="481" y="538" as="targetPoint" />
            <Array as="points">
              <mxPoint x="581" y="376" />
              <mxPoint x="581" y="536" />
            </Array>
          </mxGeometry>
        </mxCell>
        <mxCell id="w6FjHONj03NSvrHB2J50-47" value="&quot;Kentekenhoudergegevens verstrekken&quot;" style="text;html=1;align=left;verticalAlign=middle;whiteSpace=wrap;rounded=0;fontStyle=0;fontSize=15;fontColor=#009EFF;" vertex="1" parent="w6FjHONj03NSvrHB2J50-1">
          <mxGeometry x="737" y="512.5" width="374" height="30" as="geometry" />
        </mxCell>
      </root>
    </mxGraphModel>
  </diagram>
  <diagram name="afbeelding13" id="p3LI7LY1ZP0_hS7qtWwm">
    <mxGraphModel dx="1426" dy="859" grid="1" gridSize="10" guides="1" tooltips="1" connect="1" arrows="1" fold="1" page="1" pageScale="1" pageWidth="1169" pageHeight="827" math="0" shadow="0">
      <root>
        <mxCell id="IWUfkj41O025-ni4HrvE-0" />
        <mxCell id="IWUfkj41O025-ni4HrvE-1" parent="IWUfkj41O025-ni4HrvE-0" />
        <mxCell id="IWUfkj41O025-ni4HrvE-2" value="Operation" style="rounded=1;whiteSpace=wrap;html=1;align=left;fontSize=16;spacing=5;absoluteArcSize=1;fillColor=none;" vertex="1" parent="IWUfkj41O025-ni4HrvE-1">
          <mxGeometry x="51" y="120" width="400" height="100" as="geometry" />
        </mxCell>
        <mxCell id="IWUfkj41O025-ni4HrvE-4" value="&quot;Toon alle vergunningen&quot;" style="text;html=1;align=left;verticalAlign=middle;whiteSpace=wrap;rounded=0;fontStyle=0;fontSize=15;fontColor=#009EFF;" vertex="1" parent="IWUfkj41O025-ni4HrvE-1">
          <mxGeometry x="57" y="172" width="204" height="30" as="geometry" />
        </mxCell>
        <mxCell id="IWUfkj41O025-ni4HrvE-6" value="Operation" style="rounded=1;whiteSpace=wrap;html=1;align=left;fontSize=16;spacing=5;absoluteArcSize=1;fillColor=none;" vertex="1" parent="IWUfkj41O025-ni4HrvE-1">
          <mxGeometry x="51" y="230" width="400" height="100" as="geometry" />
        </mxCell>
        <mxCell id="IWUfkj41O025-ni4HrvE-8" value="&quot;Wijzig kenteken&quot;" style="text;html=1;align=left;verticalAlign=middle;whiteSpace=wrap;rounded=0;fontStyle=0;fontSize=15;fontColor=#009EFF;" vertex="1" parent="IWUfkj41O025-ni4HrvE-1">
          <mxGeometry x="57" y="282" width="204" height="30" as="geometry" />
        </mxCell>
        <mxCell id="IWUfkj41O025-ni4HrvE-10" value="span_id" style="rounded=1;whiteSpace=wrap;html=1;strokeColor=none;fillColor=light-dark(#ff40a0, #22a20b);points=[[0,0,0,0,0],[0,0.25,0,0,0],[0,0.75,0,0,0],[0,1,0,0,0],[0.05,0.5,0,0,0],[0.25,0,0,0,0],[0.25,1,0,0,0],[0.5,0,0,0,0],[0.5,1,0,0,0],[0.75,0,0,0,0],[0.75,1,0,0,0],[0.95,0.5,0,0,0],[1,0,0,0,0],[1,0.25,0,0,0],[1,0.75,0,0,0],[1,1,0,0,0]];align=left;spacing=5;" vertex="1" parent="IWUfkj41O025-ni4HrvE-1">
          <mxGeometry x="265" y="125" width="180" height="20" as="geometry" />
        </mxCell>
        <mxCell id="IWUfkj41O025-ni4HrvE-11" value="span_id" style="rounded=1;whiteSpace=wrap;html=1;strokeColor=none;fillColor=light-dark(#ff40a0, #22a20b);points=[[0,0,0,0,0],[0,0.25,0,0,0],[0,0.75,0,0,0],[0,1,0,0,0],[0.05,0.5,0,0,0],[0.25,0,0,0,0],[0.25,1,0,0,0],[0.5,0,0,0,0],[0.5,1,0,0,0],[0.75,0,0,0,0],[0.75,1,0,0,0],[0.95,0.5,0,0,0],[1,0,0,0,0],[1,0.25,0,0,0],[1,0.75,0,0,0],[1,1,0,0,0]];align=left;spacing=5;gradientColor=#FF958C;gradientDirection=east;" vertex="1" parent="IWUfkj41O025-ni4HrvE-1">
          <mxGeometry x="265" y="235" width="180" height="20" as="geometry" />
        </mxCell>
        <mxCell id="IWUfkj41O025-ni4HrvE-12" value="Operation" style="rounded=1;whiteSpace=wrap;html=1;align=left;fontSize=16;spacing=5;absoluteArcSize=1;fillColor=none;" vertex="1" parent="IWUfkj41O025-ni4HrvE-1">
          <mxGeometry x="101" y="340" width="400" height="100" as="geometry" />
        </mxCell>
        <mxCell id="IWUfkj41O025-ni4HrvE-14" value="&quot;Controleer tenaamstelling&quot;" style="text;html=1;align=left;verticalAlign=middle;whiteSpace=wrap;rounded=0;fontStyle=0;fontSize=15;fontColor=#009EFF;" vertex="1" parent="IWUfkj41O025-ni4HrvE-1">
          <mxGeometry x="107" y="392" width="204" height="30" as="geometry" />
        </mxCell>
        <mxCell id="IWUfkj41O025-ni4HrvE-16" value="span_id" style="rounded=1;whiteSpace=wrap;html=1;strokeColor=none;fillColor=light-dark(#ff40a0, #22a20b);points=[[0,0,0,0,0],[0,0.25,0,0,0],[0,0.75,0,0,0],[0,1,0,0,0],[0.05,0.5,0,0,0],[0.25,0,0,0,0],[0.25,1,0,0,0],[0.5,0,0,0,0],[0.5,1,0,0,0],[0.75,0,0,0,0],[0.75,1,0,0,0],[0.95,0.5,0,0,0],[1,0,0,0,0],[1,0.25,0,0,0],[1,0.75,0,0,0],[1,1,0,0,0]];align=left;spacing=5;" vertex="1" parent="IWUfkj41O025-ni4HrvE-1">
          <mxGeometry x="315" y="345" width="180" height="20" as="geometry" />
        </mxCell>
        <mxCell id="IWUfkj41O025-ni4HrvE-17" value="Operation" style="rounded=1;whiteSpace=wrap;html=1;align=left;fontSize=16;spacing=5;absoluteArcSize=1;fillColor=none;" vertex="1" parent="IWUfkj41O025-ni4HrvE-1">
          <mxGeometry x="51" y="491" width="400" height="130" as="geometry" />
        </mxCell>
        <mxCell id="IWUfkj41O025-ni4HrvE-19" value="&quot;Verstrek houdergegevens&quot;" style="text;html=1;align=left;verticalAlign=middle;whiteSpace=wrap;rounded=0;fontStyle=0;fontSize=15;fontColor=#009EFF;" vertex="1" parent="IWUfkj41O025-ni4HrvE-1">
          <mxGeometry x="57" y="567" width="204" height="30" as="geometry" />
        </mxCell>
        <mxCell id="IWUfkj41O025-ni4HrvE-20" value="foreign_span_id" style="rounded=1;whiteSpace=wrap;html=1;strokeColor=none;fillColor=#FF958C;points=[[0,0,0,0,0],[0,0.25,0,0,0],[0,0.75,0,0,0],[0,1,0,0,0],[0.05,0.5,0,0,0],[0.25,0,0,0,0],[0.25,1,0,0,0],[0.5,0,0,0,0],[0.5,1,0,0,0],[0.75,0,0,0,0],[0.75,1,0,0,0],[0.95,0.5,0,0,0],[1,0,0,0,0],[1,0.25,0,0,0],[1,0.75,0,0,0],[1,1,0,0,0]];align=left;spacing=5;gradientColor=#FF40A0;gradientDirection=east;" vertex="1" parent="IWUfkj41O025-ni4HrvE-1">
          <mxGeometry x="265" y="547" width="180" height="20" as="geometry" />
        </mxCell>
        <mxCell id="IWUfkj41O025-ni4HrvE-21" value="span_id" style="rounded=1;whiteSpace=wrap;html=1;strokeColor=none;fillColor=light-dark(#ff40a0, #22a20b);points=[[0,0,0,0,0],[0,0.25,0,0,0],[0,0.75,0,0,0],[0,1,0,0,0],[0.05,0.5,0,0,0],[0.25,0,0,0,0],[0.25,1,0,0,0],[0.5,0,0,0,0],[0.5,1,0,0,0],[0.75,0,0,0,0],[0.75,1,0,0,0],[0.95,0.5,0,0,0],[1,0,0,0,0],[1,0.25,0,0,0],[1,0.75,0,0,0],[1,1,0,0,0]];align=left;spacing=5;" vertex="1" parent="IWUfkj41O025-ni4HrvE-1">
          <mxGeometry x="265" y="505" width="180" height="20" as="geometry" />
        </mxCell>
        <mxCell id="IWUfkj41O025-ni4HrvE-22" value="parent_span_id" style="rounded=1;whiteSpace=wrap;html=1;strokeColor=none;fillColor=#FF958C;points=[[0,0,0,0,0],[0,0.25,0,0,0],[0,0.75,0,0,0],[0,1,0,0,0],[0.05,0.5,0,0,0],[0.25,0,0,0,0],[0.25,1,0,0,0],[0.5,0,0,0,0],[0.5,1,0,0,0],[0.75,0,0,0,0],[0.75,1,0,0,0],[0.95,0.5,0,0,0],[1,0,0,0,0],[1,0.25,0,0,0],[1,0.75,0,0,0],[1,1,0,0,0]];align=left;spacing=5;gradientColor=none;gradientDirection=east;" vertex="1" parent="IWUfkj41O025-ni4HrvE-1">
          <mxGeometry x="315" y="408" width="180" height="20" as="geometry" />
        </mxCell>
        <mxCell id="IWUfkj41O025-ni4HrvE-23" style="edgeStyle=orthogonalEdgeStyle;rounded=1;orthogonalLoop=1;jettySize=auto;html=1;entryX=0.95;entryY=0.5;entryDx=0;entryDy=0;entryPerimeter=0;endArrow=none;startFill=0;strokeWidth=20;exitX=0.95;exitY=0.5;exitDx=0;exitDy=0;exitPerimeter=0;strokeColor=#FF958C;curved=0;arcSize=5;" edge="1" parent="IWUfkj41O025-ni4HrvE-1" source="IWUfkj41O025-ni4HrvE-11" target="IWUfkj41O025-ni4HrvE-22">
          <mxGeometry relative="1" as="geometry">
            <Array as="points">
              <mxPoint x="551" y="245" />
              <mxPoint x="551" y="418" />
            </Array>
          </mxGeometry>
        </mxCell>
        <mxCell id="IWUfkj41O025-ni4HrvE-36" value="" style="endArrow=none;dashed=1;html=1;dashPattern=1 3;strokeWidth=2;rounded=0;" edge="1" parent="IWUfkj41O025-ni4HrvE-1">
          <mxGeometry width="50" height="50" relative="1" as="geometry">
            <mxPoint x="21" y="470" as="sourcePoint" />
            <mxPoint x="1171" y="470" as="targetPoint" />
          </mxGeometry>
        </mxCell>
        <mxCell id="IWUfkj41O025-ni4HrvE-37" value="Gemeente" style="text;html=1;align=center;verticalAlign=middle;whiteSpace=wrap;rounded=1;rotation=-90;fontSize=18;fillColor=none;strokeColor=default;absoluteArcSize=1;" vertex="1" parent="IWUfkj41O025-ni4HrvE-1">
          <mxGeometry x="-144" y="265" width="317.5" height="30" as="geometry" />
        </mxCell>
        <mxCell id="IWUfkj41O025-ni4HrvE-38" value="RDW" style="text;html=1;align=center;verticalAlign=middle;whiteSpace=wrap;rounded=1;rotation=-90;fontSize=18;fillColor=none;strokeColor=default;absoluteArcSize=1;" vertex="1" parent="IWUfkj41O025-ni4HrvE-1">
          <mxGeometry x="-50.25" y="541" width="130" height="30" as="geometry" />
        </mxCell>
        <mxCell id="IWUfkj41O025-ni4HrvE-39" value="Logboek" style="text;html=1;align=center;verticalAlign=middle;whiteSpace=wrap;rounded=1;rotation=0;fontSize=18;fillColor=none;strokeColor=default;absoluteArcSize=1;" vertex="1" parent="IWUfkj41O025-ni4HrvE-1">
          <mxGeometry x="51" y="70" width="400" height="30" as="geometry" />
        </mxCell>
        <mxCell id="IWUfkj41O025-ni4HrvE-45" style="edgeStyle=orthogonalEdgeStyle;rounded=1;orthogonalLoop=1;jettySize=auto;html=1;entryX=0.95;entryY=0.5;entryDx=0;entryDy=0;entryPerimeter=0;endArrow=none;startFill=0;strokeWidth=20;exitX=0.95;exitY=0.5;exitDx=0;exitDy=0;exitPerimeter=0;strokeColor=#FF40A0;curved=0;arcSize=5;" edge="1" parent="IWUfkj41O025-ni4HrvE-1" source="IWUfkj41O025-ni4HrvE-16" target="IWUfkj41O025-ni4HrvE-20">
          <mxGeometry relative="1" as="geometry">
            <mxPoint x="495" y="340" as="sourcePoint" />
            <mxPoint x="545" y="513" as="targetPoint" />
            <Array as="points">
              <mxPoint x="521" y="355" />
              <mxPoint x="521" y="557" />
            </Array>
          </mxGeometry>
        </mxCell>
        <mxCell id="LpOvbv8-iP1CHluE5r6X-0" value="ProcessingActivity" style="rounded=1;whiteSpace=wrap;html=1;align=left;fontSize=16;spacing=5;absoluteArcSize=1;verticalAlign=top;fillColor=none;" vertex="1" parent="IWUfkj41O025-ni4HrvE-1">
          <mxGeometry x="731" y="120" width="400" height="100" as="geometry" />
        </mxCell>
        <mxCell id="LpOvbv8-iP1CHluE5r6X-1" value="&quot;Parkeervergunningadministratie voeren&quot;" style="text;html=1;align=left;verticalAlign=middle;whiteSpace=wrap;rounded=0;fontStyle=0;fontSize=15;fontColor=#009EFF;" vertex="1" parent="IWUfkj41O025-ni4HrvE-1">
          <mxGeometry x="738" y="139" width="374" height="30" as="geometry" />
        </mxCell>
        <mxCell id="LpOvbv8-iP1CHluE5r6X-3" value="ProcessingActivity" style="rounded=1;whiteSpace=wrap;html=1;align=left;fontSize=16;spacing=5;absoluteArcSize=1;verticalAlign=top;fillColor=none;" vertex="1" parent="IWUfkj41O025-ni4HrvE-1">
          <mxGeometry x="730" y="340" width="400" height="100" as="geometry" />
        </mxCell>
        <mxCell id="LpOvbv8-iP1CHluE5r6X-6" value="&quot;Tenaamstelling controleren&quot;" style="text;html=1;align=left;verticalAlign=middle;whiteSpace=wrap;rounded=0;fontStyle=0;fontSize=15;fontColor=#009EFF;" vertex="1" parent="IWUfkj41O025-ni4HrvE-1">
          <mxGeometry x="737" y="359" width="374" height="30" as="geometry" />
        </mxCell>
        <mxCell id="LpOvbv8-iP1CHluE5r6X-7" value="ProcessingActivity" style="rounded=1;whiteSpace=wrap;html=1;align=left;fontSize=16;spacing=5;absoluteArcSize=1;verticalAlign=top;fillColor=none;" vertex="1" parent="IWUfkj41O025-ni4HrvE-1">
          <mxGeometry x="730" y="493.5" width="400" height="125" as="geometry" />
        </mxCell>
        <mxCell id="LpOvbv8-iP1CHluE5r6X-8" value="Register" style="text;html=1;align=center;verticalAlign=middle;whiteSpace=wrap;rounded=1;rotation=0;fontSize=18;fillColor=none;strokeColor=default;absoluteArcSize=1;" vertex="1" parent="IWUfkj41O025-ni4HrvE-1">
          <mxGeometry x="731" y="70" width="400" height="30" as="geometry" />
        </mxCell>
        <mxCell id="LpOvbv8-iP1CHluE5r6X-10" value="&quot;Kentekenhoudergegevens verstrekken&quot;" style="text;html=1;align=left;verticalAlign=middle;whiteSpace=wrap;rounded=0;fontStyle=0;fontSize=15;fontColor=#009EFF;" vertex="1" parent="IWUfkj41O025-ni4HrvE-1">
          <mxGeometry x="737" y="517" width="374" height="30" as="geometry" />
        </mxCell>
      </root>
    </mxGraphModel>
  </diagram>
</mxfile>
